<?xml version="1.0" standalone="no"?>
<svg width="567.429" height="427.275" viewBox="0 0 567.429 427.275" xmlns="http://www.w3.org/2000/svg" shape-rendering="crispEdges">
<title>
../docs/Angles_2.svg
</title>
<desc>
Creator: ROOT Version 6.26/10
CreationDate: Wed Mar  8 18:04:28 2023</desc>
<defs>
</defs>
<rect x="0.5" y="0" width="566.929" height="426.775" fill="white"/>
<rect x="57.1929" y="42.6775" width="453.543" height="341.42" fill="white"/>
<rect x="57.1929" y="42.6775" width="453.543" height="341.42" fill="none" stroke="black"/>
<rect x="57.1929" y="42.6775" width="453.543" height="341.42" fill="white"/>
<rect x="57.1929" y="42.6775" width="453.543" height="341.42" fill="none" stroke="black"/>
<path d="M57.1929,384.098h 453.543" fill="none" stroke="black"/>
<path d="M100.26,42.6775v 341.42" fill="none" stroke="black" stroke-dasharray=" 1, 2"/>
<path d="M146.328,42.6775v 341.42" fill="none" stroke="black" stroke-dasharray=" 1, 2"/>
<path d="M192.396,42.6775v 341.42" fill="none" stroke="black" stroke-dasharray=" 1, 2"/>
<path d="M238.464,42.6775v 341.42" fill="none" stroke="black" stroke-dasharray=" 1, 2"/>
<path d="M284.531,42.6775v 341.42" fill="none" stroke="black" stroke-dasharray=" 1, 2"/>
<path d="M330.599,42.6775v 341.42" fill="none" stroke="black" stroke-dasharray=" 1, 2"/>
<path d="M376.667,42.6775v 341.42" fill="none" stroke="black" stroke-dasharray=" 1, 2"/>
<path d="M422.735,42.6775v 341.42" fill="none" stroke="black" stroke-dasharray=" 1, 2"/>
<path d="M468.803,42.6775v 341.42" fill="none" stroke="black" stroke-dasharray=" 1, 2"/>
<path d="M100.26,42.6775v 341.42" fill="none" stroke="black" stroke-dasharray=" 1, 2"/>
<path d="M468.803,42.6775v 341.42" fill="none" stroke="black" stroke-dasharray=" 1, 2"/>
<path d="M57.1929,384.098v -341.42" fill="none" stroke="black"/>
<path d="M510.736,384.098h -453.543" fill="none" stroke="black" stroke-dasharray=" 1, 2"/>
<path d="M510.736,341.42h -453.543" fill="none" stroke="black" stroke-dasharray=" 1, 2"/>
<path d="M510.736,298.743h -453.543" fill="none" stroke="black" stroke-dasharray=" 1, 2"/>
<path d="M510.736,256.065h -453.543" fill="none" stroke="black" stroke-dasharray=" 1, 2"/>
<path d="M510.736,213.388h -453.543" fill="none" stroke="black" stroke-dasharray=" 1, 2"/>
<path d="M510.736,170.71h -453.543" fill="none" stroke="black" stroke-dasharray=" 1, 2"/>
<path d="M510.736,128.033h -453.543" fill="none" stroke="black" stroke-dasharray=" 1, 2"/>
<path d="M510.736,85.355h -453.543" fill="none" stroke="black" stroke-dasharray=" 1, 2"/>
<path d="M510.736,42.6775h -453.543" fill="none" stroke="black" stroke-dasharray=" 1, 2"/>
<path d="M57.1929,384.098h 453.543" fill="none" stroke="black"/>
<path d="M100.26,373.855v 10.2426" fill="none" stroke="black"/>
<path d="M111.777,378.976v 5.1213" fill="none" stroke="black"/>
<path d="M123.294,378.976v 5.1213" fill="none" stroke="black"/>
<path d="M134.811,378.976v 5.1213" fill="none" stroke="black"/>
<path d="M146.328,373.855v 10.2426" fill="none" stroke="black"/>
<path d="M157.845,378.976v 5.1213" fill="none" stroke="black"/>
<path d="M169.362,378.976v 5.1213" fill="none" stroke="black"/>
<path d="M180.879,378.976v 5.1213" fill="none" stroke="black"/>
<path d="M192.396,373.855v 10.2426" fill="none" stroke="black"/>
<path d="M203.913,378.976v 5.1213" fill="none" stroke="black"/>
<path d="M215.43,378.976v 5.1213" fill="none" stroke="black"/>
<path d="M226.947,378.976v 5.1213" fill="none" stroke="black"/>
<path d="M238.464,373.855v 10.2426" fill="none" stroke="black"/>
<path d="M249.981,378.976v 5.1213" fill="none" stroke="black"/>
<path d="M261.498,378.976v 5.1213" fill="none" stroke="black"/>
<path d="M273.015,378.976v 5.1213" fill="none" stroke="black"/>
<path d="M284.531,373.855v 10.2426" fill="none" stroke="black"/>
<path d="M296.048,378.976v 5.1213" fill="none" stroke="black"/>
<path d="M307.565,378.976v 5.1213" fill="none" stroke="black"/>
<path d="M319.082,378.976v 5.1213" fill="none" stroke="black"/>
<path d="M330.599,373.855v 10.2426" fill="none" stroke="black"/>
<path d="M342.116,378.976v 5.1213" fill="none" stroke="black"/>
<path d="M353.633,378.976v 5.1213" fill="none" stroke="black"/>
<path d="M365.15,378.976v 5.1213" fill="none" stroke="black"/>
<path d="M376.667,373.855v 10.2426" fill="none" stroke="black"/>
<path d="M388.184,378.976v 5.1213" fill="none" stroke="black"/>
<path d="M399.701,378.976v 5.1213" fill="none" stroke="black"/>
<path d="M411.218,378.976v 5.1213" fill="none" stroke="black"/>
<path d="M422.735,373.855v 10.2426" fill="none" stroke="black"/>
<path d="M434.252,378.976v 5.1213" fill="none" stroke="black"/>
<path d="M445.769,378.976v 5.1213" fill="none" stroke="black"/>
<path d="M457.286,378.976v 5.1213" fill="none" stroke="black"/>
<path d="M468.803,373.855v 10.2426" fill="none" stroke="black"/>
<path d="M100.26,373.855v 10.2426" fill="none" stroke="black"/>
<path d="M88.7433,378.976v 5.1213" fill="none" stroke="black"/>
<path d="M77.2264,378.976v 5.1213" fill="none" stroke="black"/>
<path d="M65.7094,378.976v 5.1213" fill="none" stroke="black"/>
<path d="M468.803,373.855v 10.2426" fill="none" stroke="black"/>
<path d="M480.32,378.976v 5.1213" fill="none" stroke="black"/>
<path d="M491.837,378.976v 5.1213" fill="none" stroke="black"/>
<path d="M503.354,378.976v 5.1213" fill="none" stroke="black"/>
<text xml:space="preserve" x="95.83" y="397.734" fill="black" font-size="14.2038" font-family="Helvetica">80</text>
<text xml:space="preserve" x="88.8854" y="397.734" fill="black" font-size="14.2038" font-family="Times">&#8722;</text>
<text xml:space="preserve" x="141.285" y="397.734" fill="black" font-size="14.2038" font-family="Helvetica">60</text>
<text xml:space="preserve" x="134.341" y="397.734" fill="black" font-size="14.2038" font-family="Times">&#8722;</text>
<text xml:space="preserve" x="187.372" y="397.734" fill="black" font-size="14.2038" font-family="Helvetica">40</text>
<text xml:space="preserve" x="180.427" y="397.734" fill="black" font-size="14.2038" font-family="Times">&#8722;</text>
<text xml:space="preserve" x="233.459" y="397.734" fill="black" font-size="14.2038" font-family="Helvetica">20</text>
<text xml:space="preserve" x="226.514" y="397.734" fill="black" font-size="14.2038" font-family="Times">&#8722;</text>
<text xml:space="preserve" x="280.177" y="397.734" fill="black" font-size="14.2038" font-family="Helvetica">0</text>
<text xml:space="preserve" x="322.475" y="397.734" fill="black" font-size="14.2038" font-family="Helvetica">20</text>
<text xml:space="preserve" x="368.562" y="397.734" fill="black" font-size="14.2038" font-family="Helvetica">40</text>
<text xml:space="preserve" x="414.649" y="397.734" fill="black" font-size="14.2038" font-family="Helvetica">60</text>
<text xml:space="preserve" x="460.735" y="397.734" fill="black" font-size="14.2038" font-family="Helvetica">80</text>
<text xml:space="preserve" x="363.511" y="412.255" fill="black" font-size="14.2038" font-family="Helvetica">Angle projection X [deg]</text>
<path d="M57.1929,384.098v -341.42" fill="none" stroke="black"/>
<path d="M70.7992,384.098h -13.6063" fill="none" stroke="black"/>
<path d="M63.9961,375.562h -6.80315" fill="none" stroke="black"/>
<path d="M63.9961,367.027h -6.80315" fill="none" stroke="black"/>
<path d="M63.9961,358.491h -6.80315" fill="none" stroke="black"/>
<path d="M63.9961,349.956h -6.80315" fill="none" stroke="black"/>
<path d="M70.7992,341.42h -13.6063" fill="none" stroke="black"/>
<path d="M63.9961,332.885h -6.80315" fill="none" stroke="black"/>
<path d="M63.9961,324.349h -6.80315" fill="none" stroke="black"/>
<path d="M63.9961,315.814h -6.80315" fill="none" stroke="black"/>
<path d="M63.9961,307.278h -6.80315" fill="none" stroke="black"/>
<path d="M70.7992,298.743h -13.6063" fill="none" stroke="black"/>
<path d="M63.9961,290.207h -6.80315" fill="none" stroke="black"/>
<path d="M63.9961,281.672h -6.80315" fill="none" stroke="black"/>
<path d="M63.9961,273.136h -6.80315" fill="none" stroke="black"/>
<path d="M63.9961,264.601h -6.80315" fill="none" stroke="black"/>
<path d="M70.7992,256.065h -13.6063" fill="none" stroke="black"/>
<path d="M63.9961,247.53h -6.80315" fill="none" stroke="black"/>
<path d="M63.9961,238.994h -6.80315" fill="none" stroke="black"/>
<path d="M63.9961,230.459h -6.80315" fill="none" stroke="black"/>
<path d="M63.9961,221.923h -6.80315" fill="none" stroke="black"/>
<path d="M70.7992,213.388h -13.6063" fill="none" stroke="black"/>
<path d="M63.9961,204.852h -6.80315" fill="none" stroke="black"/>
<path d="M63.9961,196.317h -6.80315" fill="none" stroke="black"/>
<path d="M63.9961,187.781h -6.80315" fill="none" stroke="black"/>
<path d="M63.9961,179.246h -6.80315" fill="none" stroke="black"/>
<path d="M70.7992,170.71h -13.6063" fill="none" stroke="black"/>
<path d="M63.9961,162.175h -6.80315" fill="none" stroke="black"/>
<path d="M63.9961,153.639h -6.80315" fill="none" stroke="black"/>
<path d="M63.9961,145.104h -6.80315" fill="none" stroke="black"/>
<path d="M63.9961,136.568h -6.80315" fill="none" stroke="black"/>
<path d="M70.7992,128.033h -13.6063" fill="none" stroke="black"/>
<path d="M63.9961,119.497h -6.80315" fill="none" stroke="black"/>
<path d="M63.9961,110.962h -6.80315" fill="none" stroke="black"/>
<path d="M63.9961,102.426h -6.80315" fill="none" stroke="black"/>
<path d="M63.9961,93.8905h -6.80315" fill="none" stroke="black"/>
<path d="M70.7992,85.355h -13.6063" fill="none" stroke="black"/>
<path d="M63.9961,76.8195h -6.80315" fill="none" stroke="black"/>
<path d="M63.9961,68.284h -6.80315" fill="none" stroke="black"/>
<path d="M63.9961,59.7485h -6.80315" fill="none" stroke="black"/>
<path d="M63.9961,51.213h -6.80315" fill="none" stroke="black"/>
<path d="M70.7992,42.6775h -13.6063" fill="none" stroke="black"/>
<text xml:space="preserve" x="31.4349" y="388.896" fill="black" font-size="14.2038" font-family="Helvetica">200</text>
<text xml:space="preserve" x="23.859" y="388.896" fill="black" font-size="14.2038" font-family="Times">&#8722;</text>
<text xml:space="preserve" x="31.4349" y="345.966" fill="black" font-size="14.2038" font-family="Helvetica">150</text>
<text xml:space="preserve" x="23.859" y="345.966" fill="black" font-size="14.2038" font-family="Times">&#8722;</text>
<text xml:space="preserve" x="31.4349" y="303.667" fill="black" font-size="14.2038" font-family="Helvetica">100</text>
<text xml:space="preserve" x="23.859" y="303.667" fill="black" font-size="14.2038" font-family="Times">&#8722;</text>
<text xml:space="preserve" x="39.0108" y="260.737" fill="black" font-size="14.2038" font-family="Helvetica">50</text>
<text xml:space="preserve" x="31.4349" y="260.737" fill="black" font-size="14.2038" font-family="Times">&#8722;</text>
<text xml:space="preserve" x="46.5867" y="218.438" fill="black" font-size="14.2038" font-family="Helvetica">0</text>
<text xml:space="preserve" x="39.0108" y="175.508" fill="black" font-size="14.2038" font-family="Helvetica">50</text>
<text xml:space="preserve" x="31.4349" y="132.578" fill="black" font-size="14.2038" font-family="Helvetica">100</text>
<text xml:space="preserve" x="31.4349" y="90.2794" fill="black" font-size="14.2038" font-family="Helvetica">150</text>
<text xml:space="preserve" x="31.4349" y="47.3493" fill="black" font-size="14.2038" font-family="Helvetica">200</text>
<g transform="rotate(-90,11.2325,189.397)">
<text xml:space="preserve" x="11.2325" y="189.397" fill="black" font-size="14.2038" font-family="Helvetica">Angle projection Y [deg]</text>
</g>
<g fill="#ff0000">
<circle cx="370.723" cy="265.391" r="2.5253"/>
<circle cx="245.859" cy="204.508" r="2.5253"/>
<circle cx="154.45" cy="203.089" r="2.5253"/>
<circle cx="356.005" cy="176.447" r="2.5253"/>
<circle cx="182.418" cy="184.339" r="2.5253"/>
<circle cx="178.472" cy="232.359" r="2.5253"/>
<circle cx="284.759" cy="218.716" r="2.5253"/>
<circle cx="380.953" cy="211.916" r="2.5253"/>
<circle cx="201.015" cy="203.249" r="2.5253"/>
<circle cx="308.917" cy="266.948" r="2.5253"/>
<circle cx="349.628" cy="176.454" r="2.5253"/>
<circle cx="280.373" cy="270.771" r="2.5253"/>
<circle cx="125.617" cy="248.076" r="2.5253"/>
<circle cx="371.612" cy="264.112" r="2.5253"/>
<circle cx="207.781" cy="261.335" r="2.5253"/>
<circle cx="451.387" cy="202.561" r="2.5253"/>
<circle cx="285.18" cy="176.187" r="2.5253"/>
<circle cx="234.684" cy="229.288" r="2.5253"/>
<circle cx="356.681" cy="179.055" r="2.5253"/>
<circle cx="215.623" cy="198.695" r="2.5253"/>
<circle cx="245.331" cy="225.525" r="2.5253"/>
<circle cx="172.456" cy="219.681" r="2.5253"/>
<circle cx="140.392" cy="260.784" r="2.5253"/>
<circle cx="140.457" cy="162.74" r="2.5253"/>
<circle cx="277.052" cy="163.711" r="2.5253"/>
<circle cx="263.627" cy="259.662" r="2.5253"/>
<circle cx="301.859" cy="160.026" r="2.5253"/>
<circle cx="109.202" cy="241.244" r="2.5253"/>
<circle cx="208.476" cy="180.242" r="2.5253"/>
<circle cx="311.956" cy="160.198" r="2.5253"/>
<circle cx="201.514" cy="249.5" r="2.5253"/>
<circle cx="344.332" cy="190.271" r="2.5253"/>
<circle cx="377.617" cy="155.202" r="2.5253"/>
<circle cx="414.775" cy="192.809" r="2.5253"/>
<circle cx="90.2838" cy="228.14" r="2.5253"/>
<circle cx="269.32" cy="286.48" r="2.5253"/>
<circle cx="345.931" cy="266.711" r="2.5253"/>
<circle cx="471.235" cy="182.84" r="2.5253"/>
<circle cx="164.63" cy="156.577" r="2.5253"/>
<circle cx="286.445" cy="213.393" r="2.5253"/>
<circle cx="337.508" cy="245.952" r="2.5253"/>
<circle cx="324.669" cy="182.124" r="2.5253"/>
<circle cx="295.052" cy="240.25" r="2.5253"/>
<circle cx="254.03" cy="151.977" r="2.5253"/>
<circle cx="406" cy="250.757" r="2.5253"/>
<circle cx="308.284" cy="215.385" r="2.5253"/>
<circle cx="429.083" cy="244.783" r="2.5253"/>
<circle cx="290.365" cy="235.662" r="2.5253"/>
<circle cx="465.081" cy="243.813" r="2.5253"/>
<circle cx="392.104" cy="227.922" r="2.5253"/>
<circle cx="266.736" cy="247.248" r="2.5253"/>
<circle cx="294.565" cy="260.749" r="2.5253"/>
<circle cx="264.125" cy="237.592" r="2.5253"/>
<circle cx="160.149" cy="200.154" r="2.5253"/>
<circle cx="220.414" cy="224.469" r="2.5253"/>
<circle cx="242.227" cy="202.97" r="2.5253"/>
<circle cx="236.815" cy="209.15" r="2.5253"/>
<circle cx="135.54" cy="205.321" r="2.5253"/>
<circle cx="356.481" cy="273.82" r="2.5253"/>
<circle cx="194.272" cy="259.613" r="2.5253"/>
<circle cx="232.454" cy="164.332" r="2.5253"/>
<circle cx="180.054" cy="186.355" r="2.5253"/>
<circle cx="291.229" cy="286.781" r="2.5253"/>
<circle cx="155.241" cy="217.447" r="2.5253"/>
<circle cx="222.943" cy="247.381" r="2.5253"/>
<circle cx="195.81" cy="197.077" r="2.5253"/>
<circle cx="366.628" cy="237.662" r="2.5253"/>
<circle cx="357.114" cy="275.895" r="2.5253"/>
<circle cx="428.251" cy="204.945" r="2.5253"/>
<circle cx="465.474" cy="237.886" r="2.5253"/>
<circle cx="457.945" cy="199.982" r="2.5253"/>
<circle cx="253.574" cy="177.876" r="2.5253"/>
<circle cx="242.396" cy="159.049" r="2.5253"/>
<circle cx="156.955" cy="264.582" r="2.5253"/>
<circle cx="240.264" cy="167.01" r="2.5253"/>
<circle cx="261.231" cy="185.12" r="2.5253"/>
</g>
<g fill="#ff0000">
<circle cx="247.886" cy="288.349" r="2.5253"/>
<circle cx="245.389" cy="211.172" r="2.5253"/>
<circle cx="300.137" cy="204.276" r="2.5253"/>
<circle cx="303.391" cy="262.313" r="2.5253"/>
<circle cx="204.983" cy="243.626" r="2.5253"/>
<circle cx="344.102" cy="171.141" r="2.5253"/>
<circle cx="298.898" cy="195.146" r="2.5253"/>
<circle cx="458.886" cy="183.237" r="2.5253"/>
<circle cx="305.584" cy="260.796" r="2.5253"/>
<circle cx="368.673" cy="282.8" r="2.5253"/>
<circle cx="322.849" cy="166.977" r="2.5253"/>
<circle cx="287.171" cy="238.297" r="2.5253"/>
<circle cx="344.936" cy="218.401" r="2.5253"/>
<circle cx="400.292" cy="249.847" r="2.5253"/>
<circle cx="217.733" cy="182.884" r="2.5253"/>
<circle cx="442.371" cy="209.264" r="2.5253"/>
<circle cx="382.117" cy="210.287" r="2.5253"/>
<circle cx="274.402" cy="238.73" r="2.5253"/>
<circle cx="301.546" cy="218.493" r="2.5253"/>
<circle cx="406.999" cy="163.748" r="2.5253"/>
<circle cx="346.655" cy="238.116" r="2.5253"/>
<circle cx="148.451" cy="258.04" r="2.5253"/>
<circle cx="429.598" cy="212.447" r="2.5253"/>
<circle cx="190.435" cy="202.153" r="2.5253"/>
<circle cx="456.527" cy="232.254" r="2.5253"/>
<circle cx="448.354" cy="180.919" r="2.5253"/>
<circle cx="481.01" cy="221.838" r="2.5253"/>
<circle cx="367.805" cy="251.844" r="2.5253"/>
<circle cx="372.303" cy="252.499" r="2.5253"/>
<circle cx="212.955" cy="216.435" r="2.5253"/>
<circle cx="292.209" cy="224.606" r="2.5253"/>
<circle cx="462.267" cy="216.651" r="2.5253"/>
<circle cx="243.414" cy="143.223" r="2.5253"/>
<circle cx="393.307" cy="222.203" r="2.5253"/>
<circle cx="216.802" cy="233.134" r="2.5253"/>
<circle cx="264.679" cy="238.559" r="2.5253"/>
<circle cx="201.659" cy="216.189" r="2.5253"/>
<circle cx="388.654" cy="215.48" r="2.5253"/>
<circle cx="376.987" cy="200.888" r="2.5253"/>
<circle cx="300.819" cy="240.979" r="2.5253"/>
<circle cx="124.301" cy="228.143" r="2.5253"/>
<circle cx="86.8442" cy="217.446" r="2.5253"/>
<circle cx="143.549" cy="187.293" r="2.5253"/>
<circle cx="339.993" cy="203.948" r="2.5253"/>
<circle cx="413.446" cy="231.564" r="2.5253"/>
<circle cx="182.875" cy="197.077" r="2.5253"/>
<circle cx="292.371" cy="146.671" r="2.5253"/>
<circle cx="440.131" cy="200.728" r="2.5253"/>
<circle cx="288.135" cy="171.464" r="2.5253"/>
<circle cx="421.657" cy="191.977" r="2.5253"/>
<circle cx="270.308" cy="288.875" r="2.5253"/>
<circle cx="294.653" cy="219.581" r="2.5253"/>
<circle cx="167.54" cy="169.027" r="2.5253"/>
<circle cx="142.911" cy="224.002" r="2.5253"/>
<circle cx="295.408" cy="170.819" r="2.5253"/>
<circle cx="315.31" cy="140.623" r="2.5253"/>
<circle cx="369.963" cy="181.349" r="2.5253"/>
<circle cx="101.619" cy="202.376" r="2.5253"/>
<circle cx="237.468" cy="223.12" r="2.5253"/>
<circle cx="296.365" cy="145.168" r="2.5253"/>
<circle cx="333.76" cy="190.463" r="2.5253"/>
</g>
<g fill="#0000ff">
<circle cx="295.546" cy="262.659" r="2.5253"/>
<circle cx="314.478" cy="225.821" r="2.5253"/>
<circle cx="352.269" cy="182.495" r="2.5253"/>
<circle cx="281.481" cy="260.888" r="2.5253"/>
<circle cx="274.143" cy="266.15" r="2.5253"/>
<circle cx="334.963" cy="193.249" r="2.5253"/>
<circle cx="302.531" cy="161.062" r="2.5253"/>
<circle cx="203.623" cy="236.296" r="2.5253"/>
<circle cx="449.625" cy="183.195" r="2.5253"/>
<circle cx="156.319" cy="192.26" r="2.5253"/>
<circle cx="232.741" cy="244.455" r="2.5253"/>
<circle cx="220.044" cy="217.828" r="2.5253"/>
<circle cx="340.03" cy="151.398" r="2.5253"/>
<circle cx="321.654" cy="199.228" r="2.5253"/>
<circle cx="349.263" cy="249.011" r="2.5253"/>
<circle cx="342.69" cy="149.498" r="2.5253"/>
<circle cx="292.108" cy="243.468" r="2.5253"/>
<circle cx="212.744" cy="205.492" r="2.5253"/>
<circle cx="128.269" cy="209.353" r="2.5253"/>
<circle cx="238.083" cy="166.288" r="2.5253"/>
<circle cx="154.058" cy="207.893" r="2.5253"/>
<circle cx="231.836" cy="263.707" r="2.5253"/>
<circle cx="92.2761" cy="205.782" r="2.5253"/>
<circle cx="120.53" cy="226.987" r="2.5253"/>
<circle cx="269.228" cy="183.268" r="2.5253"/>
<circle cx="165.849" cy="266.687" r="2.5253"/>
<circle cx="324.401" cy="206.565" r="2.5253"/>
<circle cx="236.44" cy="217.414" r="2.5253"/>
<circle cx="450.31" cy="221.262" r="2.5253"/>
<circle cx="136.364" cy="204.696" r="2.5253"/>
<circle cx="423.678" cy="238.979" r="2.5253"/>
<circle cx="255.806" cy="153.186" r="2.5253"/>
<circle cx="293.85" cy="278.532" r="2.5253"/>
<circle cx="287.583" cy="197.321" r="2.5253"/>
<circle cx="137.195" cy="190.47" r="2.5253"/>
<circle cx="315.867" cy="248.98" r="2.5253"/>
<circle cx="214.823" cy="254.625" r="2.5253"/>
<circle cx="143.133" cy="175.271" r="2.5253"/>
<circle cx="153.379" cy="207.197" r="2.5253"/>
<circle cx="260.532" cy="275.361" r="2.5253"/>
<circle cx="89.7324" cy="230.529" r="2.5253"/>
<circle cx="179.732" cy="167.235" r="2.5253"/>
<circle cx="276.707" cy="151.932" r="2.5253"/>
<circle cx="340.433" cy="228.033" r="2.5253"/>
<circle cx="329.126" cy="219.537" r="2.5253"/>
<circle cx="335.259" cy="198.565" r="2.5253"/>
<circle cx="327.934" cy="168.421" r="2.5253"/>
<circle cx="471.695" cy="217.055" r="2.5253"/>
<circle cx="241.805" cy="219.234" r="2.5253"/>
<circle cx="334.453" cy="198.512" r="2.5253"/>
<circle cx="208.384" cy="232.378" r="2.5253"/>
<circle cx="259.218" cy="266.153" r="2.5253"/>
<circle cx="168.026" cy="157.288" r="2.5253"/>
<circle cx="119.698" cy="180.806" r="2.5253"/>
<circle cx="451.027" cy="223.087" r="2.5253"/>
<circle cx="250.354" cy="215.013" r="2.5253"/>
<circle cx="220.257" cy="218.679" r="2.5253"/>
<circle cx="300.525" cy="237.646" r="2.5253"/>
<circle cx="261.258" cy="276.906" r="2.5253"/>
<circle cx="423.049" cy="254.709" r="2.5253"/>
<circle cx="125.834" cy="164.555" r="2.5253"/>
<circle cx="369.418" cy="176.926" r="2.5253"/>
<circle cx="418.973" cy="230.651" r="2.5253"/>
<circle cx="373.418" cy="217.675" r="2.5253"/>
<circle cx="452.099" cy="219.346" r="2.5253"/>
<circle cx="349.072" cy="189.028" r="2.5253"/>
<circle cx="219.759" cy="205.929" r="2.5253"/>
<circle cx="209.538" cy="265.947" r="2.5253"/>
<circle cx="365.742" cy="214.253" r="2.5253"/>
<circle cx="128.316" cy="240.141" r="2.5253"/>
<circle cx="240.087" cy="199.103" r="2.5253"/>
<circle cx="237.882" cy="282.501" r="2.5253"/>
<circle cx="273.776" cy="231.479" r="2.5253"/>
<circle cx="245.731" cy="223.479" r="2.5253"/>
<circle cx="304.316" cy="235.324" r="2.5253"/>
<circle cx="224.298" cy="257.636" r="2.5253"/>
<circle cx="450.572" cy="196.085" r="2.5253"/>
<circle cx="221.189" cy="154.407" r="2.5253"/>
<circle cx="220.913" cy="278.866" r="2.5253"/>
<circle cx="336.096" cy="209.987" r="2.5253"/>
<circle cx="344.013" cy="242.518" r="2.5253"/>
<circle cx="416.943" cy="172.117" r="2.5253"/>
<circle cx="374.861" cy="211.042" r="2.5253"/>
<circle cx="355.924" cy="194.668" r="2.5253"/>
<circle cx="187.58" cy="195.672" r="2.5253"/>
<circle cx="351.509" cy="239.278" r="2.5253"/>
<circle cx="178.269" cy="241.298" r="2.5253"/>
<circle cx="334.1" cy="233.038" r="2.5253"/>
<circle cx="149.875" cy="170.739" r="2.5253"/>
<circle cx="311.597" cy="187.451" r="2.5253"/>
<circle cx="210.246" cy="215.572" r="2.5253"/>
<circle cx="376.49" cy="279.721" r="2.5253"/>
<circle cx="314.83" cy="173.541" r="2.5253"/>
<circle cx="277.154" cy="183.164" r="2.5253"/>
<circle cx="104.432" cy="236.978" r="2.5253"/>
<circle cx="396.751" cy="202.542" r="2.5253"/>
</g>
<g fill="#ffff00">
<circle cx="130.894" cy="230.109" r="2.5253"/>
<circle cx="358.238" cy="213.534" r="2.5253"/>
<circle cx="385.47" cy="262.391" r="2.5253"/>
<circle cx="363.183" cy="252.751" r="2.5253"/>
<circle cx="346.202" cy="178.427" r="2.5253"/>
<circle cx="368.572" cy="191.113" r="2.5253"/>
<circle cx="163.646" cy="218.922" r="2.5253"/>
<circle cx="377.797" cy="258.357" r="2.5253"/>
<circle cx="413.483" cy="155.137" r="2.5253"/>
<circle cx="140.693" cy="246.669" r="2.5253"/>
<circle cx="196.832" cy="271.91" r="2.5253"/>
<circle cx="151.658" cy="210.581" r="2.5253"/>
<circle cx="438.77" cy="201.655" r="2.5253"/>
<circle cx="275.96" cy="168.648" r="2.5253"/>
<circle cx="209.489" cy="251.784" r="2.5253"/>
<circle cx="403.015" cy="230.345" r="2.5253"/>
<circle cx="278.844" cy="265.591" r="2.5253"/>
<circle cx="321.789" cy="268.649" r="2.5253"/>
<circle cx="307.627" cy="264.053" r="2.5253"/>
<circle cx="272.704" cy="161.068" r="2.5253"/>
<circle cx="315.745" cy="162.118" r="2.5253"/>
<circle cx="335.92" cy="203.896" r="2.5253"/>
<circle cx="458.5" cy="172.396" r="2.5253"/>
<circle cx="318.061" cy="217.785" r="2.5253"/>
<circle cx="299.344" cy="157.244" r="2.5253"/>
<circle cx="180.162" cy="160.077" r="2.5253"/>
<circle cx="199.617" cy="173.615" r="2.5253"/>
<circle cx="207.1" cy="203.753" r="2.5253"/>
<circle cx="197.739" cy="249.892" r="2.5253"/>
<circle cx="118.67" cy="239.707" r="2.5253"/>
<circle cx="268.433" cy="273.95" r="2.5253"/>
<circle cx="139.791" cy="184.622" r="2.5253"/>
<circle cx="208.361" cy="175.955" r="2.5253"/>
<circle cx="391.201" cy="170.973" r="2.5253"/>
<circle cx="279.915" cy="176.821" r="2.5253"/>
<circle cx="239.876" cy="193.672" r="2.5253"/>
<circle cx="111.931" cy="222.398" r="2.5253"/>
<circle cx="323.467" cy="216.724" r="2.5253"/>
<circle cx="344.158" cy="189.69" r="2.5253"/>
<circle cx="299.711" cy="137.266" r="2.5253"/>
<circle cx="301.829" cy="213.643" r="2.5253"/>
<circle cx="380.745" cy="178.536" r="2.5253"/>
<circle cx="388.993" cy="150.506" r="2.5253"/>
<circle cx="255.902" cy="209.252" r="2.5253"/>
<circle cx="468.819" cy="208.852" r="2.5253"/>
<circle cx="222.831" cy="158.109" r="2.5253"/>
<circle cx="300.843" cy="202.862" r="2.5253"/>
<circle cx="350.678" cy="184.313" r="2.5253"/>
<circle cx="145.281" cy="192.63" r="2.5253"/>
<circle cx="389.115" cy="164.148" r="2.5253"/>
<circle cx="427.519" cy="243.594" r="2.5253"/>
<circle cx="275.244" cy="268.435" r="2.5253"/>
<circle cx="403.523" cy="195.239" r="2.5253"/>
<circle cx="380.909" cy="258.164" r="2.5253"/>
<circle cx="241.552" cy="256.924" r="2.5253"/>
<circle cx="241.113" cy="161.969" r="2.5253"/>
<circle cx="313.675" cy="255.155" r="2.5253"/>
<circle cx="317.116" cy="214.915" r="2.5253"/>
<circle cx="258.48" cy="167.736" r="2.5253"/>
<circle cx="189.043" cy="254.884" r="2.5253"/>
<circle cx="345.41" cy="153.64" r="2.5253"/>
<circle cx="326.33" cy="278.48" r="2.5253"/>
<circle cx="318.759" cy="186.437" r="2.5253"/>
<circle cx="137.179" cy="171.533" r="2.5253"/>
<circle cx="348.05" cy="216.589" r="2.5253"/>
<circle cx="278.519" cy="146.243" r="2.5253"/>
<circle cx="145.16" cy="220.36" r="2.5253"/>
<circle cx="175.178" cy="205.026" r="2.5253"/>
<circle cx="128.188" cy="213.336" r="2.5253"/>
<circle cx="91.3925" cy="227.379" r="2.5253"/>
<circle cx="374.056" cy="226.587" r="2.5253"/>
<circle cx="416.772" cy="212.734" r="2.5253"/>
<circle cx="399.863" cy="184.989" r="2.5253"/>
<circle cx="423.408" cy="210.245" r="2.5253"/>
<circle cx="359.724" cy="212.171" r="2.5253"/>
<circle cx="347.264" cy="218.538" r="2.5253"/>
<circle cx="132.398" cy="171.123" r="2.5253"/>
<circle cx="377.239" cy="177.883" r="2.5253"/>
<circle cx="169.377" cy="186.514" r="2.5253"/>
<circle cx="133.659" cy="252.951" r="2.5253"/>
<circle cx="394.279" cy="251.024" r="2.5253"/>
<circle cx="118.267" cy="241.318" r="2.5253"/>
<circle cx="214.206" cy="143.517" r="2.5253"/>
<circle cx="322.594" cy="269.558" r="2.5253"/>
<circle cx="141.438" cy="188.912" r="2.5253"/>
<circle cx="268.901" cy="263.183" r="2.5253"/>
<circle cx="396.543" cy="198.096" r="2.5253"/>
<circle cx="426.406" cy="180.789" r="2.5253"/>
<circle cx="128.418" cy="230.565" r="2.5253"/>
<circle cx="384.937" cy="148.872" r="2.5253"/>
<circle cx="191.193" cy="213.287" r="2.5253"/>
<circle cx="441.514" cy="209.329" r="2.5253"/>
<circle cx="316.819" cy="200.384" r="2.5253"/>
<circle cx="215.53" cy="229.274" r="2.5253"/>
<circle cx="405.548" cy="200.858" r="2.5253"/>
<circle cx="132.731" cy="235.92" r="2.5253"/>
<circle cx="290.032" cy="234.457" r="2.5253"/>
<circle cx="402.859" cy="211.248" r="2.5253"/>
<circle cx="221.064" cy="173.254" r="2.5253"/>
<circle cx="446.835" cy="240.531" r="2.5253"/>
<circle cx="428.708" cy="249.676" r="2.5253"/>
<circle cx="340.978" cy="271.908" r="2.5253"/>
<circle cx="257.405" cy="230.856" r="2.5253"/>
<circle cx="147.123" cy="181.544" r="2.5253"/>
<circle cx="264.845" cy="233.242" r="2.5253"/>
<circle cx="398.648" cy="177.519" r="2.5253"/>
<circle cx="396.535" cy="199.341" r="2.5253"/>
<circle cx="256.805" cy="210.764" r="2.5253"/>
<circle cx="340.382" cy="230.902" r="2.5253"/>
<circle cx="353.469" cy="179.044" r="2.5253"/>
<circle cx="195.76" cy="187.183" r="2.5253"/>
<circle cx="270.497" cy="270.147" r="2.5253"/>
<circle cx="477.766" cy="227.401" r="2.5253"/>
<circle cx="133.685" cy="196.961" r="2.5253"/>
<circle cx="349.863" cy="276.374" r="2.5253"/>
<circle cx="212.649" cy="189.069" r="2.5253"/>
<circle cx="168.259" cy="243.804" r="2.5253"/>
<circle cx="306.954" cy="183.902" r="2.5253"/>
<circle cx="404.722" cy="252.096" r="2.5253"/>
<circle cx="210.277" cy="233.183" r="2.5253"/>
<circle cx="398.17" cy="189.125" r="2.5253"/>
<circle cx="419.993" cy="251.743" r="2.5253"/>
<circle cx="405.62" cy="167.926" r="2.5253"/>
<circle cx="351.824" cy="144.88" r="2.5253"/>
<circle cx="249.599" cy="172.612" r="2.5253"/>
<circle cx="362.008" cy="224.161" r="2.5253"/>
<circle cx="350.011" cy="212.722" r="2.5253"/>
<circle cx="178.16" cy="179.397" r="2.5253"/>
<circle cx="286.927" cy="266.444" r="2.5253"/>
</g>
<g fill="#ffff00">
<circle cx="326.773" cy="230.044" r="2.5253"/>
<circle cx="324.388" cy="235.842" r="2.5253"/>
<circle cx="246.149" cy="212.558" r="2.5253"/>
<circle cx="116.739" cy="201.797" r="2.5253"/>
<circle cx="381.32" cy="210.457" r="2.5253"/>
<circle cx="223.388" cy="283.702" r="2.5253"/>
<circle cx="364.244" cy="167.635" r="2.5253"/>
<circle cx="293.957" cy="242.817" r="2.5253"/>
<circle cx="410.227" cy="215.546" r="2.5253"/>
<circle cx="270.356" cy="193.208" r="2.5253"/>
<circle cx="164.911" cy="179.947" r="2.5253"/>
<circle cx="237.163" cy="234.489" r="2.5253"/>
<circle cx="287.046" cy="184.345" r="2.5253"/>
<circle cx="198.77" cy="205.923" r="2.5253"/>
<circle cx="390.538" cy="260.355" r="2.5253"/>
<circle cx="341.198" cy="242.358" r="2.5253"/>
<circle cx="168.813" cy="227.847" r="2.5253"/>
<circle cx="456.91" cy="219.159" r="2.5253"/>
<circle cx="394.635" cy="197.001" r="2.5253"/>
<circle cx="172.831" cy="162.848" r="2.5253"/>
<circle cx="288.168" cy="179.74" r="2.5253"/>
<circle cx="197.367" cy="176.506" r="2.5253"/>
<circle cx="143.202" cy="187.366" r="2.5253"/>
<circle cx="257.193" cy="272.465" r="2.5253"/>
<circle cx="169.002" cy="166.64" r="2.5253"/>
<circle cx="192.993" cy="281.667" r="2.5253"/>
<circle cx="225.49" cy="144.083" r="2.5253"/>
<circle cx="348.374" cy="246.86" r="2.5253"/>
<circle cx="150.514" cy="180.602" r="2.5253"/>
<circle cx="429.591" cy="206.299" r="2.5253"/>
<circle cx="277.165" cy="217.595" r="2.5253"/>
<circle cx="348.728" cy="263.568" r="2.5253"/>
<circle cx="239.163" cy="232.745" r="2.5253"/>
<circle cx="445.321" cy="206.455" r="2.5253"/>
<circle cx="104.999" cy="213.167" r="2.5253"/>
<circle cx="471.116" cy="195.076" r="2.5253"/>
<circle cx="311.242" cy="281.73" r="2.5253"/>
<circle cx="462.594" cy="187.708" r="2.5253"/>
<circle cx="431.5" cy="245.317" r="2.5253"/>
<circle cx="265.223" cy="166.235" r="2.5253"/>
<circle cx="172.177" cy="213.796" r="2.5253"/>
<circle cx="168.862" cy="263.108" r="2.5253"/>
<circle cx="485.32" cy="214.198" r="2.5253"/>
<circle cx="195.528" cy="236.516" r="2.5253"/>
<circle cx="305.248" cy="195.431" r="2.5253"/>
<circle cx="269.706" cy="289.368" r="2.5253"/>
<circle cx="229.68" cy="155.461" r="2.5253"/>
<circle cx="415.125" cy="156.39" r="2.5253"/>
<circle cx="279.053" cy="279.211" r="2.5253"/>
<circle cx="241.791" cy="192.448" r="2.5253"/>
<circle cx="271.773" cy="271.283" r="2.5253"/>
<circle cx="208.277" cy="269.188" r="2.5253"/>
<circle cx="282.217" cy="162.61" r="2.5253"/>
<circle cx="251.137" cy="231.047" r="2.5253"/>
<circle cx="403.878" cy="156.095" r="2.5253"/>
<circle cx="337.658" cy="252.208" r="2.5253"/>
<circle cx="460.576" cy="202.612" r="2.5253"/>
<circle cx="433.675" cy="194.789" r="2.5253"/>
<circle cx="246.51" cy="256.933" r="2.5253"/>
<circle cx="337.75" cy="236.503" r="2.5253"/>
<circle cx="407.703" cy="245.457" r="2.5253"/>
<circle cx="343.586" cy="261.511" r="2.5253"/>
<circle cx="246.582" cy="168.753" r="2.5253"/>
<circle cx="362.358" cy="263.589" r="2.5253"/>
<circle cx="327.478" cy="280.659" r="2.5253"/>
<circle cx="150.014" cy="201.936" r="2.5253"/>
<circle cx="301.307" cy="261.395" r="2.5253"/>
<circle cx="416.892" cy="187.421" r="2.5253"/>
<circle cx="330.205" cy="266.795" r="2.5253"/>
<circle cx="189.848" cy="247.261" r="2.5253"/>
<circle cx="256.737" cy="246.089" r="2.5253"/>
<circle cx="153.688" cy="218.229" r="2.5253"/>
<circle cx="225.243" cy="233.738" r="2.5253"/>
<circle cx="291.875" cy="197.825" r="2.5253"/>
<circle cx="172.679" cy="181.637" r="2.5253"/>
<circle cx="136.193" cy="172.559" r="2.5253"/>
<circle cx="320.084" cy="206.285" r="2.5253"/>
<circle cx="266.959" cy="252.796" r="2.5253"/>
<circle cx="309.843" cy="261.065" r="2.5253"/>
<circle cx="309.373" cy="256.796" r="2.5253"/>
<circle cx="253.818" cy="153.893" r="2.5253"/>
<circle cx="354.019" cy="202.122" r="2.5253"/>
<circle cx="444.55" cy="171.384" r="2.5253"/>
<circle cx="252.691" cy="213.662" r="2.5253"/>
<circle cx="288.123" cy="201.567" r="2.5253"/>
<circle cx="316.185" cy="189.756" r="2.5253"/>
<circle cx="298.568" cy="179.44" r="2.5253"/>
<circle cx="339.865" cy="225.935" r="2.5253"/>
<circle cx="287.865" cy="254.084" r="2.5253"/>
<circle cx="211.807" cy="277.957" r="2.5253"/>
<circle cx="126.742" cy="231.661" r="2.5253"/>
<circle cx="293.985" cy="154.035" r="2.5253"/>
<circle cx="250.836" cy="278.96" r="2.5253"/>
<circle cx="381.651" cy="248.43" r="2.5253"/>
<circle cx="320.391" cy="274.427" r="2.5253"/>
<circle cx="390.159" cy="183.09" r="2.5253"/>
<circle cx="241.252" cy="232.393" r="2.5253"/>
<circle cx="377.344" cy="184.681" r="2.5253"/>
<circle cx="176.413" cy="239.523" r="2.5253"/>
<circle cx="118.457" cy="252.664" r="2.5253"/>
<circle cx="403.186" cy="188.155" r="2.5253"/>
<circle cx="198.386" cy="204.892" r="2.5253"/>
<circle cx="260.759" cy="257.019" r="2.5253"/>
<circle cx="247.894" cy="199.149" r="2.5253"/>
<circle cx="482.623" cy="227.7" r="2.5253"/>
<circle cx="300.101" cy="267.289" r="2.5253"/>
<circle cx="269.922" cy="200.628" r="2.5253"/>
<circle cx="371.375" cy="155.791" r="2.5253"/>
<circle cx="267.926" cy="276.714" r="2.5253"/>
<circle cx="113.03" cy="247.716" r="2.5253"/>
<circle cx="467.314" cy="228.988" r="2.5253"/>
<circle cx="283.791" cy="191.778" r="2.5253"/>
<circle cx="392.941" cy="266.143" r="2.5253"/>
<circle cx="328.947" cy="257.483" r="2.5253"/>
<circle cx="280.441" cy="238.398" r="2.5253"/>
<circle cx="219.548" cy="220.027" r="2.5253"/>
<circle cx="341.652" cy="196.14" r="2.5253"/>
<circle cx="184.613" cy="271.238" r="2.5253"/>
<circle cx="131.025" cy="169.868" r="2.5253"/>
<circle cx="437.311" cy="227.568" r="2.5253"/>
<circle cx="293.453" cy="246.462" r="2.5253"/>
<circle cx="413.697" cy="240.759" r="2.5253"/>
<circle cx="261.046" cy="145.343" r="2.5253"/>
<circle cx="318.959" cy="213.359" r="2.5253"/>
<circle cx="445.567" cy="201.007" r="2.5253"/>
<circle cx="221.238" cy="148.375" r="2.5253"/>
<circle cx="267.323" cy="203.368" r="2.5253"/>
<circle cx="276.785" cy="181.281" r="2.5253"/>
<circle cx="331.696" cy="268.624" r="2.5253"/>
<circle cx="255.058" cy="269.358" r="2.5253"/>
<circle cx="391.854" cy="263.527" r="2.5253"/>
<circle cx="278.583" cy="223.051" r="2.5253"/>
<circle cx="248.757" cy="175.927" r="2.5253"/>
<circle cx="403.886" cy="247.199" r="2.5253"/>
<circle cx="412.739" cy="234.604" r="2.5253"/>
<circle cx="239.294" cy="208.094" r="2.5253"/>
<circle cx="231.768" cy="260.429" r="2.5253"/>
<circle cx="318.163" cy="245.079" r="2.5253"/>
<circle cx="346.784" cy="235.497" r="2.5253"/>
<circle cx="315.507" cy="220.789" r="2.5253"/>
<circle cx="235.176" cy="254.921" r="2.5253"/>
<circle cx="462.278" cy="227.387" r="2.5253"/>
<circle cx="209.552" cy="210.061" r="2.5253"/>
<circle cx="258.973" cy="288.642" r="2.5253"/>
<circle cx="234.259" cy="284.526" r="2.5253"/>
<circle cx="99.3501" cy="236.431" r="2.5253"/>
<circle cx="367.772" cy="263.54" r="2.5253"/>
<circle cx="305.075" cy="228.921" r="2.5253"/>
<circle cx="288.771" cy="189.683" r="2.5253"/>
<circle cx="362.322" cy="261.2" r="2.5253"/>
<circle cx="258.456" cy="169.917" r="2.5253"/>
<circle cx="478.31" cy="201.073" r="2.5253"/>
</g>
<g fill="black">
<circle cx="352.314" cy="192.061" r="2.5253"/>
<circle cx="196.383" cy="236.872" r="2.5253"/>
<circle cx="441.346" cy="210.963" r="2.5253"/>
<circle cx="244.873" cy="214.068" r="2.5253"/>
<circle cx="466.524" cy="230.412" r="2.5253"/>
<circle cx="271.812" cy="285.589" r="2.5253"/>
<circle cx="264.251" cy="183.342" r="2.5253"/>
<circle cx="481.887" cy="191.766" r="2.5253"/>
<circle cx="254.937" cy="140.938" r="2.5253"/>
<circle cx="129.308" cy="225.714" r="2.5253"/>
<circle cx="330.729" cy="199.571" r="2.5253"/>
<circle cx="377.367" cy="263.393" r="2.5253"/>
<circle cx="131.558" cy="171.919" r="2.5253"/>
<circle cx="418.236" cy="233.906" r="2.5253"/>
<circle cx="387.519" cy="239.889" r="2.5253"/>
<circle cx="198.033" cy="244.992" r="2.5253"/>
<circle cx="318.914" cy="176.015" r="2.5253"/>
<circle cx="217.99" cy="244.861" r="2.5253"/>
<circle cx="455.097" cy="171.917" r="2.5253"/>
<circle cx="312.144" cy="233.326" r="2.5253"/>
<circle cx="226.073" cy="263.439" r="2.5253"/>
<circle cx="273.465" cy="261.032" r="2.5253"/>
<circle cx="146.683" cy="225.869" r="2.5253"/>
<circle cx="446.306" cy="174.267" r="2.5253"/>
<circle cx="195.67" cy="241.995" r="2.5253"/>
<circle cx="286.484" cy="202.646" r="2.5253"/>
<circle cx="346.186" cy="168.548" r="2.5253"/>
<circle cx="382.485" cy="228.938" r="2.5253"/>
<circle cx="388.584" cy="174.175" r="2.5253"/>
<circle cx="117.657" cy="225.021" r="2.5253"/>
<circle cx="102.829" cy="208.132" r="2.5253"/>
<circle cx="276.854" cy="223.292" r="2.5253"/>
<circle cx="215.659" cy="227.395" r="2.5253"/>
<circle cx="336.924" cy="282.1" r="2.5253"/>
<circle cx="263.828" cy="218.59" r="2.5253"/>
<circle cx="410.293" cy="203.784" r="2.5253"/>
<circle cx="167.362" cy="181.819" r="2.5253"/>
<circle cx="185.366" cy="232.327" r="2.5253"/>
<circle cx="282.742" cy="274.777" r="2.5253"/>
<circle cx="344.333" cy="169.618" r="2.5253"/>
<circle cx="377.58" cy="162.361" r="2.5253"/>
<circle cx="244.493" cy="191.904" r="2.5253"/>
<circle cx="280.493" cy="273.476" r="2.5253"/>
<circle cx="253.152" cy="258.615" r="2.5253"/>
<circle cx="389.87" cy="266.16" r="2.5253"/>
<circle cx="107.445" cy="233.277" r="2.5253"/>
<circle cx="370.073" cy="254.857" r="2.5253"/>
<circle cx="223.337" cy="181.821" r="2.5253"/>
<circle cx="261.461" cy="268.339" r="2.5253"/>
<circle cx="280.265" cy="200.817" r="2.5253"/>
<circle cx="260.837" cy="175.017" r="2.5253"/>
<circle cx="220.276" cy="269.891" r="2.5253"/>
<circle cx="245.492" cy="240.077" r="2.5253"/>
<circle cx="158.503" cy="239.582" r="2.5253"/>
<circle cx="184.265" cy="259.659" r="2.5253"/>
<circle cx="245.23" cy="144.022" r="2.5253"/>
<circle cx="162.39" cy="245.351" r="2.5253"/>
<circle cx="323.282" cy="224.489" r="2.5253"/>
<circle cx="220.796" cy="238.795" r="2.5253"/>
<circle cx="264.725" cy="199.702" r="2.5253"/>
<circle cx="418.647" cy="199.5" r="2.5253"/>
<circle cx="383.66" cy="224.247" r="2.5253"/>
<circle cx="183.344" cy="198.064" r="2.5253"/>
<circle cx="164.473" cy="247.806" r="2.5253"/>
<circle cx="438.117" cy="185.012" r="2.5253"/>
<circle cx="264.651" cy="238.018" r="2.5253"/>
<circle cx="269.427" cy="164.964" r="2.5253"/>
<circle cx="231.58" cy="172.376" r="2.5253"/>
<circle cx="325.112" cy="190.975" r="2.5253"/>
<circle cx="144.007" cy="269.321" r="2.5253"/>
<circle cx="301.904" cy="137.748" r="2.5253"/>
<circle cx="279.53" cy="216.59" r="2.5253"/>
<circle cx="167.238" cy="215.29" r="2.5253"/>
<circle cx="387.961" cy="193.425" r="2.5253"/>
<circle cx="460.053" cy="230.033" r="2.5253"/>
<circle cx="317.293" cy="144.992" r="2.5253"/>
<circle cx="96.2549" cy="202.272" r="2.5253"/>
<circle cx="241.875" cy="275.625" r="2.5253"/>
<circle cx="433.551" cy="258.798" r="2.5253"/>
<circle cx="405.906" cy="175.835" r="2.5253"/>
<circle cx="330.066" cy="259.219" r="2.5253"/>
<circle cx="271.304" cy="207.507" r="2.5253"/>
<circle cx="409.321" cy="236.107" r="2.5253"/>
<circle cx="264.597" cy="191.946" r="2.5253"/>
<circle cx="393.799" cy="217.445" r="2.5253"/>
<circle cx="199.241" cy="183.789" r="2.5253"/>
<circle cx="372.676" cy="265.573" r="2.5253"/>
<circle cx="404.974" cy="154.523" r="2.5253"/>
<circle cx="312.08" cy="244.395" r="2.5253"/>
<circle cx="243.033" cy="188.247" r="2.5253"/>
<circle cx="101.96" cy="231.016" r="2.5253"/>
<circle cx="372.374" cy="205.646" r="2.5253"/>
<circle cx="258.212" cy="164.232" r="2.5253"/>
<circle cx="334.092" cy="140.455" r="2.5253"/>
<circle cx="432.94" cy="189.583" r="2.5253"/>
<circle cx="203.22" cy="237.33" r="2.5253"/>
<circle cx="262.077" cy="225.251" r="2.5253"/>
<circle cx="317.219" cy="190.727" r="2.5253"/>
<circle cx="192.301" cy="165.605" r="2.5253"/>
<circle cx="416.719" cy="238.995" r="2.5253"/>
<circle cx="153.386" cy="195.266" r="2.5253"/>
<circle cx="348.399" cy="165.68" r="2.5253"/>
<circle cx="344.952" cy="209.887" r="2.5253"/>
<circle cx="302.456" cy="277.956" r="2.5253"/>
<circle cx="107.962" cy="215.289" r="2.5253"/>
<circle cx="310.428" cy="166.362" r="2.5253"/>
<circle cx="242.864" cy="163.019" r="2.5253"/>
<circle cx="428.812" cy="268.142" r="2.5253"/>
<circle cx="154.589" cy="212.519" r="2.5253"/>
<circle cx="187.476" cy="225.987" r="2.5253"/>
<circle cx="379.544" cy="275.902" r="2.5253"/>
<circle cx="393.7" cy="261.931" r="2.5253"/>
<circle cx="175.808" cy="255.812" r="2.5253"/>
<circle cx="345.417" cy="260.185" r="2.5253"/>
<circle cx="213.347" cy="142.549" r="2.5253"/>
<circle cx="182.071" cy="221.525" r="2.5253"/>
<circle cx="293.172" cy="285.842" r="2.5253"/>
<circle cx="299.191" cy="214.78" r="2.5253"/>
<circle cx="350.992" cy="277.254" r="2.5253"/>
<circle cx="202.264" cy="212.062" r="2.5253"/>
<circle cx="274.185" cy="243.234" r="2.5253"/>
<circle cx="397.654" cy="172.082" r="2.5253"/>
<circle cx="157.74" cy="225.452" r="2.5253"/>
<circle cx="133.127" cy="228.435" r="2.5253"/>
<circle cx="235.732" cy="239.763" r="2.5253"/>
<circle cx="404.509" cy="172.827" r="2.5253"/>
<circle cx="391.29" cy="193.448" r="2.5253"/>
<circle cx="329.09" cy="194.638" r="2.5253"/>
<circle cx="291.583" cy="178.113" r="2.5253"/>
<circle cx="359.412" cy="173.015" r="2.5253"/>
<circle cx="82.833" cy="204.371" r="2.5253"/>
<circle cx="223.649" cy="197.336" r="2.5253"/>
<circle cx="251.51" cy="180.678" r="2.5253"/>
<circle cx="433.087" cy="196.259" r="2.5253"/>
<circle cx="456.586" cy="242.601" r="2.5253"/>
<circle cx="434.35" cy="209.772" r="2.5253"/>
<circle cx="353.55" cy="279.603" r="2.5253"/>
<circle cx="123.556" cy="200.189" r="2.5253"/>
<circle cx="326.408" cy="141.668" r="2.5253"/>
<circle cx="282.636" cy="286.946" r="2.5253"/>
<circle cx="312.803" cy="158.975" r="2.5253"/>
<circle cx="124.743" cy="196.289" r="2.5253"/>
<circle cx="102.744" cy="186.885" r="2.5253"/>
<circle cx="161.656" cy="209.563" r="2.5253"/>
<circle cx="222.624" cy="248.117" r="2.5253"/>
<circle cx="396.692" cy="212.864" r="2.5253"/>
<circle cx="206.71" cy="148.819" r="2.5253"/>
<circle cx="420.637" cy="196.593" r="2.5253"/>
<circle cx="478.074" cy="200.286" r="2.5253"/>
<circle cx="433.882" cy="218.755" r="2.5253"/>
<circle cx="329.72" cy="191.221" r="2.5253"/>
<circle cx="232.815" cy="240.207" r="2.5253"/>
<circle cx="295.595" cy="198.007" r="2.5253"/>
<circle cx="177.39" cy="191.982" r="2.5253"/>
<circle cx="187.712" cy="164.531" r="2.5253"/>
<circle cx="437.791" cy="211.286" r="2.5253"/>
<circle cx="358.515" cy="284.9" r="2.5253"/>
<circle cx="395.9" cy="161.313" r="2.5253"/>
<circle cx="384.774" cy="220.113" r="2.5253"/>
<circle cx="312.059" cy="210.517" r="2.5253"/>
<circle cx="374.678" cy="251.927" r="2.5253"/>
<circle cx="155.627" cy="234.294" r="2.5253"/>
<circle cx="177.006" cy="212.304" r="2.5253"/>
<circle cx="225.934" cy="189.448" r="2.5253"/>
<circle cx="360.911" cy="200.519" r="2.5253"/>
<circle cx="282.363" cy="236.381" r="2.5253"/>
<circle cx="178.577" cy="179.161" r="2.5253"/>
<circle cx="438.556" cy="215.026" r="2.5253"/>
<circle cx="266.85" cy="154.292" r="2.5253"/>
<circle cx="259.208" cy="285.085" r="2.5253"/>
<circle cx="174.053" cy="244.383" r="2.5253"/>
<circle cx="414.774" cy="174.144" r="2.5253"/>
<circle cx="207.778" cy="195.208" r="2.5253"/>
<circle cx="100.633" cy="235.578" r="2.5253"/>
<circle cx="423.904" cy="193.267" r="2.5253"/>
<circle cx="425.626" cy="185.513" r="2.5253"/>
<circle cx="302.064" cy="235.203" r="2.5253"/>
<circle cx="418.879" cy="157.422" r="2.5253"/>
<circle cx="380.728" cy="222.463" r="2.5253"/>
<circle cx="434.522" cy="212.116" r="2.5253"/>
<circle cx="149.914" cy="254.174" r="2.5253"/>
<circle cx="330.454" cy="175.326" r="2.5253"/>
<circle cx="455.76" cy="233.928" r="2.5253"/>
<circle cx="288.558" cy="258.211" r="2.5253"/>
<circle cx="309.885" cy="196.294" r="2.5253"/>
<circle cx="183.661" cy="175.225" r="2.5253"/>
<circle cx="309.389" cy="145.959" r="2.5253"/>
<circle cx="442.422" cy="231.825" r="2.5253"/>
<circle cx="130.384" cy="191.208" r="2.5253"/>
<circle cx="240.587" cy="167.712" r="2.5253"/>
<circle cx="147.981" cy="195.224" r="2.5253"/>
<circle cx="150.39" cy="209.254" r="2.5253"/>
<circle cx="161.892" cy="265.415" r="2.5253"/>
<circle cx="232.291" cy="159.354" r="2.5253"/>
<circle cx="245.131" cy="260.726" r="2.5253"/>
<circle cx="121.88" cy="236.795" r="2.5253"/>
<circle cx="359.865" cy="283.078" r="2.5253"/>
<circle cx="250.321" cy="200.562" r="2.5253"/>
<circle cx="398.451" cy="228.941" r="2.5253"/>
<circle cx="432.95" cy="196.777" r="2.5253"/>
<circle cx="300.439" cy="277.263" r="2.5253"/>
<circle cx="401.201" cy="213.456" r="2.5253"/>
<circle cx="372.019" cy="218.219" r="2.5253"/>
<circle cx="377.425" cy="195.847" r="2.5253"/>
<circle cx="194.304" cy="195.691" r="2.5253"/>
<circle cx="346.014" cy="244.298" r="2.5253"/>
<circle cx="267.118" cy="190.299" r="2.5253"/>
<circle cx="190.998" cy="197.602" r="2.5253"/>
<circle cx="320.773" cy="148.77" r="2.5253"/>
<circle cx="209.464" cy="184.205" r="2.5253"/>
<circle cx="143.181" cy="219.224" r="2.5253"/>
<circle cx="440.208" cy="212.257" r="2.5253"/>
<circle cx="332.403" cy="241.061" r="2.5253"/>
<circle cx="397.31" cy="248.575" r="2.5253"/>
<circle cx="169.127" cy="254.418" r="2.5253"/>
<circle cx="378.184" cy="275.823" r="2.5253"/>
<circle cx="218.977" cy="281.56" r="2.5253"/>
<circle cx="165.559" cy="171.743" r="2.5253"/>
<circle cx="329.815" cy="283.125" r="2.5253"/>
<circle cx="354.232" cy="200.387" r="2.5253"/>
<circle cx="268.261" cy="162.601" r="2.5253"/>
<circle cx="229.458" cy="214.73" r="2.5253"/>
<circle cx="297.88" cy="211.619" r="2.5253"/>
<circle cx="374.208" cy="197.687" r="2.5253"/>
<circle cx="384.098" cy="200.366" r="2.5253"/>
<circle cx="190.903" cy="227.353" r="2.5253"/>
<circle cx="378.676" cy="271.314" r="2.5253"/>
<circle cx="131.909" cy="218.775" r="2.5253"/>
<circle cx="139.598" cy="189.933" r="2.5253"/>
<circle cx="279.796" cy="181.721" r="2.5253"/>
<circle cx="279.85" cy="162.988" r="2.5253"/>
<circle cx="264.818" cy="161.117" r="2.5253"/>
<circle cx="382.027" cy="202.984" r="2.5253"/>
<circle cx="332.066" cy="259.51" r="2.5253"/>
<circle cx="177.639" cy="246.852" r="2.5253"/>
<circle cx="348.471" cy="232.442" r="2.5253"/>
<circle cx="358.879" cy="249.736" r="2.5253"/>
<circle cx="385.482" cy="180.634" r="2.5253"/>
<circle cx="202.307" cy="225.759" r="2.5253"/>
<circle cx="216.793" cy="205.403" r="2.5253"/>
<circle cx="195.825" cy="186.078" r="2.5253"/>
<circle cx="111.204" cy="218.136" r="2.5253"/>
<circle cx="243.238" cy="205.042" r="2.5253"/>
<circle cx="400.876" cy="208.449" r="2.5253"/>
<circle cx="386.897" cy="222.784" r="2.5253"/>
<circle cx="171.958" cy="151.969" r="2.5253"/>
<circle cx="270.481" cy="137.783" r="2.5253"/>
<circle cx="227.656" cy="222.214" r="2.5253"/>
<circle cx="232.148" cy="158.807" r="2.5253"/>
<circle cx="175.977" cy="205.131" r="2.5253"/>
<circle cx="283.266" cy="168.979" r="2.5253"/>
<circle cx="128.789" cy="215.456" r="2.5253"/>
<circle cx="170.647" cy="230.262" r="2.5253"/>
<circle cx="197.485" cy="148.784" r="2.5253"/>
<circle cx="252.297" cy="279.696" r="2.5253"/>
<circle cx="286.487" cy="194.972" r="2.5253"/>
<circle cx="293.226" cy="231.599" r="2.5253"/>
<circle cx="309.18" cy="232.596" r="2.5253"/>
<circle cx="144.355" cy="194.556" r="2.5253"/>
<circle cx="177.665" cy="178.175" r="2.5253"/>
<circle cx="239.593" cy="235.56" r="2.5253"/>
<circle cx="172.25" cy="205.865" r="2.5253"/>
<circle cx="134.886" cy="206.874" r="2.5253"/>
<circle cx="178.274" cy="230.023" r="2.5253"/>
<circle cx="274.326" cy="274.522" r="2.5253"/>
<circle cx="310.546" cy="149.261" r="2.5253"/>
<circle cx="461.902" cy="191.817" r="2.5253"/>
<circle cx="432.575" cy="250.516" r="2.5253"/>
<circle cx="155.694" cy="157.195" r="2.5253"/>
<circle cx="342.207" cy="226.903" r="2.5253"/>
<circle cx="212.757" cy="243.907" r="2.5253"/>
<circle cx="449.321" cy="237.477" r="2.5253"/>
<circle cx="396.837" cy="158.594" r="2.5253"/>
<circle cx="431.301" cy="209.935" r="2.5253"/>
<circle cx="303.101" cy="180.401" r="2.5253"/>
<circle cx="426.839" cy="236.149" r="2.5253"/>
<circle cx="266.204" cy="138.154" r="2.5253"/>
<circle cx="249.922" cy="144.076" r="2.5253"/>
<circle cx="345.284" cy="237.348" r="2.5253"/>
<circle cx="398.583" cy="208.795" r="2.5253"/>
<circle cx="344.55" cy="139.997" r="2.5253"/>
<circle cx="321.74" cy="153.232" r="2.5253"/>
<circle cx="139.011" cy="222.406" r="2.5253"/>
<circle cx="229.885" cy="197.38" r="2.5253"/>
<circle cx="375.279" cy="216.987" r="2.5253"/>
<circle cx="294.116" cy="225.563" r="2.5253"/>
<circle cx="372.833" cy="203.446" r="2.5253"/>
<circle cx="434.638" cy="260.982" r="2.5253"/>
<circle cx="329.153" cy="191.845" r="2.5253"/>
<circle cx="345.603" cy="272.648" r="2.5253"/>
<circle cx="267.55" cy="144.013" r="2.5253"/>
<circle cx="282.457" cy="288.286" r="2.5253"/>
<circle cx="295.957" cy="187.271" r="2.5253"/>
<circle cx="294.385" cy="269.276" r="2.5253"/>
<circle cx="130.619" cy="238.594" r="2.5253"/>
<circle cx="124.192" cy="221.552" r="2.5253"/>
<circle cx="268.274" cy="234.548" r="2.5253"/>
<circle cx="263.703" cy="169.624" r="2.5253"/>
<circle cx="233.597" cy="282.171" r="2.5253"/>
<circle cx="307.443" cy="273.162" r="2.5253"/>
<circle cx="431.196" cy="211.486" r="2.5253"/>
<circle cx="242.676" cy="213.29" r="2.5253"/>
<circle cx="415.999" cy="212.673" r="2.5253"/>
<circle cx="353.393" cy="271.353" r="2.5253"/>
<circle cx="290.823" cy="240.86" r="2.5253"/>
<circle cx="345.239" cy="220.955" r="2.5253"/>
<circle cx="339.256" cy="197.779" r="2.5253"/>
<circle cx="312.191" cy="212.244" r="2.5253"/>
<circle cx="354.215" cy="199.954" r="2.5253"/>
<circle cx="267.686" cy="272.51" r="2.5253"/>
<circle cx="308.674" cy="175.886" r="2.5253"/>
<circle cx="302.189" cy="170.267" r="2.5253"/>
<circle cx="459.435" cy="180.923" r="2.5253"/>
<circle cx="474.789" cy="209.868" r="2.5253"/>
<circle cx="477.846" cy="221.676" r="2.5253"/>
<circle cx="487.851" cy="205.082" r="2.5253"/>
<circle cx="383.107" cy="211.82" r="2.5253"/>
<circle cx="386.456" cy="214.912" r="2.5253"/>
<circle cx="362.962" cy="192.024" r="2.5253"/>
<circle cx="123.853" cy="219.69" r="2.5253"/>
<circle cx="432.773" cy="208.093" r="2.5253"/>
<circle cx="245.957" cy="235.491" r="2.5253"/>
<circle cx="192.214" cy="197.956" r="2.5253"/>
<circle cx="136.128" cy="175.294" r="2.5253"/>
<circle cx="143.308" cy="257.058" r="2.5253"/>
<circle cx="418.417" cy="229.097" r="2.5253"/>
<circle cx="165.275" cy="201.12" r="2.5253"/>
<circle cx="187.524" cy="203.672" r="2.5253"/>
<circle cx="382.182" cy="232.144" r="2.5253"/>
<circle cx="281.844" cy="221.711" r="2.5253"/>
<circle cx="162.44" cy="189.191" r="2.5253"/>
<circle cx="260.511" cy="238.15" r="2.5253"/>
<circle cx="283.689" cy="144.183" r="2.5253"/>
<circle cx="228.335" cy="275.053" r="2.5253"/>
<circle cx="233.526" cy="265.053" r="2.5253"/>
<circle cx="365.123" cy="276.329" r="2.5253"/>
<circle cx="366.219" cy="233.684" r="2.5253"/>
<circle cx="447.373" cy="208.08" r="2.5253"/>
<circle cx="148.76" cy="189.231" r="2.5253"/>
<circle cx="79.6435" cy="221.418" r="2.5253"/>
<circle cx="182.157" cy="203.926" r="2.5253"/>
<circle cx="249.055" cy="202.673" r="2.5253"/>
<circle cx="273.943" cy="274.405" r="2.5253"/>
<circle cx="295.505" cy="277.299" r="2.5253"/>
<circle cx="233.035" cy="175.054" r="2.5253"/>
<circle cx="195.51" cy="273.14" r="2.5253"/>
<circle cx="348.596" cy="183.008" r="2.5253"/>
<circle cx="427.745" cy="246.426" r="2.5253"/>
<circle cx="278.688" cy="197.008" r="2.5253"/>
<circle cx="168.628" cy="222.005" r="2.5253"/>
<circle cx="325.256" cy="218.042" r="2.5253"/>
<circle cx="385.563" cy="267.757" r="2.5253"/>
<circle cx="182.345" cy="240.133" r="2.5253"/>
<circle cx="317.324" cy="194.842" r="2.5253"/>
<circle cx="161.694" cy="188.864" r="2.5253"/>
<circle cx="259.784" cy="242.722" r="2.5253"/>
<circle cx="237.968" cy="196.414" r="2.5253"/>
<circle cx="257.87" cy="271.073" r="2.5253"/>
<circle cx="260.839" cy="142.384" r="2.5253"/>
<circle cx="385.884" cy="223.667" r="2.5253"/>
<circle cx="309.912" cy="219.25" r="2.5253"/>
<circle cx="238.105" cy="163.316" r="2.5253"/>
<circle cx="330.915" cy="178.924" r="2.5253"/>
<circle cx="348.044" cy="174.364" r="2.5253"/>
<circle cx="452.842" cy="232.968" r="2.5253"/>
<circle cx="289.872" cy="208.943" r="2.5253"/>
<circle cx="156.975" cy="235.449" r="2.5253"/>
<circle cx="334.926" cy="201.772" r="2.5253"/>
<circle cx="373.584" cy="266.242" r="2.5253"/>
<circle cx="188.677" cy="266.498" r="2.5253"/>
<circle cx="234.842" cy="279.805" r="2.5253"/>
<circle cx="195.186" cy="228.202" r="2.5253"/>
<circle cx="293.78" cy="256.931" r="2.5253"/>
<circle cx="291.399" cy="239.486" r="2.5253"/>
<circle cx="361.814" cy="145.455" r="2.5253"/>
<circle cx="341.827" cy="171.385" r="2.5253"/>
<circle cx="363.398" cy="240.682" r="2.5253"/>
<circle cx="286.761" cy="163.826" r="2.5253"/>
<circle cx="380.724" cy="204.607" r="2.5253"/>
<circle cx="318.715" cy="190.985" r="2.5253"/>
<circle cx="450.78" cy="250.052" r="2.5253"/>
<circle cx="147.798" cy="269.515" r="2.5253"/>
<circle cx="295.601" cy="141.716" r="2.5253"/>
<circle cx="322.163" cy="258.493" r="2.5253"/>
<circle cx="396.334" cy="243.964" r="2.5253"/>
<circle cx="353.487" cy="180.236" r="2.5253"/>
<circle cx="242.711" cy="245.874" r="2.5253"/>
<circle cx="350.227" cy="241.746" r="2.5253"/>
<circle cx="288.783" cy="270.648" r="2.5253"/>
<circle cx="140.22" cy="260.932" r="2.5253"/>
<circle cx="310.696" cy="229.014" r="2.5253"/>
<circle cx="434.577" cy="188.583" r="2.5253"/>
<circle cx="354.102" cy="158.185" r="2.5253"/>
<circle cx="190.138" cy="281.645" r="2.5253"/>
<circle cx="307.691" cy="143.621" r="2.5253"/>
<circle cx="382.436" cy="185.293" r="2.5253"/>
<circle cx="89.4134" cy="192.161" r="2.5253"/>
<circle cx="437.339" cy="243.013" r="2.5253"/>
<circle cx="96.2193" cy="204.824" r="2.5253"/>
<circle cx="445.797" cy="234.194" r="2.5253"/>
<circle cx="155.315" cy="212.115" r="2.5253"/>
<circle cx="342.051" cy="176.763" r="2.5253"/>
<circle cx="361.775" cy="281.243" r="2.5253"/>
<circle cx="278.23" cy="269.198" r="2.5253"/>
<circle cx="118.131" cy="257.906" r="2.5253"/>
<circle cx="429.046" cy="213.385" r="2.5253"/>
<circle cx="372.359" cy="155.328" r="2.5253"/>
<circle cx="382.644" cy="146.813" r="2.5253"/>
<circle cx="197.228" cy="185.453" r="2.5253"/>
<circle cx="113.202" cy="175.56" r="2.5253"/>
<circle cx="326.604" cy="176.521" r="2.5253"/>
<circle cx="322.968" cy="211.346" r="2.5253"/>
<circle cx="250.135" cy="143.745" r="2.5253"/>
<circle cx="311.802" cy="207.205" r="2.5253"/>
<circle cx="419.735" cy="231.405" r="2.5253"/>
<circle cx="339.856" cy="228.669" r="2.5253"/>
<circle cx="107.126" cy="199.245" r="2.5253"/>
<circle cx="178.291" cy="189.644" r="2.5253"/>
<circle cx="301.095" cy="187.639" r="2.5253"/>
<circle cx="92.2231" cy="215.701" r="2.5253"/>
<circle cx="325.971" cy="220.677" r="2.5253"/>
<circle cx="137.519" cy="220.481" r="2.5253"/>
<circle cx="293.403" cy="266.781" r="2.5253"/>
<circle cx="288.04" cy="277.704" r="2.5253"/>
<circle cx="266.184" cy="224.862" r="2.5253"/>
<circle cx="248.838" cy="179.046" r="2.5253"/>
<circle cx="347.959" cy="245.368" r="2.5253"/>
<circle cx="241.449" cy="237.809" r="2.5253"/>
<circle cx="322.737" cy="237.363" r="2.5253"/>
<circle cx="283.001" cy="136.875" r="2.5253"/>
<circle cx="390.415" cy="214.271" r="2.5253"/>
<circle cx="248.635" cy="288.731" r="2.5253"/>
<circle cx="262.242" cy="158.379" r="2.5253"/>
<circle cx="299.246" cy="148.171" r="2.5253"/>
<circle cx="178.568" cy="207.855" r="2.5253"/>
<circle cx="245.694" cy="235.91" r="2.5253"/>
<circle cx="162.201" cy="189.761" r="2.5253"/>
<circle cx="355.359" cy="153.667" r="2.5253"/>
<circle cx="78.1674" cy="209.229" r="2.5253"/>
<circle cx="138.818" cy="250.166" r="2.5253"/>
<circle cx="389.957" cy="190.184" r="2.5253"/>
<circle cx="190.116" cy="242.655" r="2.5253"/>
<circle cx="489.762" cy="216.636" r="2.5253"/>
<circle cx="251.19" cy="182.345" r="2.5253"/>
<circle cx="393.132" cy="246.605" r="2.5253"/>
<circle cx="378.623" cy="267.757" r="2.5253"/>
<circle cx="376.395" cy="230.308" r="2.5253"/>
<circle cx="141.67" cy="185.192" r="2.5253"/>
<circle cx="351.162" cy="214.736" r="2.5253"/>
<circle cx="364.399" cy="171.146" r="2.5253"/>
<circle cx="311.772" cy="170.03" r="2.5253"/>
<circle cx="372.961" cy="222.172" r="2.5253"/>
<circle cx="291.295" cy="205.237" r="2.5253"/>
<circle cx="268.75" cy="250.674" r="2.5253"/>
<circle cx="201.756" cy="209.209" r="2.5253"/>
<circle cx="418.008" cy="198.398" r="2.5253"/>
<circle cx="321.617" cy="221.325" r="2.5253"/>
<circle cx="228.583" cy="261.549" r="2.5253"/>
<circle cx="200.684" cy="150.568" r="2.5253"/>
<circle cx="150.485" cy="221.889" r="2.5253"/>
<circle cx="305.511" cy="210.53" r="2.5253"/>
<circle cx="242.306" cy="206.922" r="2.5253"/>
<circle cx="183.918" cy="200.369" r="2.5253"/>
<circle cx="140.783" cy="248.178" r="2.5253"/>
<circle cx="345.139" cy="217.635" r="2.5253"/>
<circle cx="388.675" cy="171.751" r="2.5253"/>
<circle cx="436.804" cy="213.217" r="2.5253"/>
<circle cx="280.129" cy="287.104" r="2.5253"/>
<circle cx="190.654" cy="243.178" r="2.5253"/>
<circle cx="360.014" cy="228.321" r="2.5253"/>
<circle cx="193.788" cy="251.762" r="2.5253"/>
<circle cx="286.449" cy="259.968" r="2.5253"/>
<circle cx="178.238" cy="233.504" r="2.5253"/>
<circle cx="294.125" cy="232.472" r="2.5253"/>
<circle cx="313.996" cy="169.129" r="2.5253"/>
<circle cx="262.117" cy="205.815" r="2.5253"/>
<circle cx="346.15" cy="217.478" r="2.5253"/>
<circle cx="174.127" cy="224.451" r="2.5253"/>
<circle cx="311.217" cy="148.796" r="2.5253"/>
<circle cx="106.996" cy="252.063" r="2.5253"/>
<circle cx="269.356" cy="218.261" r="2.5253"/>
<circle cx="139.368" cy="251.63" r="2.5253"/>
<circle cx="351.487" cy="285.691" r="2.5253"/>
<circle cx="300.74" cy="153.229" r="2.5253"/>
<circle cx="247.25" cy="272.54" r="2.5253"/>
<circle cx="382.161" cy="280.997" r="2.5253"/>
<circle cx="158.645" cy="267.026" r="2.5253"/>
<circle cx="259.701" cy="181.169" r="2.5253"/>
<circle cx="359.077" cy="166.532" r="2.5253"/>
<circle cx="256.024" cy="278.173" r="2.5253"/>
<circle cx="387.63" cy="227.598" r="2.5253"/>
<circle cx="421.895" cy="225.331" r="2.5253"/>
<circle cx="169.643" cy="246.849" r="2.5253"/>
<circle cx="413.774" cy="172.421" r="2.5253"/>
<circle cx="289.392" cy="176.404" r="2.5253"/>
<circle cx="249.614" cy="183.078" r="2.5253"/>
<circle cx="143.605" cy="184.496" r="2.5253"/>
<circle cx="347.362" cy="277.991" r="2.5253"/>
<circle cx="447.02" cy="235.688" r="2.5253"/>
<circle cx="395.877" cy="226.249" r="2.5253"/>
<circle cx="363.223" cy="161.289" r="2.5253"/>
<circle cx="420.122" cy="187.016" r="2.5253"/>
<circle cx="148.856" cy="177.734" r="2.5253"/>
<circle cx="352" cy="140.883" r="2.5253"/>
<circle cx="246.777" cy="225.715" r="2.5253"/>
<circle cx="470.012" cy="197.571" r="2.5253"/>
<circle cx="161.461" cy="157.74" r="2.5253"/>
<circle cx="323.074" cy="216.431" r="2.5253"/>
<circle cx="261.917" cy="274.011" r="2.5253"/>
<circle cx="359.716" cy="163.018" r="2.5253"/>
<circle cx="354.08" cy="144.023" r="2.5253"/>
<circle cx="314.416" cy="192.783" r="2.5253"/>
<circle cx="409.4" cy="193.458" r="2.5253"/>
<circle cx="253.369" cy="153.052" r="2.5253"/>
<circle cx="329.535" cy="230.14" r="2.5253"/>
<circle cx="384.337" cy="160.839" r="2.5253"/>
<circle cx="214.209" cy="258.848" r="2.5253"/>
<circle cx="331.979" cy="270.071" r="2.5253"/>
<circle cx="304.211" cy="215.947" r="2.5253"/>
<circle cx="310.996" cy="255.695" r="2.5253"/>
<circle cx="217.692" cy="206.606" r="2.5253"/>
<circle cx="187.273" cy="179.771" r="2.5253"/>
<circle cx="364.566" cy="281.63" r="2.5253"/>
<circle cx="247.365" cy="190.788" r="2.5253"/>
<circle cx="127.085" cy="213.482" r="2.5253"/>
<circle cx="240.792" cy="140.752" r="2.5253"/>
<circle cx="340.791" cy="190.957" r="2.5253"/>
<circle cx="358.957" cy="251.529" r="2.5253"/>
<circle cx="291.961" cy="150.597" r="2.5253"/>
<circle cx="280.605" cy="153.83" r="2.5253"/>
<circle cx="258.9" cy="171.26" r="2.5253"/>
<circle cx="414.623" cy="163.795" r="2.5253"/>
<circle cx="359.818" cy="241.342" r="2.5253"/>
<circle cx="395.387" cy="208.202" r="2.5253"/>
<circle cx="267.681" cy="186.181" r="2.5253"/>
<circle cx="328.229" cy="244.789" r="2.5253"/>
<circle cx="278.648" cy="216.534" r="2.5253"/>
<circle cx="266.594" cy="223.825" r="2.5253"/>
<circle cx="394.555" cy="254.67" r="2.5253"/>
<circle cx="379.959" cy="175.569" r="2.5253"/>
<circle cx="115.566" cy="223.487" r="2.5253"/>
<circle cx="250.971" cy="208.283" r="2.5253"/>
<circle cx="427.427" cy="208.331" r="2.5253"/>
<circle cx="437.474" cy="242.012" r="2.5253"/>
<circle cx="323.07" cy="263.764" r="2.5253"/>
<circle cx="435.184" cy="245.485" r="2.5253"/>
<circle cx="155.554" cy="262.417" r="2.5253"/>
<circle cx="107.955" cy="222.01" r="2.5253"/>
<circle cx="209.113" cy="207.446" r="2.5253"/>
<circle cx="287.909" cy="144.361" r="2.5253"/>
<circle cx="84.8704" cy="193.631" r="2.5253"/>
<circle cx="311.511" cy="246.65" r="2.5253"/>
<circle cx="314.629" cy="144.564" r="2.5253"/>
<circle cx="381.111" cy="179.81" r="2.5253"/>
<circle cx="208.249" cy="198.629" r="2.5253"/>
<circle cx="192.97" cy="225.662" r="2.5253"/>
<circle cx="358.701" cy="176.604" r="2.5253"/>
<circle cx="257.712" cy="226.81" r="2.5253"/>
<circle cx="357.816" cy="267.8" r="2.5253"/>
<circle cx="135.564" cy="230.836" r="2.5253"/>
<circle cx="186.029" cy="240.751" r="2.5253"/>
<circle cx="88.1549" cy="200.272" r="2.5253"/>
<circle cx="186.033" cy="184.29" r="2.5253"/>
<circle cx="472.626" cy="224.851" r="2.5253"/>
<circle cx="364.038" cy="150.564" r="2.5253"/>
<circle cx="398.481" cy="161.262" r="2.5253"/>
<circle cx="108.962" cy="236.738" r="2.5253"/>
<circle cx="307.007" cy="158.78" r="2.5253"/>
<circle cx="261.941" cy="270.285" r="2.5253"/>
<circle cx="261.406" cy="150.722" r="2.5253"/>
<circle cx="196.82" cy="212.601" r="2.5253"/>
<circle cx="306.922" cy="269.937" r="2.5253"/>
<circle cx="331.588" cy="282.281" r="2.5253"/>
<circle cx="360.064" cy="177.658" r="2.5253"/>
<circle cx="218.989" cy="213.305" r="2.5253"/>
<circle cx="434.873" cy="248.569" r="2.5253"/>
<circle cx="394.152" cy="242.085" r="2.5253"/>
<circle cx="450.389" cy="229.26" r="2.5253"/>
<circle cx="242.442" cy="207.44" r="2.5253"/>
<circle cx="344.118" cy="245.066" r="2.5253"/>
<circle cx="284.554" cy="235.712" r="2.5253"/>
<circle cx="356.385" cy="207.975" r="2.5253"/>
<circle cx="247.503" cy="235.232" r="2.5253"/>
<circle cx="277.086" cy="170.369" r="2.5253"/>
<circle cx="165.356" cy="162.264" r="2.5253"/>
<circle cx="363.881" cy="275.278" r="2.5253"/>
<circle cx="267.211" cy="164.516" r="2.5253"/>
<circle cx="185.216" cy="194.612" r="2.5253"/>
<circle cx="365.419" cy="189.68" r="2.5253"/>
<circle cx="407.301" cy="233.123" r="2.5253"/>
<circle cx="387.884" cy="237.683" r="2.5253"/>
<circle cx="227.592" cy="175.673" r="2.5253"/>
<circle cx="346.344" cy="239.439" r="2.5253"/>
<circle cx="232.907" cy="141.219" r="2.5253"/>
<circle cx="180.634" cy="222.274" r="2.5253"/>
<circle cx="409.151" cy="175.921" r="2.5253"/>
<circle cx="380.207" cy="160.958" r="2.5253"/>
<circle cx="304.28" cy="248.996" r="2.5253"/>
<circle cx="255.023" cy="226.319" r="2.5253"/>
<circle cx="381.4" cy="167.349" r="2.5253"/>
<circle cx="154.64" cy="260.908" r="2.5253"/>
<circle cx="381.275" cy="209.233" r="2.5253"/>
<circle cx="462.557" cy="183.043" r="2.5253"/>
<circle cx="410.709" cy="223.091" r="2.5253"/>
<circle cx="95.3881" cy="220.11" r="2.5253"/>
<circle cx="189.369" cy="209.212" r="2.5253"/>
<circle cx="265.078" cy="207.234" r="2.5253"/>
<circle cx="327.958" cy="172.909" r="2.5253"/>
<circle cx="298.105" cy="286.623" r="2.5253"/>
<circle cx="320.803" cy="204.817" r="2.5253"/>
<circle cx="259.007" cy="221.779" r="2.5253"/>
<circle cx="422.838" cy="270.115" r="2.5253"/>
<circle cx="223.627" cy="151.525" r="2.5253"/>
<circle cx="253.312" cy="175.59" r="2.5253"/>
<circle cx="169.903" cy="268.355" r="2.5253"/>
<circle cx="231.674" cy="226.977" r="2.5253"/>
<circle cx="383.472" cy="191.344" r="2.5253"/>
<circle cx="343.171" cy="280.67" r="2.5253"/>
<circle cx="262.802" cy="155.383" r="2.5253"/>
<circle cx="330.444" cy="181.192" r="2.5253"/>
<circle cx="293.11" cy="153.206" r="2.5253"/>
<circle cx="423.531" cy="195.923" r="2.5253"/>
<circle cx="354.449" cy="278.382" r="2.5253"/>
<circle cx="211.389" cy="259.719" r="2.5253"/>
<circle cx="286.814" cy="160.374" r="2.5253"/>
<circle cx="310.081" cy="150.761" r="2.5253"/>
<circle cx="252.867" cy="270.845" r="2.5253"/>
<circle cx="406.706" cy="263.465" r="2.5253"/>
<circle cx="463.392" cy="237.103" r="2.5253"/>
<circle cx="205.385" cy="175.675" r="2.5253"/>
<circle cx="409.453" cy="214.201" r="2.5253"/>
<circle cx="89.4469" cy="221.229" r="2.5253"/>
<circle cx="350.474" cy="279.346" r="2.5253"/>
<circle cx="320.241" cy="209.824" r="2.5253"/>
<circle cx="384.552" cy="204.206" r="2.5253"/>
<circle cx="322.806" cy="183.11" r="2.5253"/>
<circle cx="358.419" cy="223.856" r="2.5253"/>
<circle cx="191.819" cy="156.994" r="2.5253"/>
<circle cx="425.944" cy="238.045" r="2.5253"/>
<circle cx="360.424" cy="147.944" r="2.5253"/>
<circle cx="208.159" cy="193.409" r="2.5253"/>
<circle cx="354.553" cy="199.234" r="2.5253"/>
<circle cx="270.288" cy="246.152" r="2.5253"/>
<circle cx="130.268" cy="258.33" r="2.5253"/>
<circle cx="442.549" cy="191.516" r="2.5253"/>
<circle cx="245.568" cy="220.899" r="2.5253"/>
<circle cx="461.067" cy="180.579" r="2.5253"/>
<circle cx="251.116" cy="175.995" r="2.5253"/>
<circle cx="296.86" cy="250.79" r="2.5253"/>
<circle cx="273.735" cy="196.468" r="2.5253"/>
<circle cx="79.4816" cy="215.537" r="2.5253"/>
<circle cx="403.615" cy="187.415" r="2.5253"/>
<circle cx="264.934" cy="245.638" r="2.5253"/>
<circle cx="383.788" cy="260.593" r="2.5253"/>
<circle cx="351.186" cy="212.928" r="2.5253"/>
<circle cx="343.168" cy="276.508" r="2.5253"/>
<circle cx="79.6905" cy="213.202" r="2.5253"/>
<circle cx="295.296" cy="210.034" r="2.5253"/>
<circle cx="288.871" cy="233.195" r="2.5253"/>
<circle cx="323.197" cy="219.98" r="2.5253"/>
<circle cx="450.733" cy="230.528" r="2.5253"/>
<circle cx="204.43" cy="170.257" r="2.5253"/>
<circle cx="341.649" cy="283.88" r="2.5253"/>
<circle cx="278.413" cy="189.336" r="2.5253"/>
<circle cx="473.42" cy="226.519" r="2.5253"/>
<circle cx="216.286" cy="184.701" r="2.5253"/>
<circle cx="265.459" cy="224.865" r="2.5253"/>
<circle cx="330.092" cy="254.678" r="2.5253"/>
<circle cx="332.789" cy="228.725" r="2.5253"/>
<circle cx="121.003" cy="236.186" r="2.5253"/>
<circle cx="250.822" cy="183.535" r="2.5253"/>
<circle cx="331.491" cy="233.824" r="2.5253"/>
<circle cx="200.773" cy="253.339" r="2.5253"/>
<circle cx="378.049" cy="225.907" r="2.5253"/>
<circle cx="271.357" cy="288.386" r="2.5253"/>
<circle cx="376.27" cy="272.847" r="2.5253"/>
<circle cx="278.633" cy="188.826" r="2.5253"/>
<circle cx="450.871" cy="174.472" r="2.5253"/>
<circle cx="160.326" cy="152.686" r="2.5253"/>
<circle cx="166.633" cy="205.349" r="2.5253"/>
<circle cx="479.823" cy="212.098" r="2.5253"/>
<circle cx="172.671" cy="263.201" r="2.5253"/>
<circle cx="278.665" cy="281.238" r="2.5253"/>
<circle cx="394.803" cy="199.812" r="2.5253"/>
<circle cx="390.786" cy="167.811" r="2.5253"/>
<circle cx="309.919" cy="181.299" r="2.5253"/>
<circle cx="334.885" cy="280.869" r="2.5253"/>
<circle cx="317.478" cy="206.605" r="2.5253"/>
<circle cx="261.411" cy="190.233" r="2.5253"/>
<circle cx="306.38" cy="205.31" r="2.5253"/>
<circle cx="217.779" cy="153.733" r="2.5253"/>
<circle cx="447.176" cy="189.195" r="2.5253"/>
<circle cx="298.062" cy="226.184" r="2.5253"/>
<circle cx="95.1408" cy="207.245" r="2.5253"/>
<circle cx="453.799" cy="252.126" r="2.5253"/>
<circle cx="163.161" cy="218.848" r="2.5253"/>
<circle cx="145.134" cy="202.699" r="2.5253"/>
<circle cx="393.412" cy="178.207" r="2.5253"/>
<circle cx="326.404" cy="179.867" r="2.5253"/>
<circle cx="290.793" cy="243.957" r="2.5253"/>
<circle cx="407.943" cy="269.56" r="2.5253"/>
<circle cx="364.224" cy="173.052" r="2.5253"/>
<circle cx="381.396" cy="242.202" r="2.5253"/>
<circle cx="381.107" cy="217.766" r="2.5253"/>
<circle cx="413.689" cy="232.454" r="2.5253"/>
<circle cx="133.007" cy="207.069" r="2.5253"/>
<circle cx="440.658" cy="222.861" r="2.5253"/>
<circle cx="442.465" cy="241.239" r="2.5253"/>
<circle cx="412.793" cy="263.481" r="2.5253"/>
<circle cx="314.072" cy="223.046" r="2.5253"/>
<circle cx="187.863" cy="217.239" r="2.5253"/>
<circle cx="303.011" cy="256.258" r="2.5253"/>
<circle cx="335.451" cy="171.195" r="2.5253"/>
<circle cx="389.257" cy="184.089" r="2.5253"/>
<circle cx="167.689" cy="251.631" r="2.5253"/>
<circle cx="225.2" cy="215.295" r="2.5253"/>
<circle cx="382.18" cy="246.585" r="2.5253"/>
<circle cx="409.422" cy="253.993" r="2.5253"/>
<circle cx="429.627" cy="247.424" r="2.5253"/>
<circle cx="270.013" cy="189.074" r="2.5253"/>
<circle cx="174.664" cy="186.48" r="2.5253"/>
<circle cx="181.093" cy="241.332" r="2.5253"/>
<circle cx="383.687" cy="177.866" r="2.5253"/>
<circle cx="344.764" cy="195.886" r="2.5253"/>
<circle cx="228.392" cy="144.254" r="2.5253"/>
<circle cx="248.482" cy="194.784" r="2.5253"/>
<circle cx="326.235" cy="194.209" r="2.5253"/>
<circle cx="222.211" cy="155.445" r="2.5253"/>
<circle cx="268.267" cy="273.026" r="2.5253"/>
<circle cx="147.224" cy="230.056" r="2.5253"/>
<circle cx="265.049" cy="272.837" r="2.5253"/>
<circle cx="473.752" cy="191.776" r="2.5253"/>
<circle cx="308.956" cy="225.372" r="2.5253"/>
<circle cx="317.36" cy="140.436" r="2.5253"/>
<circle cx="237.183" cy="211.103" r="2.5253"/>
<circle cx="279.903" cy="209.822" r="2.5253"/>
<circle cx="146.055" cy="189.576" r="2.5253"/>
<circle cx="396.621" cy="276.277" r="2.5253"/>
<circle cx="365.858" cy="144.493" r="2.5253"/>
<circle cx="161.692" cy="268.986" r="2.5253"/>
<circle cx="371.192" cy="179.502" r="2.5253"/>
<circle cx="289.747" cy="286.654" r="2.5253"/>
<circle cx="402.01" cy="254.08" r="2.5253"/>
<circle cx="254.764" cy="199.253" r="2.5253"/>
<circle cx="241.046" cy="240.962" r="2.5253"/>
<circle cx="408.829" cy="164.868" r="2.5253"/>
<circle cx="227.529" cy="176.817" r="2.5253"/>
<circle cx="209.144" cy="195.389" r="2.5253"/>
<circle cx="332.947" cy="175.33" r="2.5253"/>
<circle cx="274.588" cy="284.811" r="2.5253"/>
<circle cx="255.725" cy="243.055" r="2.5253"/>
<circle cx="329.2" cy="210.956" r="2.5253"/>
<circle cx="390.295" cy="209.429" r="2.5253"/>
<circle cx="248.705" cy="227.541" r="2.5253"/>
<circle cx="253.412" cy="254.036" r="2.5253"/>
<circle cx="312.701" cy="233.158" r="2.5253"/>
<circle cx="289.561" cy="143.513" r="2.5253"/>
<circle cx="277.315" cy="229.18" r="2.5253"/>
<circle cx="158.126" cy="185.148" r="2.5253"/>
<circle cx="208.639" cy="169.423" r="2.5253"/>
<circle cx="98.6323" cy="240.478" r="2.5253"/>
<circle cx="281.78" cy="249.367" r="2.5253"/>
<circle cx="243.61" cy="184.808" r="2.5253"/>
<circle cx="444.208" cy="250.811" r="2.5253"/>
<circle cx="395.384" cy="182.839" r="2.5253"/>
<circle cx="143.139" cy="180.964" r="2.5253"/>
<circle cx="442.766" cy="195.823" r="2.5253"/>
<circle cx="326.098" cy="236.518" r="2.5253"/>
<circle cx="272.302" cy="211.77" r="2.5253"/>
<circle cx="341.794" cy="250.873" r="2.5253"/>
<circle cx="200.781" cy="157.544" r="2.5253"/>
<circle cx="129.857" cy="244.971" r="2.5253"/>
<circle cx="466.733" cy="197.82" r="2.5253"/>
<circle cx="400.768" cy="228.181" r="2.5253"/>
<circle cx="109.061" cy="223.989" r="2.5253"/>
<circle cx="213.969" cy="245.073" r="2.5253"/>
<circle cx="436.568" cy="195.534" r="2.5253"/>
<circle cx="343.141" cy="143.425" r="2.5253"/>
<circle cx="334.828" cy="153.508" r="2.5253"/>
<circle cx="224.553" cy="240.93" r="2.5253"/>
<circle cx="228.941" cy="214.054" r="2.5253"/>
<circle cx="357.551" cy="274.433" r="2.5253"/>
<circle cx="284.811" cy="178.776" r="2.5253"/>
<circle cx="295.12" cy="164.877" r="2.5253"/>
<circle cx="176.65" cy="206.812" r="2.5253"/>
<circle cx="423.143" cy="239.084" r="2.5253"/>
<circle cx="296.043" cy="253.433" r="2.5253"/>
<circle cx="402.934" cy="211.245" r="2.5253"/>
<circle cx="232.245" cy="238.186" r="2.5253"/>
<circle cx="392.195" cy="228.671" r="2.5253"/>
<circle cx="220.015" cy="140.679" r="2.5253"/>
<circle cx="176.241" cy="216.829" r="2.5253"/>
<circle cx="344.777" cy="285.275" r="2.5253"/>
<circle cx="234.509" cy="216.534" r="2.5253"/>
<circle cx="337.054" cy="204.933" r="2.5253"/>
<circle cx="418.803" cy="225.281" r="2.5253"/>
<circle cx="249.915" cy="207.583" r="2.5253"/>
<circle cx="106.863" cy="181.379" r="2.5253"/>
<circle cx="152.397" cy="233.229" r="2.5253"/>
<circle cx="124.958" cy="238.808" r="2.5253"/>
<circle cx="434.671" cy="218.613" r="2.5253"/>
<circle cx="387.049" cy="264.208" r="2.5253"/>
<circle cx="405.91" cy="246.552" r="2.5253"/>
<circle cx="218.844" cy="268.977" r="2.5253"/>
<circle cx="295.129" cy="170.838" r="2.5253"/>
<circle cx="200.136" cy="202.963" r="2.5253"/>
<circle cx="234.726" cy="273.551" r="2.5253"/>
<circle cx="282.015" cy="226.491" r="2.5253"/>
<circle cx="180.29" cy="265.319" r="2.5253"/>
<circle cx="228.412" cy="237.247" r="2.5253"/>
<circle cx="193.565" cy="236.384" r="2.5253"/>
<circle cx="313.997" cy="171.151" r="2.5253"/>
<circle cx="161.362" cy="260.61" r="2.5253"/>
<circle cx="355.679" cy="190.482" r="2.5253"/>
<circle cx="300.724" cy="285.401" r="2.5253"/>
<circle cx="429.946" cy="264.479" r="2.5253"/>
<circle cx="412.302" cy="206.813" r="2.5253"/>
<circle cx="456.663" cy="234.978" r="2.5253"/>
<circle cx="345.755" cy="229.638" r="2.5253"/>
<circle cx="197.802" cy="276.047" r="2.5253"/>
<circle cx="122.314" cy="246.519" r="2.5253"/>
<circle cx="289.036" cy="182.913" r="2.5253"/>
<circle cx="311.899" cy="251.346" r="2.5253"/>
<circle cx="204.749" cy="219.901" r="2.5253"/>
<circle cx="254.084" cy="224.644" r="2.5253"/>
<circle cx="200.33" cy="273.76" r="2.5253"/>
<circle cx="323.136" cy="226.971" r="2.5253"/>
<circle cx="296.396" cy="138.908" r="2.5253"/>
<circle cx="352.557" cy="217.553" r="2.5253"/>
<circle cx="248.826" cy="212.266" r="2.5253"/>
<circle cx="266.782" cy="170.02" r="2.5253"/>
<circle cx="427.025" cy="210.863" r="2.5253"/>
<circle cx="293.106" cy="185.876" r="2.5253"/>
<circle cx="424.764" cy="258.549" r="2.5253"/>
<circle cx="356.162" cy="227.46" r="2.5253"/>
<circle cx="339.673" cy="267.619" r="2.5253"/>
<circle cx="236.047" cy="151.619" r="2.5253"/>
<circle cx="311.321" cy="137.327" r="2.5253"/>
<circle cx="125.477" cy="244.342" r="2.5253"/>
<circle cx="377.016" cy="216.907" r="2.5253"/>
<circle cx="210.714" cy="206.627" r="2.5253"/>
<circle cx="163.984" cy="209.509" r="2.5253"/>
<circle cx="173.992" cy="223.272" r="2.5253"/>
<circle cx="388.389" cy="270.586" r="2.5253"/>
<circle cx="226.697" cy="219.662" r="2.5253"/>
<circle cx="268.614" cy="241.854" r="2.5253"/>
<circle cx="140.24" cy="205.893" r="2.5253"/>
<circle cx="435.972" cy="198.404" r="2.5253"/>
<circle cx="361.201" cy="175.96" r="2.5253"/>
<circle cx="390.277" cy="154.155" r="2.5253"/>
<circle cx="254.568" cy="197.799" r="2.5253"/>
<circle cx="120.378" cy="217.782" r="2.5253"/>
<circle cx="244.843" cy="176.189" r="2.5253"/>
<circle cx="400.045" cy="214.454" r="2.5253"/>
<circle cx="82.6389" cy="208.058" r="2.5253"/>
<circle cx="208.91" cy="236.902" r="2.5253"/>
<circle cx="259.663" cy="252.68" r="2.5253"/>
<circle cx="319.384" cy="198.562" r="2.5253"/>
<circle cx="363.256" cy="191.681" r="2.5253"/>
<circle cx="203.048" cy="175.004" r="2.5253"/>
<circle cx="334.551" cy="171.313" r="2.5253"/>
<circle cx="361.155" cy="181.253" r="2.5253"/>
<circle cx="398.536" cy="250.994" r="2.5253"/>
<circle cx="156.295" cy="268.951" r="2.5253"/>
<circle cx="237.845" cy="177.397" r="2.5253"/>
<circle cx="320.614" cy="269.013" r="2.5253"/>
<circle cx="312.192" cy="228.478" r="2.5253"/>
<circle cx="206.39" cy="198.659" r="2.5253"/>
<circle cx="360.304" cy="269.915" r="2.5253"/>
<circle cx="328.38" cy="167.711" r="2.5253"/>
<circle cx="296.555" cy="246.457" r="2.5253"/>
<circle cx="420.916" cy="202.829" r="2.5253"/>
<circle cx="256.175" cy="153.408" r="2.5253"/>
<circle cx="160.221" cy="270.589" r="2.5253"/>
<circle cx="194.482" cy="193.02" r="2.5253"/>
<circle cx="249.393" cy="209.031" r="2.5253"/>
<circle cx="206.82" cy="209.371" r="2.5253"/>
<circle cx="335.573" cy="252.543" r="2.5253"/>
<circle cx="336.788" cy="174.433" r="2.5253"/>
<circle cx="203.646" cy="198.709" r="2.5253"/>
<circle cx="379.349" cy="247.548" r="2.5253"/>
<circle cx="443.511" cy="238.706" r="2.5253"/>
<circle cx="182.913" cy="240.889" r="2.5253"/>
<circle cx="452.347" cy="177.913" r="2.5253"/>
<circle cx="349.248" cy="224.346" r="2.5253"/>
<circle cx="260.906" cy="244.091" r="2.5253"/>
<circle cx="168.614" cy="235.691" r="2.5253"/>
<circle cx="312.947" cy="219.78" r="2.5253"/>
<circle cx="336.996" cy="173.794" r="2.5253"/>
<circle cx="293.442" cy="195.804" r="2.5253"/>
<circle cx="471.109" cy="212.32" r="2.5253"/>
<circle cx="248.651" cy="187.235" r="2.5253"/>
<circle cx="299.019" cy="152.732" r="2.5253"/>
<circle cx="153.373" cy="172.292" r="2.5253"/>
<circle cx="242.74" cy="236.344" r="2.5253"/>
<circle cx="379.393" cy="195.38" r="2.5253"/>
<circle cx="212.804" cy="151.739" r="2.5253"/>
<circle cx="299.985" cy="242.823" r="2.5253"/>
<circle cx="284.157" cy="251.749" r="2.5253"/>
<circle cx="344.072" cy="194.695" r="2.5253"/>
<circle cx="366.655" cy="240.014" r="2.5253"/>
<circle cx="370.076" cy="195.627" r="2.5253"/>
<circle cx="233.254" cy="167.203" r="2.5253"/>
<circle cx="134.506" cy="162.244" r="2.5253"/>
<circle cx="418.557" cy="162.516" r="2.5253"/>
<circle cx="218.315" cy="208.519" r="2.5253"/>
<circle cx="309.492" cy="274.728" r="2.5253"/>
<circle cx="199.243" cy="281.617" r="2.5253"/>
<circle cx="328.506" cy="286.452" r="2.5253"/>
<circle cx="466.069" cy="233.055" r="2.5253"/>
<circle cx="342.845" cy="265.572" r="2.5253"/>
<circle cx="396.821" cy="232.289" r="2.5253"/>
<circle cx="195.845" cy="277.669" r="2.5253"/>
<circle cx="470.249" cy="233.849" r="2.5253"/>
<circle cx="260.771" cy="182.782" r="2.5253"/>
<circle cx="179.018" cy="220.024" r="2.5253"/>
<circle cx="160.104" cy="239.263" r="2.5253"/>
<circle cx="311.379" cy="266.869" r="2.5253"/>
<circle cx="262.197" cy="271.365" r="2.5253"/>
<circle cx="269.42" cy="252.213" r="2.5253"/>
<circle cx="129.852" cy="241.314" r="2.5253"/>
<circle cx="372.635" cy="146.674" r="2.5253"/>
<circle cx="256.402" cy="141.852" r="2.5253"/>
<circle cx="447.403" cy="242.881" r="2.5253"/>
<circle cx="204.198" cy="266.61" r="2.5253"/>
<circle cx="236.091" cy="222.873" r="2.5253"/>
<circle cx="165.269" cy="223.747" r="2.5253"/>
<circle cx="363.029" cy="280.885" r="2.5253"/>
<circle cx="192.386" cy="197.478" r="2.5253"/>
<circle cx="419.183" cy="257.997" r="2.5253"/>
<circle cx="407.97" cy="206.096" r="2.5253"/>
<circle cx="310.451" cy="254.683" r="2.5253"/>
<circle cx="132.646" cy="169.889" r="2.5253"/>
<circle cx="119.797" cy="229.102" r="2.5253"/>
<circle cx="294.438" cy="202.212" r="2.5253"/>
<circle cx="199.608" cy="250.804" r="2.5253"/>
<circle cx="237.508" cy="230.252" r="2.5253"/>
<circle cx="447.005" cy="232.433" r="2.5253"/>
<circle cx="352.473" cy="159.498" r="2.5253"/>
<circle cx="153.963" cy="262.235" r="2.5253"/>
<circle cx="260.993" cy="235.728" r="2.5253"/>
<circle cx="379.671" cy="280.791" r="2.5253"/>
<circle cx="289.882" cy="277.486" r="2.5253"/>
<circle cx="234.34" cy="199.54" r="2.5253"/>
<circle cx="133.587" cy="247.088" r="2.5253"/>
<circle cx="331.911" cy="252.484" r="2.5253"/>
<circle cx="398.96" cy="226.067" r="2.5253"/>
<circle cx="153.257" cy="187.317" r="2.5253"/>
<circle cx="342.417" cy="172.266" r="2.5253"/>
<circle cx="217.39" cy="201.852" r="2.5253"/>
<circle cx="232.99" cy="245.551" r="2.5253"/>
<circle cx="324.331" cy="221.111" r="2.5253"/>
<circle cx="382.386" cy="237.726" r="2.5253"/>
<circle cx="352.746" cy="279.338" r="2.5253"/>
<circle cx="278.447" cy="149.902" r="2.5253"/>
<circle cx="408.131" cy="177.109" r="2.5253"/>
<circle cx="270.7" cy="276.843" r="2.5253"/>
<circle cx="188.882" cy="222.439" r="2.5253"/>
<circle cx="302.643" cy="249.914" r="2.5253"/>
<circle cx="170.005" cy="251.623" r="2.5253"/>
<circle cx="239.727" cy="265.397" r="2.5253"/>
<circle cx="386.603" cy="224.837" r="2.5253"/>
<circle cx="351.891" cy="158.843" r="2.5253"/>
<circle cx="235.427" cy="183.562" r="2.5253"/>
<circle cx="259.983" cy="285.24" r="2.5253"/>
<circle cx="182.948" cy="257.262" r="2.5253"/>
<circle cx="99.9571" cy="235.48" r="2.5253"/>
<circle cx="349.459" cy="179.165" r="2.5253"/>
<circle cx="244.864" cy="233.538" r="2.5253"/>
<circle cx="167.112" cy="209.895" r="2.5253"/>
<circle cx="267.576" cy="230.25" r="2.5253"/>
<circle cx="231.675" cy="254.894" r="2.5253"/>
<circle cx="456.571" cy="193.255" r="2.5253"/>
<circle cx="201.484" cy="217.28" r="2.5253"/>
<circle cx="377.817" cy="207.732" r="2.5253"/>
<circle cx="414.716" cy="210.133" r="2.5253"/>
<circle cx="156.695" cy="259.591" r="2.5253"/>
<circle cx="345.034" cy="229.678" r="2.5253"/>
<circle cx="312.416" cy="249.167" r="2.5253"/>
<circle cx="251.446" cy="274.223" r="2.5253"/>
<circle cx="488.844" cy="209.925" r="2.5253"/>
<circle cx="392.361" cy="154.147" r="2.5253"/>
<circle cx="306.298" cy="262.244" r="2.5253"/>
<circle cx="302.487" cy="224.959" r="2.5253"/>
<circle cx="208.44" cy="152.66" r="2.5253"/>
<circle cx="259.756" cy="235.993" r="2.5253"/>
<circle cx="404.254" cy="188.75" r="2.5253"/>
<circle cx="177.035" cy="170.044" r="2.5253"/>
<circle cx="242.469" cy="223.899" r="2.5253"/>
<circle cx="110.64" cy="243.515" r="2.5253"/>
<circle cx="432.797" cy="222.393" r="2.5253"/>
<circle cx="358.688" cy="200.305" r="2.5253"/>
<circle cx="482.895" cy="221.964" r="2.5253"/>
<circle cx="207.198" cy="221.213" r="2.5253"/>
<circle cx="441.335" cy="199.009" r="2.5253"/>
<circle cx="280.236" cy="163.138" r="2.5253"/>
<circle cx="246.788" cy="274.718" r="2.5253"/>
<circle cx="228.022" cy="232.673" r="2.5253"/>
<circle cx="267.12" cy="230.058" r="2.5253"/>
<circle cx="487.783" cy="211.267" r="2.5253"/>
<circle cx="203.276" cy="213.395" r="2.5253"/>
<circle cx="303.584" cy="212.566" r="2.5253"/>
<circle cx="147.935" cy="185.441" r="2.5253"/>
<circle cx="262.266" cy="283.34" r="2.5253"/>
<circle cx="295.361" cy="268.529" r="2.5253"/>
<circle cx="413.944" cy="200.211" r="2.5253"/>
<circle cx="219.51" cy="231.411" r="2.5253"/>
<circle cx="437.953" cy="170.976" r="2.5253"/>
<circle cx="225.241" cy="187.54" r="2.5253"/>
<circle cx="251.133" cy="250.536" r="2.5253"/>
<circle cx="238.791" cy="154.362" r="2.5253"/>
<circle cx="429.641" cy="237.08" r="2.5253"/>
<circle cx="318.767" cy="268.415" r="2.5253"/>
<circle cx="309.822" cy="266.357" r="2.5253"/>
<circle cx="234.977" cy="269.656" r="2.5253"/>
<circle cx="198.471" cy="234.422" r="2.5253"/>
<circle cx="103.011" cy="187.055" r="2.5253"/>
<circle cx="328.722" cy="211.614" r="2.5253"/>
<circle cx="132.667" cy="261.054" r="2.5253"/>
<circle cx="301.914" cy="190.159" r="2.5253"/>
<circle cx="362.73" cy="268.875" r="2.5253"/>
<circle cx="133.562" cy="232.857" r="2.5253"/>
<circle cx="119.581" cy="256.486" r="2.5253"/>
<circle cx="268.427" cy="139.271" r="2.5253"/>
<circle cx="312.494" cy="182.894" r="2.5253"/>
<circle cx="170.315" cy="161.582" r="2.5253"/>
<circle cx="358.376" cy="215.66" r="2.5253"/>
<circle cx="210.02" cy="237.426" r="2.5253"/>
<circle cx="319.062" cy="278.574" r="2.5253"/>
<circle cx="156.408" cy="159.61" r="2.5253"/>
<circle cx="326.726" cy="283.369" r="2.5253"/>
<circle cx="219.961" cy="180.812" r="2.5253"/>
<circle cx="368.724" cy="212.686" r="2.5253"/>
<circle cx="217.454" cy="270.96" r="2.5253"/>
<circle cx="366.612" cy="244.356" r="2.5253"/>
<circle cx="251.944" cy="190.609" r="2.5253"/>
<circle cx="163.991" cy="269.488" r="2.5253"/>
<circle cx="203.175" cy="251.844" r="2.5253"/>
<circle cx="254.8" cy="168.496" r="2.5253"/>
<circle cx="173.354" cy="159.991" r="2.5253"/>
<circle cx="227.677" cy="140.634" r="2.5253"/>
<circle cx="299.772" cy="237.629" r="2.5253"/>
<circle cx="412.947" cy="243.897" r="2.5253"/>
<circle cx="359.832" cy="238.941" r="2.5253"/>
<circle cx="258.602" cy="180.162" r="2.5253"/>
<circle cx="276.013" cy="252.658" r="2.5253"/>
<circle cx="338.796" cy="222.385" r="2.5253"/>
<circle cx="133.182" cy="171.551" r="2.5253"/>
<circle cx="264.074" cy="218.246" r="2.5253"/>
<circle cx="188.671" cy="172.115" r="2.5253"/>
<circle cx="216.83" cy="217.567" r="2.5253"/>
<circle cx="414.934" cy="156.064" r="2.5253"/>
<circle cx="327.878" cy="207.42" r="2.5253"/>
<circle cx="352.2" cy="208.758" r="2.5253"/>
<circle cx="464.623" cy="222.396" r="2.5253"/>
<circle cx="251.773" cy="284.317" r="2.5253"/>
<circle cx="335.389" cy="181.852" r="2.5253"/>
<circle cx="392.96" cy="233.448" r="2.5253"/>
<circle cx="343.028" cy="229.937" r="2.5253"/>
<circle cx="486.886" cy="228.224" r="2.5253"/>
<circle cx="288.774" cy="150.623" r="2.5253"/>
<circle cx="426.548" cy="248.181" r="2.5253"/>
<circle cx="196.827" cy="268.04" r="2.5253"/>
<circle cx="381.384" cy="220.696" r="2.5253"/>
<circle cx="354.689" cy="214.421" r="2.5253"/>
<circle cx="429.303" cy="254.933" r="2.5253"/>
<circle cx="425.786" cy="208.784" r="2.5253"/>
<circle cx="241.733" cy="206.604" r="2.5253"/>
<circle cx="415.945" cy="212.477" r="2.5253"/>
<circle cx="222.143" cy="208.561" r="2.5253"/>
<circle cx="281.965" cy="151.592" r="2.5253"/>
<circle cx="319.17" cy="235.671" r="2.5253"/>
<circle cx="390.73" cy="209.856" r="2.5253"/>
<circle cx="422.263" cy="198.113" r="2.5253"/>
<circle cx="208.534" cy="230.791" r="2.5253"/>
<circle cx="367.47" cy="178.468" r="2.5253"/>
<circle cx="437.158" cy="218.099" r="2.5253"/>
<circle cx="208.112" cy="158.572" r="2.5253"/>
<circle cx="203.449" cy="279.425" r="2.5253"/>
<circle cx="287.732" cy="153.951" r="2.5253"/>
<circle cx="247.153" cy="138.502" r="2.5253"/>
<circle cx="448.964" cy="251.873" r="2.5253"/>
<circle cx="316.916" cy="204.206" r="2.5253"/>
<circle cx="409.035" cy="156.491" r="2.5253"/>
<circle cx="409.728" cy="203.945" r="2.5253"/>
<circle cx="277.205" cy="272.993" r="2.5253"/>
<circle cx="357.976" cy="281.907" r="2.5253"/>
<circle cx="415.392" cy="187.317" r="2.5253"/>
<circle cx="285.707" cy="242.347" r="2.5253"/>
<circle cx="273.378" cy="246.306" r="2.5253"/>
<circle cx="312.817" cy="227.842" r="2.5253"/>
<circle cx="474.148" cy="200.051" r="2.5253"/>
<circle cx="429.194" cy="233.397" r="2.5253"/>
<circle cx="395.421" cy="167.88" r="2.5253"/>
<circle cx="271.674" cy="176.884" r="2.5253"/>
<circle cx="92.5451" cy="196.772" r="2.5253"/>
<circle cx="278.325" cy="210.961" r="2.5253"/>
<circle cx="232.77" cy="170.729" r="2.5253"/>
<circle cx="259.844" cy="279.093" r="2.5253"/>
<circle cx="428.114" cy="187.699" r="2.5253"/>
<circle cx="296.916" cy="187.884" r="2.5253"/>
<circle cx="336.752" cy="270.294" r="2.5253"/>
<circle cx="209.341" cy="175.384" r="2.5253"/>
<circle cx="315.376" cy="244.015" r="2.5253"/>
<circle cx="353.572" cy="158.314" r="2.5253"/>
<circle cx="439.693" cy="242.804" r="2.5253"/>
<circle cx="288.339" cy="205.85" r="2.5253"/>
<circle cx="377.817" cy="199.822" r="2.5253"/>
<circle cx="389.562" cy="245.905" r="2.5253"/>
<circle cx="454.947" cy="249.223" r="2.5253"/>
<circle cx="235.773" cy="236.428" r="2.5253"/>
<circle cx="134.46" cy="167.812" r="2.5253"/>
<circle cx="201.823" cy="254.214" r="2.5253"/>
<circle cx="186.644" cy="163.283" r="2.5253"/>
<circle cx="356.716" cy="227.868" r="2.5253"/>
<circle cx="248.31" cy="140.513" r="2.5253"/>
<circle cx="455.005" cy="214.725" r="2.5253"/>
<circle cx="433.545" cy="240.467" r="2.5253"/>
<circle cx="260.821" cy="266.968" r="2.5253"/>
<circle cx="354.879" cy="164.838" r="2.5253"/>
<circle cx="450.458" cy="217.843" r="2.5253"/>
<circle cx="325.163" cy="188.971" r="2.5253"/>
<circle cx="467.828" cy="181.369" r="2.5253"/>
<circle cx="325.338" cy="245.27" r="2.5253"/>
<circle cx="212.147" cy="208.584" r="2.5253"/>
<circle cx="480.325" cy="227.734" r="2.5253"/>
<circle cx="281.344" cy="220.202" r="2.5253"/>
<circle cx="417.222" cy="246.438" r="2.5253"/>
<circle cx="473.766" cy="242.785" r="2.5253"/>
<circle cx="375.201" cy="188.474" r="2.5253"/>
<circle cx="375.566" cy="211.012" r="2.5253"/>
<circle cx="236.614" cy="172.346" r="2.5253"/>
<circle cx="252.773" cy="197.043" r="2.5253"/>
<circle cx="411.514" cy="164.954" r="2.5253"/>
<circle cx="315.688" cy="213.974" r="2.5253"/>
<circle cx="79.3837" cy="203.292" r="2.5253"/>
<circle cx="214.04" cy="185.571" r="2.5253"/>
<circle cx="277.318" cy="177.597" r="2.5253"/>
<circle cx="341.156" cy="223.22" r="2.5253"/>
<circle cx="181.962" cy="234.524" r="2.5253"/>
<circle cx="411.245" cy="212.001" r="2.5253"/>
<circle cx="224.582" cy="152.626" r="2.5253"/>
<circle cx="256.73" cy="223.42" r="2.5253"/>
<circle cx="342.434" cy="233.828" r="2.5253"/>
<circle cx="248.686" cy="270.431" r="2.5253"/>
<circle cx="264.91" cy="283.092" r="2.5253"/>
<circle cx="355.28" cy="153.39" r="2.5253"/>
</g>
<g fill="#0000ff">
<circle cx="442.679" cy="201.683" r="2.5253"/>
<circle cx="270.817" cy="283.656" r="2.5253"/>
<circle cx="423.603" cy="226.113" r="2.5253"/>
<circle cx="337.488" cy="178.596" r="2.5253"/>
<circle cx="94.1454" cy="197.607" r="2.5253"/>
<circle cx="258.167" cy="260.955" r="2.5253"/>
<circle cx="329.62" cy="277.526" r="2.5253"/>
<circle cx="300.912" cy="220.247" r="2.5253"/>
<circle cx="112.15" cy="220.697" r="2.5253"/>
<circle cx="336.106" cy="207.311" r="2.5253"/>
<circle cx="271.852" cy="264.764" r="2.5253"/>
<circle cx="250.192" cy="145.731" r="2.5253"/>
<circle cx="98.2742" cy="197.506" r="2.5253"/>
<circle cx="266.615" cy="208.83" r="2.5253"/>
<circle cx="277.197" cy="282.028" r="2.5253"/>
<circle cx="103.108" cy="228.026" r="2.5253"/>
<circle cx="399.055" cy="269.755" r="2.5253"/>
<circle cx="172.205" cy="164.13" r="2.5253"/>
<circle cx="262.247" cy="199.981" r="2.5253"/>
<circle cx="255.936" cy="137.491" r="2.5253"/>
<circle cx="246.843" cy="141.859" r="2.5253"/>
<circle cx="410.07" cy="236.928" r="2.5253"/>
<circle cx="198.485" cy="213.176" r="2.5253"/>
<circle cx="335.675" cy="237.91" r="2.5253"/>
<circle cx="434.094" cy="248.639" r="2.5253"/>
<circle cx="383.016" cy="190.824" r="2.5253"/>
<circle cx="423.696" cy="216.269" r="2.5253"/>
<circle cx="322.283" cy="212.957" r="2.5253"/>
<circle cx="269.272" cy="193.923" r="2.5253"/>
<circle cx="295.622" cy="169.811" r="2.5253"/>
<circle cx="343.458" cy="158.047" r="2.5253"/>
<circle cx="219.917" cy="148.352" r="2.5253"/>
<circle cx="279.208" cy="185.167" r="2.5253"/>
<circle cx="203.762" cy="244.24" r="2.5253"/>
<circle cx="358.626" cy="237.45" r="2.5253"/>
<circle cx="242.101" cy="179.069" r="2.5253"/>
<circle cx="312.806" cy="281.863" r="2.5253"/>
<circle cx="334.792" cy="228.89" r="2.5253"/>
<circle cx="225.731" cy="194.027" r="2.5253"/>
<circle cx="351.79" cy="197.247" r="2.5253"/>
<circle cx="357.64" cy="160.836" r="2.5253"/>
<circle cx="353.245" cy="252.688" r="2.5253"/>
<circle cx="174.996" cy="217.324" r="2.5253"/>
<circle cx="367.668" cy="270.016" r="2.5253"/>
<circle cx="353.461" cy="226.79" r="2.5253"/>
<circle cx="225.157" cy="222.135" r="2.5253"/>
<circle cx="96.1829" cy="217.457" r="2.5253"/>
<circle cx="188.971" cy="229.173" r="2.5253"/>
<circle cx="225.136" cy="237.146" r="2.5253"/>
<circle cx="269.718" cy="267.447" r="2.5253"/>
<circle cx="218.339" cy="178.899" r="2.5253"/>
<circle cx="397.05" cy="185.309" r="2.5253"/>
<circle cx="329.153" cy="221.757" r="2.5253"/>
<circle cx="397.712" cy="218.85" r="2.5253"/>
<circle cx="440.752" cy="170.431" r="2.5253"/>
<circle cx="293.358" cy="258.923" r="2.5253"/>
<circle cx="190.697" cy="155.618" r="2.5253"/>
<circle cx="304.269" cy="276.376" r="2.5253"/>
<circle cx="331.043" cy="149.129" r="2.5253"/>
<circle cx="398.064" cy="228.576" r="2.5253"/>
<circle cx="373.509" cy="207.269" r="2.5253"/>
<circle cx="257.823" cy="162.214" r="2.5253"/>
<circle cx="252.8" cy="186.662" r="2.5253"/>
<circle cx="253.283" cy="183.19" r="2.5253"/>
<circle cx="91.3267" cy="208.071" r="2.5253"/>
<circle cx="260.335" cy="202.201" r="2.5253"/>
<circle cx="197.139" cy="256.971" r="2.5253"/>
<circle cx="120.408" cy="217.176" r="2.5253"/>
<circle cx="314.286" cy="177.863" r="2.5253"/>
<circle cx="114.013" cy="237.023" r="2.5253"/>
<circle cx="343.208" cy="239.582" r="2.5253"/>
<circle cx="355.454" cy="257.178" r="2.5253"/>
<circle cx="181.689" cy="192.658" r="2.5253"/>
<circle cx="252.705" cy="259.946" r="2.5253"/>
<circle cx="372.958" cy="149.92" r="2.5253"/>
<circle cx="477.204" cy="188.942" r="2.5253"/>
<circle cx="393.389" cy="243.897" r="2.5253"/>
<circle cx="400.085" cy="250.132" r="2.5253"/>
<circle cx="330.629" cy="216.018" r="2.5253"/>
<circle cx="183.889" cy="278.884" r="2.5253"/>
<circle cx="304.141" cy="156.703" r="2.5253"/>
<circle cx="310.46" cy="144.606" r="2.5253"/>
<circle cx="318.141" cy="162.026" r="2.5253"/>
<circle cx="272.836" cy="214.259" r="2.5253"/>
<circle cx="285.277" cy="223.296" r="2.5253"/>
<circle cx="182.797" cy="161.436" r="2.5253"/>
<circle cx="407.159" cy="169.38" r="2.5253"/>
<circle cx="303.687" cy="217.085" r="2.5253"/>
<circle cx="448.087" cy="209.428" r="2.5253"/>
<circle cx="347.356" cy="152.425" r="2.5253"/>
<circle cx="199.612" cy="276.512" r="2.5253"/>
<circle cx="131.856" cy="205.538" r="2.5253"/>
<circle cx="190.236" cy="163.892" r="2.5253"/>
<circle cx="283.699" cy="176.533" r="2.5253"/>
</g></svg>
