<?xml version="1.0" standalone="no"?>
<svg width="567.429" height="427.275" viewBox="0 0 567.429 427.275" xmlns="http://www.w3.org/2000/svg" shape-rendering="crispEdges">
<title>
../docs/Angles_1.svg
</title>
<desc>
Creator: ROOT Version 6.26/10
CreationDate: Wed Mar  8 18:04:22 2023</desc>
<defs>
</defs>
<rect x="0.5" y="0" width="566.929" height="426.775" fill="white"/>
<rect x="57.1929" y="42.6775" width="453.543" height="341.42" fill="white"/>
<rect x="57.1929" y="42.6775" width="453.543" height="341.42" fill="none" stroke="black"/>
<rect x="57.1929" y="42.6775" width="453.543" height="341.42" fill="white"/>
<rect x="57.1929" y="42.6775" width="453.543" height="341.42" fill="none" stroke="black"/>
<path d="M57.1929,384.098h 453.543" fill="none" stroke="black"/>
<path d="M95.9576,42.6775v 341.42" fill="none" stroke="black" stroke-dasharray=" 1, 2"/>
<path d="M142.394,42.6775v 341.42" fill="none" stroke="black" stroke-dasharray=" 1, 2"/>
<path d="M188.83,42.6775v 341.42" fill="none" stroke="black" stroke-dasharray=" 1, 2"/>
<path d="M235.267,42.6775v 341.42" fill="none" stroke="black" stroke-dasharray=" 1, 2"/>
<path d="M281.703,42.6775v 341.42" fill="none" stroke="black" stroke-dasharray=" 1, 2"/>
<path d="M328.139,42.6775v 341.42" fill="none" stroke="black" stroke-dasharray=" 1, 2"/>
<path d="M374.576,42.6775v 341.42" fill="none" stroke="black" stroke-dasharray=" 1, 2"/>
<path d="M421.012,42.6775v 341.42" fill="none" stroke="black" stroke-dasharray=" 1, 2"/>
<path d="M467.448,42.6775v 341.42" fill="none" stroke="black" stroke-dasharray=" 1, 2"/>
<path d="M95.9576,42.6775v 341.42" fill="none" stroke="black" stroke-dasharray=" 1, 2"/>
<path d="M467.448,42.6775v 341.42" fill="none" stroke="black" stroke-dasharray=" 1, 2"/>
<path d="M57.1929,384.098v -341.42" fill="none" stroke="black"/>
<path d="M510.736,384.098h -453.543" fill="none" stroke="black" stroke-dasharray=" 1, 2"/>
<path d="M510.736,341.42h -453.543" fill="none" stroke="black" stroke-dasharray=" 1, 2"/>
<path d="M510.736,298.743h -453.543" fill="none" stroke="black" stroke-dasharray=" 1, 2"/>
<path d="M510.736,256.065h -453.543" fill="none" stroke="black" stroke-dasharray=" 1, 2"/>
<path d="M510.736,213.388h -453.543" fill="none" stroke="black" stroke-dasharray=" 1, 2"/>
<path d="M510.736,170.71h -453.543" fill="none" stroke="black" stroke-dasharray=" 1, 2"/>
<path d="M510.736,128.033h -453.543" fill="none" stroke="black" stroke-dasharray=" 1, 2"/>
<path d="M510.736,85.355h -453.543" fill="none" stroke="black" stroke-dasharray=" 1, 2"/>
<path d="M510.736,42.6775h -453.543" fill="none" stroke="black" stroke-dasharray=" 1, 2"/>
<path d="M57.1929,384.098h 453.543" fill="none" stroke="black"/>
<path d="M95.9576,373.855v 10.2426" fill="none" stroke="black"/>
<path d="M107.567,378.976v 5.1213" fill="none" stroke="black"/>
<path d="M119.176,378.976v 5.1213" fill="none" stroke="black"/>
<path d="M130.785,378.976v 5.1213" fill="none" stroke="black"/>
<path d="M142.394,373.855v 10.2426" fill="none" stroke="black"/>
<path d="M154.003,378.976v 5.1213" fill="none" stroke="black"/>
<path d="M165.612,378.976v 5.1213" fill="none" stroke="black"/>
<path d="M177.221,378.976v 5.1213" fill="none" stroke="black"/>
<path d="M188.83,373.855v 10.2426" fill="none" stroke="black"/>
<path d="M200.439,378.976v 5.1213" fill="none" stroke="black"/>
<path d="M212.048,378.976v 5.1213" fill="none" stroke="black"/>
<path d="M223.658,378.976v 5.1213" fill="none" stroke="black"/>
<path d="M235.267,373.855v 10.2426" fill="none" stroke="black"/>
<path d="M246.876,378.976v 5.1213" fill="none" stroke="black"/>
<path d="M258.485,378.976v 5.1213" fill="none" stroke="black"/>
<path d="M270.094,378.976v 5.1213" fill="none" stroke="black"/>
<path d="M281.703,373.855v 10.2426" fill="none" stroke="black"/>
<path d="M293.312,378.976v 5.1213" fill="none" stroke="black"/>
<path d="M304.921,378.976v 5.1213" fill="none" stroke="black"/>
<path d="M316.53,378.976v 5.1213" fill="none" stroke="black"/>
<path d="M328.139,373.855v 10.2426" fill="none" stroke="black"/>
<path d="M339.748,378.976v 5.1213" fill="none" stroke="black"/>
<path d="M351.357,378.976v 5.1213" fill="none" stroke="black"/>
<path d="M362.967,378.976v 5.1213" fill="none" stroke="black"/>
<path d="M374.576,373.855v 10.2426" fill="none" stroke="black"/>
<path d="M386.185,378.976v 5.1213" fill="none" stroke="black"/>
<path d="M397.794,378.976v 5.1213" fill="none" stroke="black"/>
<path d="M409.403,378.976v 5.1213" fill="none" stroke="black"/>
<path d="M421.012,373.855v 10.2426" fill="none" stroke="black"/>
<path d="M432.621,378.976v 5.1213" fill="none" stroke="black"/>
<path d="M444.23,378.976v 5.1213" fill="none" stroke="black"/>
<path d="M455.839,378.976v 5.1213" fill="none" stroke="black"/>
<path d="M467.448,373.855v 10.2426" fill="none" stroke="black"/>
<path d="M95.9576,373.855v 10.2426" fill="none" stroke="black"/>
<path d="M84.3485,378.976v 5.1213" fill="none" stroke="black"/>
<path d="M72.7394,378.976v 5.1213" fill="none" stroke="black"/>
<path d="M61.1304,378.976v 5.1213" fill="none" stroke="black"/>
<path d="M467.448,373.855v 10.2426" fill="none" stroke="black"/>
<path d="M479.057,378.976v 5.1213" fill="none" stroke="black"/>
<path d="M490.666,378.976v 5.1213" fill="none" stroke="black"/>
<path d="M502.276,378.976v 5.1213" fill="none" stroke="black"/>
<text xml:space="preserve" x="91.4107" y="397.734" fill="black" font-size="14.2038" font-family="Helvetica">80</text>
<text xml:space="preserve" x="84.4661" y="397.734" fill="black" font-size="14.2038" font-family="Times">&#8722;</text>
<text xml:space="preserve" x="137.497" y="397.734" fill="black" font-size="14.2038" font-family="Helvetica">60</text>
<text xml:space="preserve" x="130.553" y="397.734" fill="black" font-size="14.2038" font-family="Times">&#8722;</text>
<text xml:space="preserve" x="184.215" y="397.734" fill="black" font-size="14.2038" font-family="Helvetica">40</text>
<text xml:space="preserve" x="177.271" y="397.734" fill="black" font-size="14.2038" font-family="Times">&#8722;</text>
<text xml:space="preserve" x="230.302" y="397.734" fill="black" font-size="14.2038" font-family="Helvetica">20</text>
<text xml:space="preserve" x="223.357" y="397.734" fill="black" font-size="14.2038" font-family="Times">&#8722;</text>
<text xml:space="preserve" x="277.651" y="397.734" fill="black" font-size="14.2038" font-family="Helvetica">0</text>
<text xml:space="preserve" x="319.95" y="397.734" fill="black" font-size="14.2038" font-family="Helvetica">20</text>
<text xml:space="preserve" x="366.668" y="397.734" fill="black" font-size="14.2038" font-family="Helvetica">40</text>
<text xml:space="preserve" x="413.386" y="397.734" fill="black" font-size="14.2038" font-family="Helvetica">60</text>
<text xml:space="preserve" x="459.473" y="397.734" fill="black" font-size="14.2038" font-family="Helvetica">80</text>
<text xml:space="preserve" x="363.511" y="412.255" fill="black" font-size="14.2038" font-family="Helvetica">Angle projection X [deg]</text>
<path d="M57.1929,384.098v -341.42" fill="none" stroke="black"/>
<path d="M70.7992,384.098h -13.6063" fill="none" stroke="black"/>
<path d="M63.9961,375.562h -6.80315" fill="none" stroke="black"/>
<path d="M63.9961,367.027h -6.80315" fill="none" stroke="black"/>
<path d="M63.9961,358.491h -6.80315" fill="none" stroke="black"/>
<path d="M63.9961,349.956h -6.80315" fill="none" stroke="black"/>
<path d="M70.7992,341.42h -13.6063" fill="none" stroke="black"/>
<path d="M63.9961,332.885h -6.80315" fill="none" stroke="black"/>
<path d="M63.9961,324.349h -6.80315" fill="none" stroke="black"/>
<path d="M63.9961,315.814h -6.80315" fill="none" stroke="black"/>
<path d="M63.9961,307.278h -6.80315" fill="none" stroke="black"/>
<path d="M70.7992,298.743h -13.6063" fill="none" stroke="black"/>
<path d="M63.9961,290.207h -6.80315" fill="none" stroke="black"/>
<path d="M63.9961,281.672h -6.80315" fill="none" stroke="black"/>
<path d="M63.9961,273.136h -6.80315" fill="none" stroke="black"/>
<path d="M63.9961,264.601h -6.80315" fill="none" stroke="black"/>
<path d="M70.7992,256.065h -13.6063" fill="none" stroke="black"/>
<path d="M63.9961,247.53h -6.80315" fill="none" stroke="black"/>
<path d="M63.9961,238.994h -6.80315" fill="none" stroke="black"/>
<path d="M63.9961,230.459h -6.80315" fill="none" stroke="black"/>
<path d="M63.9961,221.923h -6.80315" fill="none" stroke="black"/>
<path d="M70.7992,213.388h -13.6063" fill="none" stroke="black"/>
<path d="M63.9961,204.852h -6.80315" fill="none" stroke="black"/>
<path d="M63.9961,196.317h -6.80315" fill="none" stroke="black"/>
<path d="M63.9961,187.781h -6.80315" fill="none" stroke="black"/>
<path d="M63.9961,179.246h -6.80315" fill="none" stroke="black"/>
<path d="M70.7992,170.71h -13.6063" fill="none" stroke="black"/>
<path d="M63.9961,162.175h -6.80315" fill="none" stroke="black"/>
<path d="M63.9961,153.639h -6.80315" fill="none" stroke="black"/>
<path d="M63.9961,145.104h -6.80315" fill="none" stroke="black"/>
<path d="M63.9961,136.568h -6.80315" fill="none" stroke="black"/>
<path d="M70.7992,128.033h -13.6063" fill="none" stroke="black"/>
<path d="M63.9961,119.497h -6.80315" fill="none" stroke="black"/>
<path d="M63.9961,110.962h -6.80315" fill="none" stroke="black"/>
<path d="M63.9961,102.426h -6.80315" fill="none" stroke="black"/>
<path d="M63.9961,93.8905h -6.80315" fill="none" stroke="black"/>
<path d="M70.7992,85.355h -13.6063" fill="none" stroke="black"/>
<path d="M63.9961,76.8195h -6.80315" fill="none" stroke="black"/>
<path d="M63.9961,68.284h -6.80315" fill="none" stroke="black"/>
<path d="M63.9961,59.7485h -6.80315" fill="none" stroke="black"/>
<path d="M63.9961,51.213h -6.80315" fill="none" stroke="black"/>
<path d="M70.7992,42.6775h -13.6063" fill="none" stroke="black"/>
<text xml:space="preserve" x="31.4349" y="388.896" fill="black" font-size="14.2038" font-family="Helvetica">200</text>
<text xml:space="preserve" x="23.859" y="388.896" fill="black" font-size="14.2038" font-family="Times">&#8722;</text>
<text xml:space="preserve" x="31.4349" y="345.966" fill="black" font-size="14.2038" font-family="Helvetica">150</text>
<text xml:space="preserve" x="23.859" y="345.966" fill="black" font-size="14.2038" font-family="Times">&#8722;</text>
<text xml:space="preserve" x="31.4349" y="303.667" fill="black" font-size="14.2038" font-family="Helvetica">100</text>
<text xml:space="preserve" x="23.859" y="303.667" fill="black" font-size="14.2038" font-family="Times">&#8722;</text>
<text xml:space="preserve" x="39.0108" y="260.737" fill="black" font-size="14.2038" font-family="Helvetica">50</text>
<text xml:space="preserve" x="31.4349" y="260.737" fill="black" font-size="14.2038" font-family="Times">&#8722;</text>
<text xml:space="preserve" x="46.5867" y="218.438" fill="black" font-size="14.2038" font-family="Helvetica">0</text>
<text xml:space="preserve" x="39.0108" y="175.508" fill="black" font-size="14.2038" font-family="Helvetica">50</text>
<text xml:space="preserve" x="31.4349" y="132.578" fill="black" font-size="14.2038" font-family="Helvetica">100</text>
<text xml:space="preserve" x="31.4349" y="90.2794" fill="black" font-size="14.2038" font-family="Helvetica">150</text>
<text xml:space="preserve" x="31.4349" y="47.3493" fill="black" font-size="14.2038" font-family="Helvetica">200</text>
<g transform="rotate(-90,11.2325,189.397)">
<text xml:space="preserve" x="11.2325" y="189.397" fill="black" font-size="14.2038" font-family="Helvetica">Angle projection Y [deg]</text>
</g>
<g fill="#ff0000">
<circle cx="209.226" cy="167.381" r="2.5253"/>
<circle cx="395.568" cy="243.359" r="2.5253"/>
<circle cx="219.278" cy="189.232" r="2.5253"/>
<circle cx="332.167" cy="252.549" r="2.5253"/>
<circle cx="352.873" cy="170.81" r="2.5253"/>
<circle cx="338.542" cy="198.494" r="2.5253"/>
<circle cx="350.934" cy="226.561" r="2.5253"/>
<circle cx="394.714" cy="212.559" r="2.5253"/>
<circle cx="178.785" cy="253.235" r="2.5253"/>
<circle cx="261.777" cy="198.409" r="2.5253"/>
<circle cx="376.693" cy="215.503" r="2.5253"/>
<circle cx="274.852" cy="243.392" r="2.5253"/>
<circle cx="436.274" cy="224.805" r="2.5253"/>
<circle cx="422.349" cy="200.33" r="2.5253"/>
<circle cx="119.279" cy="237.932" r="2.5253"/>
<circle cx="424.174" cy="175.253" r="2.5253"/>
<circle cx="355.438" cy="238.646" r="2.5253"/>
<circle cx="411.644" cy="228.073" r="2.5253"/>
<circle cx="322.484" cy="230.361" r="2.5253"/>
<circle cx="131.622" cy="177.106" r="2.5253"/>
<circle cx="447.619" cy="216.49" r="2.5253"/>
<circle cx="390.9" cy="164.46" r="2.5253"/>
<circle cx="253.808" cy="250.73" r="2.5253"/>
<circle cx="384.958" cy="159.865" r="2.5253"/>
<circle cx="131.483" cy="202.99" r="2.5253"/>
<circle cx="107.116" cy="187.155" r="2.5253"/>
<circle cx="207.092" cy="278.731" r="2.5253"/>
<circle cx="126.568" cy="243.614" r="2.5253"/>
<circle cx="324.36" cy="183.569" r="2.5253"/>
<circle cx="240.309" cy="266.986" r="2.5253"/>
<circle cx="114.343" cy="182.061" r="2.5253"/>
<circle cx="425.035" cy="262.398" r="2.5253"/>
<circle cx="433.153" cy="173.349" r="2.5253"/>
<circle cx="435.507" cy="181.635" r="2.5253"/>
<circle cx="367.246" cy="259.216" r="2.5253"/>
<circle cx="157.881" cy="200.352" r="2.5253"/>
<circle cx="256.38" cy="211.723" r="2.5253"/>
<circle cx="200.605" cy="240.537" r="2.5253"/>
<circle cx="314.265" cy="233.238" r="2.5253"/>
<circle cx="91.8936" cy="214.378" r="2.5253"/>
<circle cx="303.614" cy="243.672" r="2.5253"/>
<circle cx="155.575" cy="239.934" r="2.5253"/>
<circle cx="181.582" cy="237.199" r="2.5253"/>
<circle cx="229.837" cy="199.125" r="2.5253"/>
<circle cx="168.708" cy="172.982" r="2.5253"/>
<circle cx="442.687" cy="221.115" r="2.5253"/>
<circle cx="237.719" cy="239.537" r="2.5253"/>
<circle cx="443.661" cy="170.048" r="2.5253"/>
<circle cx="150.975" cy="246.569" r="2.5253"/>
</g>
<g fill="#ff0000">
<circle cx="262.479" cy="255.329" r="2.5253"/>
<circle cx="109.104" cy="234.281" r="2.5253"/>
<circle cx="284.944" cy="139.088" r="2.5253"/>
<circle cx="307.427" cy="214.883" r="2.5253"/>
<circle cx="230.882" cy="256.766" r="2.5253"/>
<circle cx="335.62" cy="251.331" r="2.5253"/>
<circle cx="173.355" cy="175.645" r="2.5253"/>
<circle cx="104.956" cy="228.603" r="2.5253"/>
<circle cx="204.475" cy="270.547" r="2.5253"/>
<circle cx="150.135" cy="163.55" r="2.5253"/>
<circle cx="335.966" cy="144.567" r="2.5253"/>
<circle cx="354.236" cy="273.714" r="2.5253"/>
<circle cx="313.978" cy="189.531" r="2.5253"/>
<circle cx="192.79" cy="219.024" r="2.5253"/>
<circle cx="182.531" cy="261.605" r="2.5253"/>
<circle cx="235.573" cy="156.775" r="2.5253"/>
<circle cx="400.122" cy="270.568" r="2.5253"/>
<circle cx="236.133" cy="177.876" r="2.5253"/>
<circle cx="242.546" cy="226.97" r="2.5253"/>
<circle cx="289.708" cy="215.615" r="2.5253"/>
<circle cx="241.676" cy="171.116" r="2.5253"/>
<circle cx="470.66" cy="216.69" r="2.5253"/>
<circle cx="201.976" cy="145.855" r="2.5253"/>
<circle cx="117.38" cy="210.431" r="2.5253"/>
<circle cx="364.685" cy="247.245" r="2.5253"/>
<circle cx="192.88" cy="259.598" r="2.5253"/>
<circle cx="108.395" cy="199.517" r="2.5253"/>
<circle cx="414.11" cy="244.813" r="2.5253"/>
<circle cx="404.329" cy="233.731" r="2.5253"/>
<circle cx="303.305" cy="167.352" r="2.5253"/>
<circle cx="174.191" cy="231.163" r="2.5253"/>
<circle cx="235.263" cy="273.432" r="2.5253"/>
<circle cx="368.4" cy="178.733" r="2.5253"/>
<circle cx="253.978" cy="192.816" r="2.5253"/>
<circle cx="193.232" cy="231.853" r="2.5253"/>
<circle cx="87.4551" cy="234.08" r="2.5253"/>
<circle cx="236.942" cy="206.712" r="2.5253"/>
<circle cx="419.334" cy="237.5" r="2.5253"/>
<circle cx="413.969" cy="251.108" r="2.5253"/>
<circle cx="192.898" cy="251.058" r="2.5253"/>
<circle cx="337.012" cy="176.601" r="2.5253"/>
<circle cx="302.759" cy="164.223" r="2.5253"/>
<circle cx="422.987" cy="172.024" r="2.5253"/>
<circle cx="353.06" cy="196.919" r="2.5253"/>
<circle cx="279.069" cy="209.996" r="2.5253"/>
<circle cx="168.668" cy="165.938" r="2.5253"/>
<circle cx="255.985" cy="249.386" r="2.5253"/>
<circle cx="276.247" cy="170.022" r="2.5253"/>
<circle cx="467.57" cy="209.615" r="2.5253"/>
<circle cx="358.15" cy="158.227" r="2.5253"/>
<circle cx="409.706" cy="241.261" r="2.5253"/>
<circle cx="225.597" cy="150.942" r="2.5253"/>
<circle cx="290.194" cy="204.452" r="2.5253"/>
<circle cx="283.417" cy="280.754" r="2.5253"/>
<circle cx="357.741" cy="158.94" r="2.5253"/>
<circle cx="249.075" cy="226.671" r="2.5253"/>
<circle cx="200.728" cy="149.43" r="2.5253"/>
<circle cx="247.639" cy="141.236" r="2.5253"/>
<circle cx="416.228" cy="156.893" r="2.5253"/>
<circle cx="474.097" cy="205.442" r="2.5253"/>
<circle cx="468.144" cy="212.348" r="2.5253"/>
<circle cx="408.579" cy="191.087" r="2.5253"/>
<circle cx="212.911" cy="214.718" r="2.5253"/>
</g>
<g fill="#0000ff">
<circle cx="378.016" cy="164.922" r="2.5253"/>
<circle cx="119.298" cy="216.015" r="2.5253"/>
<circle cx="313.544" cy="275.133" r="2.5253"/>
<circle cx="352.193" cy="248.345" r="2.5253"/>
<circle cx="238.78" cy="276.774" r="2.5253"/>
<circle cx="275.001" cy="185.012" r="2.5253"/>
<circle cx="405.577" cy="183.275" r="2.5253"/>
<circle cx="319.255" cy="184.227" r="2.5253"/>
<circle cx="334.123" cy="188.324" r="2.5253"/>
<circle cx="222.251" cy="256.27" r="2.5253"/>
<circle cx="365.22" cy="198.484" r="2.5253"/>
<circle cx="254.888" cy="274.687" r="2.5253"/>
<circle cx="460.093" cy="239.424" r="2.5253"/>
<circle cx="381.532" cy="198.106" r="2.5253"/>
<circle cx="312.636" cy="209.912" r="2.5253"/>
<circle cx="329.424" cy="141.811" r="2.5253"/>
<circle cx="251.178" cy="241.313" r="2.5253"/>
<circle cx="396.331" cy="187.467" r="2.5253"/>
<circle cx="373.56" cy="212.483" r="2.5253"/>
<circle cx="215.434" cy="250.782" r="2.5253"/>
<circle cx="389.671" cy="226.488" r="2.5253"/>
<circle cx="463.778" cy="232.83" r="2.5253"/>
<circle cx="245.221" cy="254.999" r="2.5253"/>
<circle cx="207.976" cy="266.546" r="2.5253"/>
<circle cx="213.226" cy="192.792" r="2.5253"/>
<circle cx="433.142" cy="182.677" r="2.5253"/>
<circle cx="377.991" cy="199.437" r="2.5253"/>
<circle cx="266.269" cy="232.322" r="2.5253"/>
<circle cx="113.79" cy="249.224" r="2.5253"/>
<circle cx="407.985" cy="187.103" r="2.5253"/>
<circle cx="216.271" cy="178.484" r="2.5253"/>
<circle cx="387.021" cy="246.209" r="2.5253"/>
<circle cx="129.177" cy="199.269" r="2.5253"/>
<circle cx="210.482" cy="283.48" r="2.5253"/>
<circle cx="260.691" cy="249.723" r="2.5253"/>
<circle cx="179.073" cy="179.115" r="2.5253"/>
<circle cx="303.868" cy="238.927" r="2.5253"/>
<circle cx="205.204" cy="253.863" r="2.5253"/>
<circle cx="111.867" cy="172.698" r="2.5253"/>
<circle cx="223.488" cy="150.038" r="2.5253"/>
<circle cx="408.013" cy="202.859" r="2.5253"/>
<circle cx="396.753" cy="252.728" r="2.5253"/>
<circle cx="392.988" cy="256.14" r="2.5253"/>
<circle cx="444.665" cy="205.972" r="2.5253"/>
<circle cx="99.8246" cy="200.913" r="2.5253"/>
<circle cx="434.435" cy="251.942" r="2.5253"/>
<circle cx="165.798" cy="185.714" r="2.5253"/>
<circle cx="215.517" cy="244.831" r="2.5253"/>
<circle cx="179.363" cy="186.444" r="2.5253"/>
<circle cx="282.355" cy="163.22" r="2.5253"/>
<circle cx="251.42" cy="198.689" r="2.5253"/>
<circle cx="313.379" cy="170.951" r="2.5253"/>
<circle cx="359.131" cy="197.687" r="2.5253"/>
<circle cx="414.372" cy="175.763" r="2.5253"/>
<circle cx="452.971" cy="189.097" r="2.5253"/>
<circle cx="382.086" cy="237.939" r="2.5253"/>
<circle cx="311.406" cy="217.393" r="2.5253"/>
<circle cx="297.799" cy="199" r="2.5253"/>
<circle cx="354.357" cy="170.995" r="2.5253"/>
<circle cx="168.102" cy="167.116" r="2.5253"/>
<circle cx="394.568" cy="207.203" r="2.5253"/>
<circle cx="440.795" cy="254.298" r="2.5253"/>
<circle cx="330.813" cy="282.074" r="2.5253"/>
<circle cx="119.167" cy="232.105" r="2.5253"/>
<circle cx="307.682" cy="146.197" r="2.5253"/>
<circle cx="412.39" cy="194.362" r="2.5253"/>
<circle cx="210.507" cy="283.138" r="2.5253"/>
<circle cx="400.992" cy="218.282" r="2.5253"/>
<circle cx="382.266" cy="239.351" r="2.5253"/>
<circle cx="238.397" cy="202.768" r="2.5253"/>
<circle cx="395.726" cy="190.706" r="2.5253"/>
<circle cx="271.965" cy="261.003" r="2.5253"/>
<circle cx="154.854" cy="234.125" r="2.5253"/>
<circle cx="87.532" cy="201.791" r="2.5253"/>
<circle cx="366.017" cy="176.724" r="2.5253"/>
<circle cx="313.322" cy="220.836" r="2.5253"/>
<circle cx="211.201" cy="217.413" r="2.5253"/>
<circle cx="238.477" cy="193.095" r="2.5253"/>
<circle cx="399.03" cy="175.662" r="2.5253"/>
<circle cx="352.531" cy="180.682" r="2.5253"/>
<circle cx="234.257" cy="261.264" r="2.5253"/>
</g>
<g fill="#ffff00">
<circle cx="378.089" cy="258.818" r="2.5253"/>
<circle cx="140.335" cy="171.725" r="2.5253"/>
<circle cx="282.429" cy="264.898" r="2.5253"/>
<circle cx="144.798" cy="184.711" r="2.5253"/>
<circle cx="393.137" cy="195.606" r="2.5253"/>
<circle cx="290.301" cy="206.415" r="2.5253"/>
<circle cx="233.262" cy="285.393" r="2.5253"/>
<circle cx="406.237" cy="261.927" r="2.5253"/>
<circle cx="326.998" cy="270.428" r="2.5253"/>
<circle cx="419.541" cy="203.316" r="2.5253"/>
<circle cx="165.147" cy="162.202" r="2.5253"/>
<circle cx="271.971" cy="272.528" r="2.5253"/>
<circle cx="448.994" cy="258.063" r="2.5253"/>
<circle cx="453.098" cy="177.945" r="2.5253"/>
<circle cx="227.606" cy="238.889" r="2.5253"/>
<circle cx="239.108" cy="277.302" r="2.5253"/>
<circle cx="459.028" cy="209.385" r="2.5253"/>
<circle cx="316.651" cy="220.874" r="2.5253"/>
<circle cx="231.361" cy="226.638" r="2.5253"/>
<circle cx="335.883" cy="218.101" r="2.5253"/>
<circle cx="180.085" cy="273.71" r="2.5253"/>
<circle cx="364.872" cy="242.281" r="2.5253"/>
<circle cx="368.111" cy="217.5" r="2.5253"/>
<circle cx="167.708" cy="234.979" r="2.5253"/>
<circle cx="214.574" cy="183.484" r="2.5253"/>
<circle cx="365.178" cy="237.613" r="2.5253"/>
<circle cx="136.882" cy="200.02" r="2.5253"/>
<circle cx="257.922" cy="172.465" r="2.5253"/>
<circle cx="379.196" cy="215.912" r="2.5253"/>
<circle cx="217.859" cy="275.312" r="2.5253"/>
<circle cx="210.21" cy="230.56" r="2.5253"/>
<circle cx="194.849" cy="190.157" r="2.5253"/>
<circle cx="169.688" cy="198.574" r="2.5253"/>
<circle cx="102.2" cy="230.839" r="2.5253"/>
<circle cx="341.33" cy="238.651" r="2.5253"/>
<circle cx="375.212" cy="162.3" r="2.5253"/>
<circle cx="423.514" cy="246.108" r="2.5253"/>
<circle cx="191.327" cy="199.616" r="2.5253"/>
<circle cx="383.032" cy="274.533" r="2.5253"/>
<circle cx="228.47" cy="186.644" r="2.5253"/>
<circle cx="158.387" cy="232.372" r="2.5253"/>
<circle cx="247.626" cy="227.377" r="2.5253"/>
<circle cx="318.588" cy="256.674" r="2.5253"/>
<circle cx="240.652" cy="181.057" r="2.5253"/>
<circle cx="266.036" cy="186.658" r="2.5253"/>
<circle cx="270.448" cy="215.12" r="2.5253"/>
<circle cx="280.933" cy="168.766" r="2.5253"/>
<circle cx="312.824" cy="153.434" r="2.5253"/>
<circle cx="120.642" cy="261.684" r="2.5253"/>
<circle cx="361.68" cy="215.171" r="2.5253"/>
<circle cx="322.518" cy="145.927" r="2.5253"/>
<circle cx="366.517" cy="246.15" r="2.5253"/>
<circle cx="243.611" cy="268.148" r="2.5253"/>
<circle cx="441.14" cy="219.094" r="2.5253"/>
<circle cx="340.583" cy="259.28" r="2.5253"/>
<circle cx="288.21" cy="208.322" r="2.5253"/>
<circle cx="178.007" cy="160.222" r="2.5253"/>
<circle cx="169.978" cy="160.248" r="2.5253"/>
<circle cx="218.643" cy="238.101" r="2.5253"/>
<circle cx="201.974" cy="228.275" r="2.5253"/>
<circle cx="349.369" cy="159.663" r="2.5253"/>
<circle cx="395.7" cy="216.855" r="2.5253"/>
<circle cx="113.507" cy="212.284" r="2.5253"/>
<circle cx="241.138" cy="231.114" r="2.5253"/>
<circle cx="103.603" cy="205.176" r="2.5253"/>
<circle cx="317.072" cy="250.514" r="2.5253"/>
<circle cx="431.673" cy="181.551" r="2.5253"/>
<circle cx="340.715" cy="140.476" r="2.5253"/>
<circle cx="462.359" cy="230.07" r="2.5253"/>
<circle cx="467.022" cy="243.098" r="2.5253"/>
<circle cx="233.133" cy="272.886" r="2.5253"/>
<circle cx="119.606" cy="210.449" r="2.5253"/>
<circle cx="166.102" cy="207.978" r="2.5253"/>
<circle cx="394.081" cy="170.251" r="2.5253"/>
<circle cx="81.139" cy="220.352" r="2.5253"/>
<circle cx="403.764" cy="272.263" r="2.5253"/>
<circle cx="184.509" cy="154.796" r="2.5253"/>
<circle cx="168.838" cy="165.764" r="2.5253"/>
<circle cx="177.691" cy="192.6" r="2.5253"/>
<circle cx="277.289" cy="252.574" r="2.5253"/>
<circle cx="231.142" cy="181.073" r="2.5253"/>
<circle cx="172.076" cy="191.336" r="2.5253"/>
<circle cx="416.439" cy="203.001" r="2.5253"/>
<circle cx="256.039" cy="188.07" r="2.5253"/>
<circle cx="296.606" cy="185.898" r="2.5253"/>
<circle cx="313.028" cy="187.676" r="2.5253"/>
<circle cx="336.369" cy="189.824" r="2.5253"/>
<circle cx="338.619" cy="283.748" r="2.5253"/>
<circle cx="237.392" cy="156.45" r="2.5253"/>
<circle cx="411.245" cy="219.72" r="2.5253"/>
<circle cx="339.175" cy="149.25" r="2.5253"/>
<circle cx="370.627" cy="211.124" r="2.5253"/>
<circle cx="283.789" cy="172.899" r="2.5253"/>
<circle cx="175.085" cy="191.897" r="2.5253"/>
<circle cx="444.265" cy="205.374" r="2.5253"/>
<circle cx="116.275" cy="225.368" r="2.5253"/>
<circle cx="334.993" cy="236.833" r="2.5253"/>
<circle cx="319.891" cy="214.256" r="2.5253"/>
<circle cx="264.8" cy="175.442" r="2.5253"/>
<circle cx="458.888" cy="211.289" r="2.5253"/>
<circle cx="210.375" cy="162.955" r="2.5253"/>
<circle cx="172.669" cy="238.836" r="2.5253"/>
<circle cx="276.376" cy="234.611" r="2.5253"/>
<circle cx="265.179" cy="143.968" r="2.5253"/>
<circle cx="203.819" cy="271.898" r="2.5253"/>
<circle cx="284.814" cy="141.63" r="2.5253"/>
<circle cx="271.738" cy="152.777" r="2.5253"/>
<circle cx="395.022" cy="204.428" r="2.5253"/>
<circle cx="174.066" cy="235.032" r="2.5253"/>
<circle cx="466.768" cy="178.243" r="2.5253"/>
<circle cx="347.374" cy="176.764" r="2.5253"/>
<circle cx="319.385" cy="272.541" r="2.5253"/>
<circle cx="282.604" cy="267.845" r="2.5253"/>
<circle cx="91.7172" cy="187.861" r="2.5253"/>
<circle cx="117.559" cy="173.188" r="2.5253"/>
<circle cx="336.52" cy="194.871" r="2.5253"/>
<circle cx="123.578" cy="222.944" r="2.5253"/>
<circle cx="272.377" cy="147.048" r="2.5253"/>
<circle cx="223.477" cy="253.947" r="2.5253"/>
<circle cx="368.09" cy="190.79" r="2.5253"/>
<circle cx="393.493" cy="182.059" r="2.5253"/>
<circle cx="185.633" cy="165.014" r="2.5253"/>
<circle cx="456.968" cy="198.244" r="2.5253"/>
<circle cx="233.445" cy="144.318" r="2.5253"/>
<circle cx="328.854" cy="247.499" r="2.5253"/>
<circle cx="166.822" cy="257.769" r="2.5253"/>
<circle cx="476.308" cy="232.907" r="2.5253"/>
<circle cx="383.576" cy="275.467" r="2.5253"/>
<circle cx="319.718" cy="206.096" r="2.5253"/>
<circle cx="336.737" cy="271.577" r="2.5253"/>
<circle cx="313.988" cy="186.577" r="2.5253"/>
<circle cx="175.683" cy="218.772" r="2.5253"/>
<circle cx="235.732" cy="240.049" r="2.5253"/>
<circle cx="349.734" cy="187.783" r="2.5253"/>
<circle cx="108.54" cy="192.916" r="2.5253"/>
<circle cx="425.672" cy="176.121" r="2.5253"/>
<circle cx="93.8741" cy="230.584" r="2.5253"/>
<circle cx="288.295" cy="225.414" r="2.5253"/>
<circle cx="245.64" cy="154.633" r="2.5253"/>
<circle cx="328.203" cy="257.092" r="2.5253"/>
<circle cx="416.849" cy="204.98" r="2.5253"/>
<circle cx="377.99" cy="235.217" r="2.5253"/>
<circle cx="336.791" cy="181.283" r="2.5253"/>
<circle cx="370.301" cy="266.732" r="2.5253"/>
<circle cx="330.627" cy="273.705" r="2.5253"/>
<circle cx="480.568" cy="207.613" r="2.5253"/>
<circle cx="258.398" cy="166.771" r="2.5253"/>
<circle cx="320.407" cy="206.264" r="2.5253"/>
</g>
<g fill="#ffff00">
<circle cx="311.935" cy="221.661" r="2.5253"/>
<circle cx="144.592" cy="186.409" r="2.5253"/>
<circle cx="404.97" cy="181.753" r="2.5253"/>
<circle cx="182.435" cy="153.986" r="2.5253"/>
<circle cx="408.373" cy="202.113" r="2.5253"/>
<circle cx="225.075" cy="217.324" r="2.5253"/>
<circle cx="350.93" cy="180.098" r="2.5253"/>
<circle cx="282.78" cy="147.179" r="2.5253"/>
<circle cx="252.125" cy="277.838" r="2.5253"/>
<circle cx="398.797" cy="258.813" r="2.5253"/>
<circle cx="331.349" cy="246.61" r="2.5253"/>
<circle cx="372.513" cy="169.828" r="2.5253"/>
<circle cx="272.935" cy="261.99" r="2.5253"/>
<circle cx="80.0928" cy="211.083" r="2.5253"/>
<circle cx="457.922" cy="198.879" r="2.5253"/>
<circle cx="323.708" cy="195.437" r="2.5253"/>
<circle cx="472.38" cy="205.249" r="2.5253"/>
<circle cx="320.741" cy="193.515" r="2.5253"/>
<circle cx="259.625" cy="231.784" r="2.5253"/>
<circle cx="238.47" cy="250.487" r="2.5253"/>
<circle cx="276.425" cy="256.945" r="2.5253"/>
<circle cx="405.063" cy="265.442" r="2.5253"/>
<circle cx="195.192" cy="222.109" r="2.5253"/>
<circle cx="285.194" cy="182.671" r="2.5253"/>
<circle cx="119.972" cy="251.942" r="2.5253"/>
<circle cx="224.532" cy="229.425" r="2.5253"/>
<circle cx="122.406" cy="220.13" r="2.5253"/>
<circle cx="242.157" cy="216.701" r="2.5253"/>
<circle cx="331.192" cy="177.175" r="2.5253"/>
<circle cx="189.989" cy="271.724" r="2.5253"/>
<circle cx="292.253" cy="245.693" r="2.5253"/>
<circle cx="308.015" cy="168.945" r="2.5253"/>
<circle cx="443.485" cy="234.531" r="2.5253"/>
<circle cx="225.775" cy="228.091" r="2.5253"/>
<circle cx="240.509" cy="148.047" r="2.5253"/>
<circle cx="226.012" cy="271.755" r="2.5253"/>
<circle cx="308.809" cy="140.175" r="2.5253"/>
<circle cx="103.515" cy="201.971" r="2.5253"/>
<circle cx="232.379" cy="214.838" r="2.5253"/>
<circle cx="433.991" cy="233.965" r="2.5253"/>
<circle cx="164.781" cy="267.48" r="2.5253"/>
<circle cx="328.912" cy="176.685" r="2.5253"/>
<circle cx="461.549" cy="220.474" r="2.5253"/>
<circle cx="318.047" cy="244.66" r="2.5253"/>
<circle cx="276.102" cy="262.903" r="2.5253"/>
<circle cx="174.014" cy="276.212" r="2.5253"/>
<circle cx="183.897" cy="276.083" r="2.5253"/>
<circle cx="205.382" cy="173.117" r="2.5253"/>
<circle cx="175.138" cy="215.639" r="2.5253"/>
<circle cx="405.126" cy="157.151" r="2.5253"/>
<circle cx="305.266" cy="222.101" r="2.5253"/>
<circle cx="469.034" cy="226.778" r="2.5253"/>
<circle cx="298.148" cy="196.222" r="2.5253"/>
<circle cx="303.091" cy="262.883" r="2.5253"/>
<circle cx="317.233" cy="157.114" r="2.5253"/>
<circle cx="193.461" cy="202.719" r="2.5253"/>
<circle cx="430.058" cy="175.574" r="2.5253"/>
<circle cx="406.947" cy="230.257" r="2.5253"/>
<circle cx="345.692" cy="142.972" r="2.5253"/>
<circle cx="358.988" cy="205.257" r="2.5253"/>
<circle cx="223.516" cy="181.413" r="2.5253"/>
<circle cx="279.787" cy="143.718" r="2.5253"/>
<circle cx="351.679" cy="229.57" r="2.5253"/>
<circle cx="373.638" cy="167.654" r="2.5253"/>
<circle cx="162.989" cy="169.889" r="2.5253"/>
<circle cx="464.691" cy="242.48" r="2.5253"/>
<circle cx="226.938" cy="262.754" r="2.5253"/>
<circle cx="152.387" cy="215.848" r="2.5253"/>
<circle cx="233.076" cy="240.572" r="2.5253"/>
<circle cx="293.582" cy="270.008" r="2.5253"/>
<circle cx="263.232" cy="206.782" r="2.5253"/>
<circle cx="368.174" cy="170.13" r="2.5253"/>
<circle cx="336.487" cy="224.72" r="2.5253"/>
<circle cx="408.085" cy="158.143" r="2.5253"/>
<circle cx="376.185" cy="169.439" r="2.5253"/>
<circle cx="91.8704" cy="234.669" r="2.5253"/>
<circle cx="427.793" cy="165.107" r="2.5253"/>
<circle cx="259.51" cy="263.722" r="2.5253"/>
<circle cx="435.047" cy="177.059" r="2.5253"/>
<circle cx="327.556" cy="250.294" r="2.5253"/>
<circle cx="293.954" cy="268.791" r="2.5253"/>
<circle cx="459.498" cy="212.081" r="2.5253"/>
<circle cx="123.498" cy="247.44" r="2.5253"/>
<circle cx="317.866" cy="245.352" r="2.5253"/>
<circle cx="142.055" cy="235.377" r="2.5253"/>
<circle cx="205.617" cy="199.144" r="2.5253"/>
<circle cx="96.4792" cy="228.715" r="2.5253"/>
<circle cx="403.439" cy="193.075" r="2.5253"/>
<circle cx="313.382" cy="181.664" r="2.5253"/>
<circle cx="102.625" cy="218.05" r="2.5253"/>
<circle cx="370.486" cy="265.519" r="2.5253"/>
<circle cx="341.992" cy="141.595" r="2.5253"/>
<circle cx="183.209" cy="163.928" r="2.5253"/>
<circle cx="462.015" cy="178.01" r="2.5253"/>
<circle cx="227.651" cy="256.832" r="2.5253"/>
<circle cx="404.545" cy="262.766" r="2.5253"/>
<circle cx="354.019" cy="281.43" r="2.5253"/>
<circle cx="229.961" cy="161.595" r="2.5253"/>
<circle cx="210.049" cy="238.13" r="2.5253"/>
<circle cx="308.02" cy="229.293" r="2.5253"/>
<circle cx="149.059" cy="157.721" r="2.5253"/>
<circle cx="284.48" cy="212.033" r="2.5253"/>
<circle cx="219.12" cy="233.59" r="2.5253"/>
<circle cx="199.213" cy="215.296" r="2.5253"/>
<circle cx="175.271" cy="269.992" r="2.5253"/>
<circle cx="127.594" cy="216.911" r="2.5253"/>
<circle cx="250.197" cy="165.898" r="2.5253"/>
<circle cx="433.302" cy="250.5" r="2.5253"/>
<circle cx="304.252" cy="277.173" r="2.5253"/>
<circle cx="142.383" cy="173.033" r="2.5253"/>
<circle cx="208.432" cy="280.917" r="2.5253"/>
<circle cx="405.15" cy="166.175" r="2.5253"/>
<circle cx="190.921" cy="242.124" r="2.5253"/>
<circle cx="94.1557" cy="215.184" r="2.5253"/>
<circle cx="219.167" cy="205.739" r="2.5253"/>
<circle cx="362.772" cy="215.212" r="2.5253"/>
<circle cx="452.083" cy="192.344" r="2.5253"/>
<circle cx="335.616" cy="250.941" r="2.5253"/>
<circle cx="356.589" cy="253.139" r="2.5253"/>
<circle cx="343.886" cy="232.803" r="2.5253"/>
<circle cx="320.66" cy="159.972" r="2.5253"/>
<circle cx="221.139" cy="284.566" r="2.5253"/>
<circle cx="184.356" cy="231.469" r="2.5253"/>
<circle cx="148.946" cy="237.318" r="2.5253"/>
<circle cx="293.015" cy="271.349" r="2.5253"/>
<circle cx="393.746" cy="192.768" r="2.5253"/>
<circle cx="131.514" cy="219.811" r="2.5253"/>
<circle cx="233.313" cy="242.73" r="2.5253"/>
<circle cx="433.166" cy="236.33" r="2.5253"/>
<circle cx="302.276" cy="252.742" r="2.5253"/>
<circle cx="258.286" cy="181.627" r="2.5253"/>
<circle cx="189.468" cy="163.945" r="2.5253"/>
<circle cx="226.94" cy="260.224" r="2.5253"/>
<circle cx="363.871" cy="240.487" r="2.5253"/>
<circle cx="440.322" cy="257.654" r="2.5253"/>
<circle cx="338.518" cy="265.081" r="2.5253"/>
<circle cx="358.853" cy="167.749" r="2.5253"/>
<circle cx="463.153" cy="217.508" r="2.5253"/>
</g>
<g fill="black">
<circle cx="320.111" cy="177.957" r="2.5253"/>
<circle cx="287.471" cy="162.071" r="2.5253"/>
<circle cx="322.836" cy="267.791" r="2.5253"/>
<circle cx="187.471" cy="201.152" r="2.5253"/>
<circle cx="458.881" cy="199.211" r="2.5253"/>
<circle cx="279.296" cy="163.524" r="2.5253"/>
<circle cx="426.772" cy="203.08" r="2.5253"/>
<circle cx="113.129" cy="253.819" r="2.5253"/>
<circle cx="304.063" cy="190.433" r="2.5253"/>
<circle cx="323.381" cy="191.809" r="2.5253"/>
<circle cx="226.68" cy="283.491" r="2.5253"/>
<circle cx="381.174" cy="275.734" r="2.5253"/>
<circle cx="327.167" cy="265.442" r="2.5253"/>
<circle cx="195.916" cy="168.4" r="2.5253"/>
<circle cx="438.161" cy="198.533" r="2.5253"/>
<circle cx="371.949" cy="209.25" r="2.5253"/>
<circle cx="489.675" cy="218.853" r="2.5253"/>
<circle cx="226.208" cy="286.642" r="2.5253"/>
<circle cx="345.078" cy="279.61" r="2.5253"/>
<circle cx="325.377" cy="227.878" r="2.5253"/>
<circle cx="248.018" cy="275.956" r="2.5253"/>
<circle cx="138.625" cy="219.509" r="2.5253"/>
<circle cx="358.686" cy="151.363" r="2.5253"/>
<circle cx="142.67" cy="216.8" r="2.5253"/>
<circle cx="182.497" cy="190.301" r="2.5253"/>
<circle cx="439.391" cy="217.979" r="2.5253"/>
<circle cx="446.202" cy="212.421" r="2.5253"/>
<circle cx="224.235" cy="170.36" r="2.5253"/>
<circle cx="470.112" cy="230.221" r="2.5253"/>
<circle cx="318.748" cy="144.869" r="2.5253"/>
<circle cx="152.65" cy="161.291" r="2.5253"/>
<circle cx="447.444" cy="254.678" r="2.5253"/>
<circle cx="142.605" cy="208.683" r="2.5253"/>
<circle cx="233.728" cy="272.276" r="2.5253"/>
<circle cx="246.752" cy="175.312" r="2.5253"/>
<circle cx="249.991" cy="281.807" r="2.5253"/>
<circle cx="139.946" cy="236.234" r="2.5253"/>
<circle cx="192.487" cy="231.65" r="2.5253"/>
<circle cx="263.179" cy="198.588" r="2.5253"/>
<circle cx="459.643" cy="214.338" r="2.5253"/>
<circle cx="461.638" cy="222.151" r="2.5253"/>
<circle cx="292.643" cy="273.689" r="2.5253"/>
<circle cx="244.922" cy="278.593" r="2.5253"/>
<circle cx="113.109" cy="250.486" r="2.5253"/>
<circle cx="216.021" cy="214.297" r="2.5253"/>
<circle cx="203.599" cy="259.941" r="2.5253"/>
<circle cx="240.724" cy="250.111" r="2.5253"/>
<circle cx="405.053" cy="207.103" r="2.5253"/>
<circle cx="332.119" cy="231.62" r="2.5253"/>
<circle cx="273.203" cy="158.474" r="2.5253"/>
<circle cx="394.646" cy="169.936" r="2.5253"/>
<circle cx="80.1023" cy="210.084" r="2.5253"/>
<circle cx="457.348" cy="213.532" r="2.5253"/>
<circle cx="358.051" cy="245.799" r="2.5253"/>
<circle cx="92.5637" cy="222.641" r="2.5253"/>
<circle cx="307.809" cy="223.815" r="2.5253"/>
<circle cx="398.252" cy="153.238" r="2.5253"/>
<circle cx="233.768" cy="236.36" r="2.5253"/>
<circle cx="335.858" cy="247.79" r="2.5253"/>
<circle cx="233.071" cy="183.032" r="2.5253"/>
<circle cx="259.667" cy="223.925" r="2.5253"/>
<circle cx="333.882" cy="265.577" r="2.5253"/>
<circle cx="276.761" cy="184.605" r="2.5253"/>
<circle cx="478.529" cy="200.847" r="2.5253"/>
<circle cx="283.42" cy="182.269" r="2.5253"/>
<circle cx="334.464" cy="211.54" r="2.5253"/>
<circle cx="126.01" cy="258.532" r="2.5253"/>
<circle cx="307.832" cy="235.306" r="2.5253"/>
<circle cx="345.821" cy="263.87" r="2.5253"/>
<circle cx="239.212" cy="260.838" r="2.5253"/>
<circle cx="316.912" cy="165.844" r="2.5253"/>
<circle cx="481.338" cy="198.346" r="2.5253"/>
<circle cx="403.335" cy="188.687" r="2.5253"/>
<circle cx="283.227" cy="149.287" r="2.5253"/>
<circle cx="433.8" cy="241.028" r="2.5253"/>
<circle cx="195.384" cy="249.465" r="2.5253"/>
<circle cx="121.83" cy="195.6" r="2.5253"/>
<circle cx="349.007" cy="229.743" r="2.5253"/>
<circle cx="183.051" cy="206.008" r="2.5253"/>
<circle cx="271.511" cy="232.745" r="2.5253"/>
<circle cx="413.712" cy="194.042" r="2.5253"/>
<circle cx="468.27" cy="221.666" r="2.5253"/>
<circle cx="296.732" cy="155.534" r="2.5253"/>
<circle cx="107.879" cy="252.808" r="2.5253"/>
<circle cx="330.17" cy="212.743" r="2.5253"/>
<circle cx="330.221" cy="274.305" r="2.5253"/>
<circle cx="199.464" cy="243.419" r="2.5253"/>
<circle cx="340.13" cy="270.726" r="2.5253"/>
<circle cx="421.756" cy="206.598" r="2.5253"/>
<circle cx="257.615" cy="253.452" r="2.5253"/>
<circle cx="192.143" cy="175.729" r="2.5253"/>
<circle cx="379.49" cy="242.282" r="2.5253"/>
<circle cx="454.372" cy="251.824" r="2.5253"/>
<circle cx="450.871" cy="219.906" r="2.5253"/>
<circle cx="260.924" cy="238.781" r="2.5253"/>
<circle cx="158.852" cy="262.258" r="2.5253"/>
<circle cx="250.786" cy="235.523" r="2.5253"/>
<circle cx="308.909" cy="243.096" r="2.5253"/>
<circle cx="156.925" cy="244.494" r="2.5253"/>
<circle cx="168.871" cy="189.417" r="2.5253"/>
<circle cx="256.203" cy="246.675" r="2.5253"/>
<circle cx="244.081" cy="202.357" r="2.5253"/>
<circle cx="91.4834" cy="186.34" r="2.5253"/>
<circle cx="363.554" cy="267.364" r="2.5253"/>
<circle cx="341.034" cy="187.334" r="2.5253"/>
<circle cx="88.2252" cy="226.525" r="2.5253"/>
<circle cx="223.419" cy="251.436" r="2.5253"/>
<circle cx="189.329" cy="256.742" r="2.5253"/>
<circle cx="326.626" cy="228.968" r="2.5253"/>
<circle cx="272.157" cy="142.628" r="2.5253"/>
<circle cx="323.946" cy="204.541" r="2.5253"/>
<circle cx="406.616" cy="165.758" r="2.5253"/>
<circle cx="222.825" cy="189.228" r="2.5253"/>
<circle cx="204.778" cy="169.713" r="2.5253"/>
<circle cx="313.03" cy="145.966" r="2.5253"/>
<circle cx="345.771" cy="256.961" r="2.5253"/>
<circle cx="199.592" cy="177.492" r="2.5253"/>
<circle cx="258.674" cy="219.913" r="2.5253"/>
<circle cx="442.32" cy="233.102" r="2.5253"/>
<circle cx="173.699" cy="251.158" r="2.5253"/>
<circle cx="394.044" cy="175.842" r="2.5253"/>
<circle cx="150.711" cy="259.976" r="2.5253"/>
<circle cx="142.6" cy="181.448" r="2.5253"/>
<circle cx="323.974" cy="178.566" r="2.5253"/>
<circle cx="402.95" cy="260.106" r="2.5253"/>
<circle cx="194.89" cy="190.082" r="2.5253"/>
<circle cx="210.737" cy="258.445" r="2.5253"/>
<circle cx="296.619" cy="160.565" r="2.5253"/>
<circle cx="215.603" cy="229.988" r="2.5253"/>
<circle cx="254.563" cy="271.336" r="2.5253"/>
<circle cx="382.13" cy="170.9" r="2.5253"/>
<circle cx="284.075" cy="262.37" r="2.5253"/>
<circle cx="237.617" cy="236.561" r="2.5253"/>
<circle cx="349.714" cy="215.145" r="2.5253"/>
<circle cx="307.66" cy="168.009" r="2.5253"/>
<circle cx="369.968" cy="191.606" r="2.5253"/>
<circle cx="160.812" cy="199.322" r="2.5253"/>
<circle cx="250.981" cy="225.931" r="2.5253"/>
<circle cx="354.744" cy="252.059" r="2.5253"/>
<circle cx="354.969" cy="208.319" r="2.5253"/>
<circle cx="128.083" cy="195.024" r="2.5253"/>
<circle cx="314.897" cy="267.867" r="2.5253"/>
<circle cx="346.696" cy="207.067" r="2.5253"/>
<circle cx="295.681" cy="250.432" r="2.5253"/>
<circle cx="144.873" cy="198.348" r="2.5253"/>
<circle cx="275.812" cy="266.454" r="2.5253"/>
<circle cx="333.085" cy="152.214" r="2.5253"/>
<circle cx="450.948" cy="252.122" r="2.5253"/>
<circle cx="244.988" cy="279.07" r="2.5253"/>
<circle cx="420.381" cy="173.529" r="2.5253"/>
<circle cx="86.3608" cy="192.188" r="2.5253"/>
<circle cx="323.981" cy="186.066" r="2.5253"/>
<circle cx="348.57" cy="181.661" r="2.5253"/>
<circle cx="216.93" cy="148.546" r="2.5253"/>
<circle cx="366.233" cy="233.315" r="2.5253"/>
<circle cx="222.126" cy="242.027" r="2.5253"/>
<circle cx="378.287" cy="173.098" r="2.5253"/>
<circle cx="174.125" cy="167.241" r="2.5253"/>
<circle cx="268.249" cy="209.242" r="2.5253"/>
<circle cx="346.252" cy="270.414" r="2.5253"/>
<circle cx="180.242" cy="193.503" r="2.5253"/>
<circle cx="169.967" cy="169.445" r="2.5253"/>
<circle cx="214.61" cy="285.693" r="2.5253"/>
<circle cx="217.365" cy="267.975" r="2.5253"/>
<circle cx="389.529" cy="223.925" r="2.5253"/>
<circle cx="289.719" cy="146.516" r="2.5253"/>
<circle cx="210.851" cy="200.233" r="2.5253"/>
<circle cx="353.923" cy="270.421" r="2.5253"/>
<circle cx="204.615" cy="192.11" r="2.5253"/>
<circle cx="442.363" cy="207.667" r="2.5253"/>
<circle cx="360.426" cy="220.155" r="2.5253"/>
<circle cx="420.682" cy="239.265" r="2.5253"/>
<circle cx="443.709" cy="209.556" r="2.5253"/>
<circle cx="434.693" cy="186.881" r="2.5253"/>
<circle cx="259.116" cy="184.474" r="2.5253"/>
<circle cx="172.257" cy="240.63" r="2.5253"/>
<circle cx="208.106" cy="201.355" r="2.5253"/>
<circle cx="97.9862" cy="243.965" r="2.5253"/>
<circle cx="191.269" cy="233.873" r="2.5253"/>
<circle cx="349.952" cy="144.29" r="2.5253"/>
<circle cx="92.9355" cy="196.559" r="2.5253"/>
<circle cx="211.133" cy="253.716" r="2.5253"/>
<circle cx="400.573" cy="266.073" r="2.5253"/>
<circle cx="234.365" cy="175.913" r="2.5253"/>
<circle cx="147.694" cy="182.334" r="2.5253"/>
<circle cx="248.126" cy="220.119" r="2.5253"/>
<circle cx="153.228" cy="218.945" r="2.5253"/>
<circle cx="230.497" cy="224.007" r="2.5253"/>
<circle cx="237.059" cy="239.212" r="2.5253"/>
<circle cx="130.126" cy="163.276" r="2.5253"/>
<circle cx="194.815" cy="233.472" r="2.5253"/>
<circle cx="221.852" cy="187.296" r="2.5253"/>
<circle cx="261.435" cy="265.45" r="2.5253"/>
<circle cx="385.38" cy="188.657" r="2.5253"/>
<circle cx="483.672" cy="203.672" r="2.5253"/>
<circle cx="261.3" cy="229.68" r="2.5253"/>
<circle cx="167.07" cy="170.49" r="2.5253"/>
<circle cx="288.244" cy="163.508" r="2.5253"/>
<circle cx="87.877" cy="228.281" r="2.5253"/>
<circle cx="321.002" cy="185.15" r="2.5253"/>
<circle cx="257.596" cy="151.161" r="2.5253"/>
<circle cx="206.274" cy="226.285" r="2.5253"/>
<circle cx="373.501" cy="183.137" r="2.5253"/>
<circle cx="446.641" cy="223.707" r="2.5253"/>
<circle cx="489.418" cy="220.239" r="2.5253"/>
<circle cx="120.378" cy="229.422" r="2.5253"/>
<circle cx="117.592" cy="176.226" r="2.5253"/>
<circle cx="342.46" cy="176.095" r="2.5253"/>
<circle cx="356.846" cy="248.205" r="2.5253"/>
<circle cx="420.576" cy="228.807" r="2.5253"/>
<circle cx="429.169" cy="166.289" r="2.5253"/>
<circle cx="389.466" cy="150.681" r="2.5253"/>
<circle cx="234.969" cy="191.203" r="2.5253"/>
<circle cx="390.889" cy="195.012" r="2.5253"/>
<circle cx="332.769" cy="287.04" r="2.5253"/>
<circle cx="182.993" cy="254.738" r="2.5253"/>
<circle cx="168.147" cy="243.257" r="2.5253"/>
<circle cx="421.389" cy="267.853" r="2.5253"/>
<circle cx="380.3" cy="273.326" r="2.5253"/>
<circle cx="232.934" cy="210.463" r="2.5253"/>
<circle cx="306.297" cy="203.536" r="2.5253"/>
<circle cx="222.26" cy="234.754" r="2.5253"/>
<circle cx="106.894" cy="215.793" r="2.5253"/>
<circle cx="353.541" cy="206.616" r="2.5253"/>
<circle cx="232.492" cy="214.816" r="2.5253"/>
<circle cx="160.346" cy="258.219" r="2.5253"/>
<circle cx="271.019" cy="223.091" r="2.5253"/>
<circle cx="278.828" cy="140.246" r="2.5253"/>
<circle cx="194.368" cy="209.879" r="2.5253"/>
<circle cx="122.69" cy="229.365" r="2.5253"/>
<circle cx="179.646" cy="178.809" r="2.5253"/>
<circle cx="293.446" cy="284.483" r="2.5253"/>
<circle cx="210.997" cy="227.466" r="2.5253"/>
<circle cx="366.387" cy="180.425" r="2.5253"/>
<circle cx="208.014" cy="263.609" r="2.5253"/>
<circle cx="202.951" cy="250.374" r="2.5253"/>
<circle cx="384.591" cy="238.709" r="2.5253"/>
<circle cx="398.321" cy="272.848" r="2.5253"/>
<circle cx="150.233" cy="196.066" r="2.5253"/>
<circle cx="445.88" cy="252.856" r="2.5253"/>
<circle cx="310.511" cy="223.411" r="2.5253"/>
<circle cx="78.2538" cy="200.226" r="2.5253"/>
<circle cx="160.89" cy="182.916" r="2.5253"/>
<circle cx="131.355" cy="178.906" r="2.5253"/>
<circle cx="362.006" cy="208.916" r="2.5253"/>
<circle cx="285.918" cy="225.586" r="2.5253"/>
<circle cx="344.96" cy="192.458" r="2.5253"/>
<circle cx="232.574" cy="182.102" r="2.5253"/>
<circle cx="418.547" cy="220.107" r="2.5253"/>
<circle cx="156.773" cy="181.852" r="2.5253"/>
<circle cx="176.17" cy="181.392" r="2.5253"/>
<circle cx="321.648" cy="204.49" r="2.5253"/>
<circle cx="371.241" cy="225.093" r="2.5253"/>
<circle cx="171.491" cy="222.71" r="2.5253"/>
<circle cx="347.872" cy="199.614" r="2.5253"/>
<circle cx="108.647" cy="206.735" r="2.5253"/>
<circle cx="295.64" cy="177.434" r="2.5253"/>
<circle cx="106.984" cy="194.58" r="2.5253"/>
<circle cx="481.32" cy="214.296" r="2.5253"/>
<circle cx="148.072" cy="163.545" r="2.5253"/>
<circle cx="263.509" cy="206.186" r="2.5253"/>
<circle cx="199.107" cy="263.254" r="2.5253"/>
<circle cx="153.483" cy="206.036" r="2.5253"/>
<circle cx="470.873" cy="186.748" r="2.5253"/>
<circle cx="327.052" cy="233.111" r="2.5253"/>
<circle cx="117.504" cy="181.256" r="2.5253"/>
<circle cx="436.101" cy="261.486" r="2.5253"/>
<circle cx="337.2" cy="246.393" r="2.5253"/>
<circle cx="416.266" cy="165.85" r="2.5253"/>
<circle cx="258.675" cy="148.264" r="2.5253"/>
<circle cx="397.847" cy="202.178" r="2.5253"/>
<circle cx="376.459" cy="266.867" r="2.5253"/>
<circle cx="342.394" cy="151.77" r="2.5253"/>
<circle cx="115.622" cy="206.336" r="2.5253"/>
<circle cx="382.087" cy="222.928" r="2.5253"/>
<circle cx="365.733" cy="250.701" r="2.5253"/>
<circle cx="370.166" cy="195.355" r="2.5253"/>
<circle cx="264.392" cy="192.147" r="2.5253"/>
<circle cx="333.355" cy="195.236" r="2.5253"/>
<circle cx="227.618" cy="278.425" r="2.5253"/>
<circle cx="151.231" cy="173.147" r="2.5253"/>
<circle cx="451.666" cy="221.846" r="2.5253"/>
<circle cx="165.605" cy="181.008" r="2.5253"/>
<circle cx="127.321" cy="253.427" r="2.5253"/>
<circle cx="466.322" cy="227.351" r="2.5253"/>
<circle cx="179.196" cy="213.508" r="2.5253"/>
<circle cx="429.37" cy="240.638" r="2.5253"/>
<circle cx="210.694" cy="250.938" r="2.5253"/>
<circle cx="122.898" cy="258.731" r="2.5253"/>
<circle cx="436.014" cy="193.642" r="2.5253"/>
<circle cx="240.495" cy="260.224" r="2.5253"/>
<circle cx="236.834" cy="150.606" r="2.5253"/>
<circle cx="359.65" cy="221.902" r="2.5253"/>
<circle cx="179.755" cy="161.062" r="2.5253"/>
<circle cx="365.494" cy="236.853" r="2.5253"/>
<circle cx="182.205" cy="238.502" r="2.5253"/>
<circle cx="248.356" cy="206.516" r="2.5253"/>
<circle cx="122.007" cy="232.748" r="2.5253"/>
<circle cx="246.457" cy="257.905" r="2.5253"/>
<circle cx="176.536" cy="186.431" r="2.5253"/>
<circle cx="384.987" cy="203.722" r="2.5253"/>
<circle cx="373.473" cy="240.664" r="2.5253"/>
<circle cx="376.69" cy="253.915" r="2.5253"/>
<circle cx="118.022" cy="209.825" r="2.5253"/>
<circle cx="234.792" cy="204.738" r="2.5253"/>
<circle cx="200.737" cy="270.135" r="2.5253"/>
<circle cx="200.351" cy="191.227" r="2.5253"/>
<circle cx="236.172" cy="252.824" r="2.5253"/>
<circle cx="419.671" cy="180.929" r="2.5253"/>
<circle cx="291.428" cy="220.669" r="2.5253"/>
<circle cx="240.753" cy="172.292" r="2.5253"/>
<circle cx="182.669" cy="217.032" r="2.5253"/>
<circle cx="255.579" cy="207.464" r="2.5253"/>
<circle cx="243.129" cy="208.533" r="2.5253"/>
<circle cx="124.319" cy="168.981" r="2.5253"/>
<circle cx="345.564" cy="213.794" r="2.5253"/>
<circle cx="359.25" cy="148.671" r="2.5253"/>
<circle cx="263.96" cy="143.323" r="2.5253"/>
<circle cx="471.895" cy="211.525" r="2.5253"/>
<circle cx="260.762" cy="189.062" r="2.5253"/>
<circle cx="123.472" cy="242.607" r="2.5253"/>
<circle cx="424.883" cy="228.552" r="2.5253"/>
<circle cx="256.101" cy="186.938" r="2.5253"/>
<circle cx="368.653" cy="151.976" r="2.5253"/>
<circle cx="448.828" cy="190.056" r="2.5253"/>
<circle cx="218.371" cy="274.03" r="2.5253"/>
<circle cx="330.569" cy="263.717" r="2.5253"/>
<circle cx="95.4046" cy="182.277" r="2.5253"/>
<circle cx="151.655" cy="245.689" r="2.5253"/>
<circle cx="396.103" cy="206.821" r="2.5253"/>
<circle cx="285.817" cy="188.839" r="2.5253"/>
<circle cx="153.122" cy="168.814" r="2.5253"/>
<circle cx="375.443" cy="249.007" r="2.5253"/>
<circle cx="243.258" cy="285.552" r="2.5253"/>
<circle cx="283.909" cy="151.103" r="2.5253"/>
<circle cx="326.66" cy="177.166" r="2.5253"/>
<circle cx="200.632" cy="150.604" r="2.5253"/>
<circle cx="266.158" cy="177.402" r="2.5253"/>
<circle cx="275.679" cy="164.284" r="2.5253"/>
<circle cx="142.839" cy="237.834" r="2.5253"/>
<circle cx="303.047" cy="287.263" r="2.5253"/>
<circle cx="293.798" cy="217.1" r="2.5253"/>
<circle cx="98.9254" cy="223.281" r="2.5253"/>
<circle cx="207.362" cy="217.849" r="2.5253"/>
<circle cx="355.851" cy="283.424" r="2.5253"/>
<circle cx="179.046" cy="155.08" r="2.5253"/>
<circle cx="382.915" cy="233.354" r="2.5253"/>
<circle cx="254.039" cy="250.657" r="2.5253"/>
<circle cx="111.91" cy="193.292" r="2.5253"/>
<circle cx="212.445" cy="217.448" r="2.5253"/>
<circle cx="132.499" cy="175.055" r="2.5253"/>
<circle cx="357.651" cy="247.378" r="2.5253"/>
<circle cx="457.03" cy="174.615" r="2.5253"/>
<circle cx="456.834" cy="179.889" r="2.5253"/>
<circle cx="333.076" cy="230.269" r="2.5253"/>
<circle cx="183.918" cy="237.352" r="2.5253"/>
<circle cx="338.202" cy="159.882" r="2.5253"/>
<circle cx="238.462" cy="223.019" r="2.5253"/>
<circle cx="80.5392" cy="214.947" r="2.5253"/>
<circle cx="127.946" cy="208.338" r="2.5253"/>
<circle cx="437.131" cy="171.043" r="2.5253"/>
<circle cx="301.319" cy="152.854" r="2.5253"/>
<circle cx="345.473" cy="272.88" r="2.5253"/>
<circle cx="280.347" cy="179.282" r="2.5253"/>
<circle cx="245.366" cy="210.222" r="2.5253"/>
<circle cx="438.034" cy="172.786" r="2.5253"/>
<circle cx="213.657" cy="192.603" r="2.5253"/>
<circle cx="147.131" cy="212.263" r="2.5253"/>
<circle cx="364.622" cy="186.054" r="2.5253"/>
<circle cx="131.137" cy="230.225" r="2.5253"/>
<circle cx="413.663" cy="227.228" r="2.5253"/>
<circle cx="134.392" cy="219.082" r="2.5253"/>
<circle cx="297.81" cy="277.378" r="2.5253"/>
<circle cx="347.603" cy="168.693" r="2.5253"/>
<circle cx="391.917" cy="186.12" r="2.5253"/>
<circle cx="339.861" cy="247.021" r="2.5253"/>
<circle cx="452.127" cy="246.202" r="2.5253"/>
<circle cx="300.284" cy="205.914" r="2.5253"/>
<circle cx="283.249" cy="255.987" r="2.5253"/>
<circle cx="216.514" cy="215.521" r="2.5253"/>
<circle cx="248.379" cy="207.059" r="2.5253"/>
<circle cx="233.432" cy="247.158" r="2.5253"/>
<circle cx="172.073" cy="243" r="2.5253"/>
<circle cx="283.633" cy="158.59" r="2.5253"/>
<circle cx="186.425" cy="246.296" r="2.5253"/>
<circle cx="406.157" cy="201.205" r="2.5253"/>
<circle cx="472.27" cy="198.783" r="2.5253"/>
<circle cx="83.4257" cy="213.425" r="2.5253"/>
<circle cx="312.569" cy="223.571" r="2.5253"/>
<circle cx="248.189" cy="205.956" r="2.5253"/>
<circle cx="424.89" cy="254.821" r="2.5253"/>
<circle cx="452.908" cy="227.92" r="2.5253"/>
<circle cx="416.098" cy="172.474" r="2.5253"/>
<circle cx="248.56" cy="188.776" r="2.5253"/>
<circle cx="221.821" cy="211.07" r="2.5253"/>
<circle cx="191.595" cy="194.028" r="2.5253"/>
<circle cx="139.577" cy="193.974" r="2.5253"/>
<circle cx="360.46" cy="228.724" r="2.5253"/>
<circle cx="298.948" cy="239.098" r="2.5253"/>
<circle cx="190.645" cy="230.644" r="2.5253"/>
<circle cx="277.144" cy="271.519" r="2.5253"/>
<circle cx="273.07" cy="284.661" r="2.5253"/>
<circle cx="164.901" cy="237.011" r="2.5253"/>
<circle cx="394.912" cy="197.949" r="2.5253"/>
<circle cx="386.325" cy="207.895" r="2.5253"/>
<circle cx="378.044" cy="213.369" r="2.5253"/>
<circle cx="435.347" cy="191.166" r="2.5253"/>
<circle cx="321.928" cy="161.548" r="2.5253"/>
<circle cx="237.34" cy="255.701" r="2.5253"/>
<circle cx="319.881" cy="233.586" r="2.5253"/>
<circle cx="249.838" cy="213.299" r="2.5253"/>
<circle cx="305.682" cy="212.906" r="2.5253"/>
<circle cx="194.318" cy="200.918" r="2.5253"/>
<circle cx="220.522" cy="213.781" r="2.5253"/>
<circle cx="286.212" cy="231.365" r="2.5253"/>
<circle cx="453.383" cy="185.224" r="2.5253"/>
<circle cx="273.005" cy="247.536" r="2.5253"/>
<circle cx="410.111" cy="266.138" r="2.5253"/>
<circle cx="382.226" cy="268.63" r="2.5253"/>
<circle cx="451.156" cy="251.341" r="2.5253"/>
<circle cx="221.008" cy="258.508" r="2.5253"/>
<circle cx="357.828" cy="235.825" r="2.5253"/>
<circle cx="195.7" cy="168.974" r="2.5253"/>
<circle cx="446.848" cy="184.006" r="2.5253"/>
<circle cx="222.402" cy="147.232" r="2.5253"/>
<circle cx="353.485" cy="199.303" r="2.5253"/>
<circle cx="145.452" cy="175.493" r="2.5253"/>
<circle cx="137.025" cy="193.999" r="2.5253"/>
<circle cx="414.35" cy="265.211" r="2.5253"/>
<circle cx="109.983" cy="185.499" r="2.5253"/>
<circle cx="112.784" cy="205.988" r="2.5253"/>
<circle cx="224.254" cy="254.007" r="2.5253"/>
<circle cx="367.178" cy="198.619" r="2.5253"/>
<circle cx="310.585" cy="224.097" r="2.5253"/>
<circle cx="156.476" cy="242.447" r="2.5253"/>
<circle cx="111.65" cy="232.933" r="2.5253"/>
<circle cx="343.975" cy="201.154" r="2.5253"/>
<circle cx="310.06" cy="255.941" r="2.5253"/>
<circle cx="197.432" cy="149.747" r="2.5253"/>
<circle cx="142.748" cy="261.117" r="2.5253"/>
<circle cx="283.657" cy="186.112" r="2.5253"/>
<circle cx="322.369" cy="217.396" r="2.5253"/>
<circle cx="465.462" cy="210.818" r="2.5253"/>
<circle cx="346.047" cy="187.15" r="2.5253"/>
<circle cx="385.312" cy="193.928" r="2.5253"/>
<circle cx="129.648" cy="177.41" r="2.5253"/>
<circle cx="337.955" cy="211.616" r="2.5253"/>
<circle cx="264.659" cy="180.598" r="2.5253"/>
<circle cx="236.256" cy="270.373" r="2.5253"/>
<circle cx="257.243" cy="160.96" r="2.5253"/>
<circle cx="169.386" cy="184.716" r="2.5253"/>
<circle cx="118.476" cy="208.225" r="2.5253"/>
<circle cx="290.996" cy="206.444" r="2.5253"/>
<circle cx="369.079" cy="238.177" r="2.5253"/>
<circle cx="240.812" cy="288.127" r="2.5253"/>
<circle cx="402.049" cy="224.791" r="2.5253"/>
<circle cx="236.901" cy="286.448" r="2.5253"/>
<circle cx="340.41" cy="262.919" r="2.5253"/>
<circle cx="388.417" cy="239.29" r="2.5253"/>
<circle cx="230.707" cy="231.312" r="2.5253"/>
<circle cx="443.985" cy="187.26" r="2.5253"/>
<circle cx="224.216" cy="197.509" r="2.5253"/>
<circle cx="313.38" cy="164.564" r="2.5253"/>
<circle cx="431.282" cy="250.501" r="2.5253"/>
<circle cx="306.834" cy="265.186" r="2.5253"/>
<circle cx="101.42" cy="229.178" r="2.5253"/>
<circle cx="205.753" cy="209.087" r="2.5253"/>
<circle cx="292.638" cy="159.967" r="2.5253"/>
<circle cx="413.362" cy="186.425" r="2.5253"/>
<circle cx="137.478" cy="236.213" r="2.5253"/>
<circle cx="249.446" cy="210.436" r="2.5253"/>
<circle cx="176.69" cy="185.671" r="2.5253"/>
<circle cx="216.045" cy="221.733" r="2.5253"/>
<circle cx="221.913" cy="243.633" r="2.5253"/>
<circle cx="250.04" cy="189.899" r="2.5253"/>
<circle cx="452.617" cy="199.668" r="2.5253"/>
<circle cx="386.748" cy="256.339" r="2.5253"/>
<circle cx="131.54" cy="205.633" r="2.5253"/>
<circle cx="379.647" cy="198.648" r="2.5253"/>
<circle cx="370.548" cy="148.504" r="2.5253"/>
<circle cx="411.526" cy="175.973" r="2.5253"/>
<circle cx="335.666" cy="194.009" r="2.5253"/>
<circle cx="430.765" cy="188.441" r="2.5253"/>
<circle cx="396.034" cy="198.892" r="2.5253"/>
<circle cx="134.434" cy="221.76" r="2.5253"/>
<circle cx="240.3" cy="260.475" r="2.5253"/>
<circle cx="238.339" cy="258.579" r="2.5253"/>
<circle cx="327.492" cy="173.611" r="2.5253"/>
<circle cx="277.252" cy="152.244" r="2.5253"/>
<circle cx="454.315" cy="213.688" r="2.5253"/>
<circle cx="204.26" cy="151.037" r="2.5253"/>
<circle cx="374.595" cy="162.948" r="2.5253"/>
<circle cx="358.102" cy="164.013" r="2.5253"/>
<circle cx="246.858" cy="188.63" r="2.5253"/>
<circle cx="228.089" cy="194.396" r="2.5253"/>
<circle cx="295.693" cy="241.644" r="2.5253"/>
<circle cx="416.709" cy="211.053" r="2.5253"/>
<circle cx="138.228" cy="203.537" r="2.5253"/>
<circle cx="102.44" cy="238.904" r="2.5253"/>
<circle cx="138.719" cy="214.613" r="2.5253"/>
<circle cx="87.7516" cy="200.87" r="2.5253"/>
<circle cx="126.275" cy="223.389" r="2.5253"/>
<circle cx="216.519" cy="229.329" r="2.5253"/>
<circle cx="315.83" cy="241.547" r="2.5253"/>
<circle cx="232.789" cy="206.333" r="2.5253"/>
<circle cx="484.491" cy="199.937" r="2.5253"/>
<circle cx="377.647" cy="157.54" r="2.5253"/>
<circle cx="386.853" cy="170.164" r="2.5253"/>
<circle cx="180.648" cy="231.783" r="2.5253"/>
<circle cx="265.574" cy="186.606" r="2.5253"/>
<circle cx="114.037" cy="173.073" r="2.5253"/>
<circle cx="277.876" cy="274.925" r="2.5253"/>
<circle cx="405.732" cy="209.084" r="2.5253"/>
<circle cx="224.819" cy="203.753" r="2.5253"/>
<circle cx="454.11" cy="182.13" r="2.5253"/>
<circle cx="291.733" cy="159.743" r="2.5253"/>
<circle cx="226.332" cy="254.831" r="2.5253"/>
<circle cx="279.528" cy="189.911" r="2.5253"/>
<circle cx="96.6984" cy="219.725" r="2.5253"/>
<circle cx="209.079" cy="178.65" r="2.5253"/>
<circle cx="376.519" cy="194.807" r="2.5253"/>
<circle cx="333.522" cy="267.627" r="2.5253"/>
<circle cx="333.879" cy="168.299" r="2.5253"/>
<circle cx="477.603" cy="195.322" r="2.5253"/>
<circle cx="390.633" cy="148.259" r="2.5253"/>
<circle cx="336.611" cy="273.076" r="2.5253"/>
<circle cx="250.604" cy="178.491" r="2.5253"/>
<circle cx="283.975" cy="289.158" r="2.5253"/>
<circle cx="384.008" cy="177.337" r="2.5253"/>
<circle cx="420.156" cy="181.937" r="2.5253"/>
<circle cx="275.621" cy="146.149" r="2.5253"/>
<circle cx="270.269" cy="240.006" r="2.5253"/>
<circle cx="286.543" cy="191.131" r="2.5253"/>
<circle cx="411.151" cy="256.214" r="2.5253"/>
<circle cx="364.489" cy="181.837" r="2.5253"/>
<circle cx="217.153" cy="197.137" r="2.5253"/>
<circle cx="153.564" cy="192.507" r="2.5253"/>
<circle cx="453.544" cy="208.718" r="2.5253"/>
<circle cx="143.508" cy="231.368" r="2.5253"/>
<circle cx="198.164" cy="226.696" r="2.5253"/>
<circle cx="164.167" cy="221.155" r="2.5253"/>
<circle cx="361.972" cy="152.7" r="2.5253"/>
<circle cx="407.489" cy="261.45" r="2.5253"/>
<circle cx="377.281" cy="215.51" r="2.5253"/>
<circle cx="414.387" cy="186.627" r="2.5253"/>
<circle cx="305.334" cy="174.971" r="2.5253"/>
<circle cx="247.607" cy="253.998" r="2.5253"/>
<circle cx="305.914" cy="244.317" r="2.5253"/>
<circle cx="120.176" cy="184.579" r="2.5253"/>
<circle cx="423.142" cy="225.187" r="2.5253"/>
<circle cx="347.865" cy="184.118" r="2.5253"/>
<circle cx="389.879" cy="212.159" r="2.5253"/>
<circle cx="250.275" cy="155.029" r="2.5253"/>
<circle cx="337.807" cy="234.964" r="2.5253"/>
<circle cx="216.427" cy="214.613" r="2.5253"/>
<circle cx="308.197" cy="172.988" r="2.5253"/>
<circle cx="296.009" cy="185.513" r="2.5253"/>
<circle cx="267.177" cy="255.86" r="2.5253"/>
<circle cx="317.292" cy="235.372" r="2.5253"/>
<circle cx="436.169" cy="217.077" r="2.5253"/>
<circle cx="172.215" cy="194.603" r="2.5253"/>
<circle cx="99.3705" cy="203.921" r="2.5253"/>
<circle cx="436.644" cy="260.689" r="2.5253"/>
<circle cx="97.0755" cy="220.569" r="2.5253"/>
<circle cx="196.75" cy="159.475" r="2.5253"/>
<circle cx="386.106" cy="211.925" r="2.5253"/>
<circle cx="347.561" cy="237.237" r="2.5253"/>
<circle cx="335.012" cy="253.457" r="2.5253"/>
<circle cx="365.589" cy="260.172" r="2.5253"/>
<circle cx="236.266" cy="225.295" r="2.5253"/>
<circle cx="118.699" cy="236.608" r="2.5253"/>
<circle cx="395.795" cy="221.677" r="2.5253"/>
<circle cx="327.847" cy="240.095" r="2.5253"/>
<circle cx="370.493" cy="239.572" r="2.5253"/>
<circle cx="285.336" cy="220.927" r="2.5253"/>
<circle cx="237.908" cy="269.09" r="2.5253"/>
<circle cx="322.303" cy="174.502" r="2.5253"/>
<circle cx="339.307" cy="227.548" r="2.5253"/>
<circle cx="437.986" cy="203.014" r="2.5253"/>
<circle cx="383.095" cy="235.917" r="2.5253"/>
<circle cx="443.81" cy="193.704" r="2.5253"/>
<circle cx="264.918" cy="259.882" r="2.5253"/>
<circle cx="362.784" cy="167.012" r="2.5253"/>
<circle cx="311.291" cy="151.843" r="2.5253"/>
<circle cx="305.236" cy="201.686" r="2.5253"/>
<circle cx="334.759" cy="164.808" r="2.5253"/>
<circle cx="278.803" cy="278.603" r="2.5253"/>
<circle cx="296.345" cy="154.041" r="2.5253"/>
<circle cx="280.185" cy="214.256" r="2.5253"/>
<circle cx="241.317" cy="275.977" r="2.5253"/>
<circle cx="307.713" cy="251.333" r="2.5253"/>
<circle cx="437.99" cy="214.064" r="2.5253"/>
<circle cx="148.012" cy="171.274" r="2.5253"/>
<circle cx="255.598" cy="150.854" r="2.5253"/>
<circle cx="333.451" cy="283.51" r="2.5253"/>
<circle cx="452.176" cy="183.482" r="2.5253"/>
<circle cx="88.5709" cy="230.089" r="2.5253"/>
<circle cx="341.574" cy="235.31" r="2.5253"/>
<circle cx="208.669" cy="163.198" r="2.5253"/>
<circle cx="194.746" cy="146.439" r="2.5253"/>
<circle cx="115.425" cy="230.57" r="2.5253"/>
<circle cx="179.3" cy="200.783" r="2.5253"/>
<circle cx="263.255" cy="176.03" r="2.5253"/>
<circle cx="432.803" cy="231.904" r="2.5253"/>
<circle cx="353.099" cy="205.098" r="2.5253"/>
<circle cx="367.839" cy="209.452" r="2.5253"/>
<circle cx="337.141" cy="229.876" r="2.5253"/>
<circle cx="316.625" cy="267.062" r="2.5253"/>
<circle cx="251.778" cy="218.479" r="2.5253"/>
<circle cx="382.139" cy="278.29" r="2.5253"/>
<circle cx="416.608" cy="182.385" r="2.5253"/>
<circle cx="382.118" cy="160.373" r="2.5253"/>
<circle cx="203.628" cy="159.78" r="2.5253"/>
<circle cx="126.052" cy="219.92" r="2.5253"/>
<circle cx="472.172" cy="243.073" r="2.5253"/>
<circle cx="364.553" cy="203.271" r="2.5253"/>
<circle cx="259.42" cy="194.015" r="2.5253"/>
<circle cx="401.37" cy="235.847" r="2.5253"/>
<circle cx="147.862" cy="225.153" r="2.5253"/>
<circle cx="248.572" cy="178.09" r="2.5253"/>
<circle cx="396.602" cy="230.194" r="2.5253"/>
<circle cx="304.54" cy="228.499" r="2.5253"/>
<circle cx="258.511" cy="257.578" r="2.5253"/>
<circle cx="356.604" cy="272.855" r="2.5253"/>
<circle cx="325.357" cy="230.655" r="2.5253"/>
<circle cx="359.918" cy="264.116" r="2.5253"/>
<circle cx="223.026" cy="196.758" r="2.5253"/>
<circle cx="174.251" cy="176.049" r="2.5253"/>
<circle cx="92.986" cy="228.385" r="2.5253"/>
<circle cx="342.816" cy="239.662" r="2.5253"/>
<circle cx="197.736" cy="153.458" r="2.5253"/>
<circle cx="390.61" cy="215.709" r="2.5253"/>
<circle cx="320.611" cy="249.627" r="2.5253"/>
<circle cx="364.093" cy="152.343" r="2.5253"/>
<circle cx="268.924" cy="222.432" r="2.5253"/>
<circle cx="225.793" cy="213.594" r="2.5253"/>
<circle cx="378.148" cy="242.29" r="2.5253"/>
<circle cx="419.604" cy="226.011" r="2.5253"/>
<circle cx="215.97" cy="217.285" r="2.5253"/>
<circle cx="432.065" cy="227.859" r="2.5253"/>
<circle cx="141.898" cy="193.799" r="2.5253"/>
<circle cx="253.663" cy="171.074" r="2.5253"/>
<circle cx="247.662" cy="234.962" r="2.5253"/>
<circle cx="304.539" cy="183.24" r="2.5253"/>
<circle cx="210.808" cy="239.948" r="2.5253"/>
<circle cx="316.947" cy="190.587" r="2.5253"/>
<circle cx="215.096" cy="209.634" r="2.5253"/>
<circle cx="319.032" cy="195.645" r="2.5253"/>
<circle cx="99.0481" cy="220.031" r="2.5253"/>
<circle cx="167.163" cy="183.707" r="2.5253"/>
<circle cx="368.245" cy="251.252" r="2.5253"/>
<circle cx="350.105" cy="189.131" r="2.5253"/>
<circle cx="417.563" cy="168.731" r="2.5253"/>
<circle cx="149.495" cy="262.338" r="2.5253"/>
<circle cx="439.297" cy="192.091" r="2.5253"/>
<circle cx="275.712" cy="157.537" r="2.5253"/>
<circle cx="353.723" cy="256.971" r="2.5253"/>
<circle cx="291.601" cy="245.463" r="2.5253"/>
<circle cx="79.3503" cy="213.709" r="2.5253"/>
<circle cx="296.623" cy="198.405" r="2.5253"/>
<circle cx="190.932" cy="205.354" r="2.5253"/>
<circle cx="435.097" cy="221.056" r="2.5253"/>
<circle cx="378.557" cy="165.776" r="2.5253"/>
<circle cx="261.474" cy="249.541" r="2.5253"/>
<circle cx="435.374" cy="192.913" r="2.5253"/>
<circle cx="366.255" cy="159.96" r="2.5253"/>
<circle cx="356.236" cy="145.182" r="2.5253"/>
<circle cx="348.382" cy="240.462" r="2.5253"/>
<circle cx="267.21" cy="171.972" r="2.5253"/>
<circle cx="305.472" cy="204.15" r="2.5253"/>
<circle cx="297.16" cy="154.455" r="2.5253"/>
<circle cx="365.879" cy="155.286" r="2.5253"/>
<circle cx="206.756" cy="205.997" r="2.5253"/>
<circle cx="321.672" cy="194.637" r="2.5253"/>
<circle cx="278.839" cy="210.169" r="2.5253"/>
<circle cx="219.881" cy="208.763" r="2.5253"/>
<circle cx="193.398" cy="223.369" r="2.5253"/>
<circle cx="141.093" cy="167.086" r="2.5253"/>
<circle cx="260.867" cy="185.07" r="2.5253"/>
<circle cx="220.952" cy="262.712" r="2.5253"/>
<circle cx="196.218" cy="223.103" r="2.5253"/>
<circle cx="314.194" cy="188.447" r="2.5253"/>
<circle cx="437.196" cy="210.274" r="2.5253"/>
<circle cx="450.597" cy="207.648" r="2.5253"/>
<circle cx="290.777" cy="228.832" r="2.5253"/>
<circle cx="227.998" cy="148.047" r="2.5253"/>
<circle cx="402.238" cy="171.648" r="2.5253"/>
<circle cx="396.608" cy="203.146" r="2.5253"/>
<circle cx="270.024" cy="232.281" r="2.5253"/>
<circle cx="226.426" cy="262.192" r="2.5253"/>
<circle cx="252.043" cy="222.313" r="2.5253"/>
<circle cx="423.546" cy="227.07" r="2.5253"/>
<circle cx="368.788" cy="233.026" r="2.5253"/>
<circle cx="226.253" cy="162.217" r="2.5253"/>
<circle cx="196.087" cy="253.416" r="2.5253"/>
<circle cx="305.615" cy="222.948" r="2.5253"/>
<circle cx="275.539" cy="199.775" r="2.5253"/>
<circle cx="276.257" cy="204.122" r="2.5253"/>
<circle cx="163.418" cy="168.068" r="2.5253"/>
<circle cx="171.027" cy="171.048" r="2.5253"/>
<circle cx="311.719" cy="270.762" r="2.5253"/>
<circle cx="414.401" cy="254.062" r="2.5253"/>
<circle cx="401.724" cy="193.881" r="2.5253"/>
<circle cx="179.736" cy="267.082" r="2.5253"/>
<circle cx="370.332" cy="161.675" r="2.5253"/>
<circle cx="230.866" cy="271.604" r="2.5253"/>
<circle cx="159.374" cy="191.634" r="2.5253"/>
<circle cx="427.74" cy="197.685" r="2.5253"/>
<circle cx="437.675" cy="182.149" r="2.5253"/>
<circle cx="175.091" cy="254.702" r="2.5253"/>
<circle cx="286.746" cy="246.146" r="2.5253"/>
<circle cx="459.178" cy="185.68" r="2.5253"/>
<circle cx="196.175" cy="175.083" r="2.5253"/>
<circle cx="371.711" cy="199.937" r="2.5253"/>
<circle cx="211.296" cy="233.871" r="2.5253"/>
<circle cx="291.828" cy="179.256" r="2.5253"/>
<circle cx="346.944" cy="268.991" r="2.5253"/>
<circle cx="164.347" cy="180.38" r="2.5253"/>
<circle cx="290.747" cy="194.412" r="2.5253"/>
<circle cx="255.461" cy="155.24" r="2.5253"/>
<circle cx="168.652" cy="214.648" r="2.5253"/>
<circle cx="242.518" cy="231.275" r="2.5253"/>
<circle cx="170.566" cy="238.908" r="2.5253"/>
<circle cx="302.528" cy="231.74" r="2.5253"/>
<circle cx="224.646" cy="192.213" r="2.5253"/>
<circle cx="209.031" cy="202.932" r="2.5253"/>
<circle cx="394.51" cy="221.263" r="2.5253"/>
<circle cx="285.659" cy="187.059" r="2.5253"/>
<circle cx="461.368" cy="231.547" r="2.5253"/>
<circle cx="245.79" cy="266.541" r="2.5253"/>
<circle cx="122.163" cy="233.552" r="2.5253"/>
<circle cx="260.508" cy="226.869" r="2.5253"/>
<circle cx="210.563" cy="217.816" r="2.5253"/>
<circle cx="320.834" cy="158.925" r="2.5253"/>
<circle cx="153.145" cy="216.878" r="2.5253"/>
<circle cx="348.736" cy="266.073" r="2.5253"/>
<circle cx="165.112" cy="196.964" r="2.5253"/>
<circle cx="245.685" cy="212.883" r="2.5253"/>
<circle cx="383.757" cy="179.618" r="2.5253"/>
<circle cx="322.101" cy="237.112" r="2.5253"/>
<circle cx="434.248" cy="213.338" r="2.5253"/>
<circle cx="209.011" cy="203.164" r="2.5253"/>
<circle cx="349.661" cy="246.994" r="2.5253"/>
<circle cx="424.721" cy="251.534" r="2.5253"/>
<circle cx="156.999" cy="172.3" r="2.5253"/>
<circle cx="207.547" cy="165.691" r="2.5253"/>
<circle cx="277.56" cy="156.238" r="2.5253"/>
<circle cx="407.627" cy="261.879" r="2.5253"/>
<circle cx="200.862" cy="176.017" r="2.5253"/>
<circle cx="328.359" cy="149.976" r="2.5253"/>
<circle cx="470.245" cy="209.437" r="2.5253"/>
<circle cx="161.066" cy="230.128" r="2.5253"/>
<circle cx="327.058" cy="211.253" r="2.5253"/>
<circle cx="165.99" cy="201.948" r="2.5253"/>
<circle cx="421.329" cy="163" r="2.5253"/>
<circle cx="325.074" cy="208.351" r="2.5253"/>
<circle cx="212.409" cy="249.369" r="2.5253"/>
<circle cx="309.988" cy="196.93" r="2.5253"/>
<circle cx="284.483" cy="138.356" r="2.5253"/>
<circle cx="430.92" cy="186.403" r="2.5253"/>
<circle cx="374.414" cy="252.712" r="2.5253"/>
<circle cx="219.004" cy="175.787" r="2.5253"/>
<circle cx="293.497" cy="152.765" r="2.5253"/>
<circle cx="117.948" cy="207.086" r="2.5253"/>
<circle cx="257.11" cy="168.8" r="2.5253"/>
<circle cx="378.991" cy="159.375" r="2.5253"/>
<circle cx="180.486" cy="196.57" r="2.5253"/>
<circle cx="419.27" cy="250.799" r="2.5253"/>
<circle cx="277.32" cy="245.21" r="2.5253"/>
<circle cx="329.186" cy="282.4" r="2.5253"/>
<circle cx="140.044" cy="245.784" r="2.5253"/>
<circle cx="285.017" cy="228.655" r="2.5253"/>
<circle cx="174.19" cy="162.606" r="2.5253"/>
<circle cx="88.796" cy="184.892" r="2.5253"/>
<circle cx="390.601" cy="201.458" r="2.5253"/>
<circle cx="289.722" cy="242.153" r="2.5253"/>
<circle cx="480.696" cy="208.828" r="2.5253"/>
<circle cx="450.223" cy="206.903" r="2.5253"/>
<circle cx="341.443" cy="247.936" r="2.5253"/>
<circle cx="224.989" cy="248.445" r="2.5253"/>
<circle cx="144.63" cy="204.742" r="2.5253"/>
<circle cx="364.155" cy="175.668" r="2.5253"/>
<circle cx="289.084" cy="175.878" r="2.5253"/>
<circle cx="379.312" cy="235.1" r="2.5253"/>
<circle cx="299.042" cy="153.464" r="2.5253"/>
<circle cx="387.891" cy="154.605" r="2.5253"/>
<circle cx="153.149" cy="264.144" r="2.5253"/>
<circle cx="397.44" cy="202.819" r="2.5253"/>
<circle cx="223.439" cy="284.646" r="2.5253"/>
<circle cx="326.599" cy="286.361" r="2.5253"/>
<circle cx="430.555" cy="210.22" r="2.5253"/>
<circle cx="176.514" cy="226.827" r="2.5253"/>
<circle cx="293.656" cy="222.246" r="2.5253"/>
<circle cx="338.952" cy="242.503" r="2.5253"/>
<circle cx="210.093" cy="205.939" r="2.5253"/>
<circle cx="305.698" cy="223.625" r="2.5253"/>
<circle cx="220.226" cy="145.474" r="2.5253"/>
<circle cx="339.647" cy="206.093" r="2.5253"/>
<circle cx="358.912" cy="176.771" r="2.5253"/>
<circle cx="454.206" cy="250.818" r="2.5253"/>
<circle cx="144.356" cy="264.633" r="2.5253"/>
<circle cx="335.994" cy="280.419" r="2.5253"/>
<circle cx="189.745" cy="216.991" r="2.5253"/>
<circle cx="206.864" cy="188.21" r="2.5253"/>
<circle cx="424.591" cy="167.447" r="2.5253"/>
<circle cx="139.771" cy="184.624" r="2.5253"/>
<circle cx="145.201" cy="185.9" r="2.5253"/>
<circle cx="339.646" cy="167.221" r="2.5253"/>
<circle cx="372.535" cy="160.713" r="2.5253"/>
<circle cx="253.518" cy="222.335" r="2.5253"/>
<circle cx="454.51" cy="216.623" r="2.5253"/>
<circle cx="245.044" cy="241.635" r="2.5253"/>
<circle cx="349.593" cy="263.207" r="2.5253"/>
<circle cx="157.074" cy="181.896" r="2.5253"/>
<circle cx="450.659" cy="216.512" r="2.5253"/>
<circle cx="346.18" cy="204.66" r="2.5253"/>
<circle cx="388.612" cy="158.988" r="2.5253"/>
<circle cx="159.916" cy="269.806" r="2.5253"/>
<circle cx="227.57" cy="285.084" r="2.5253"/>
<circle cx="195.491" cy="231.535" r="2.5253"/>
<circle cx="203.288" cy="263.232" r="2.5253"/>
<circle cx="213.578" cy="192.177" r="2.5253"/>
<circle cx="372.831" cy="144.523" r="2.5253"/>
<circle cx="155.823" cy="247.709" r="2.5253"/>
<circle cx="286.644" cy="223.691" r="2.5253"/>
<circle cx="346.412" cy="177.373" r="2.5253"/>
<circle cx="155.597" cy="239.271" r="2.5253"/>
<circle cx="154.007" cy="169.384" r="2.5253"/>
<circle cx="242.939" cy="176.714" r="2.5253"/>
<circle cx="408.258" cy="152.427" r="2.5253"/>
<circle cx="253.742" cy="200.842" r="2.5253"/>
<circle cx="379.943" cy="232.545" r="2.5253"/>
<circle cx="265.258" cy="199.604" r="2.5253"/>
<circle cx="455.306" cy="172.187" r="2.5253"/>
<circle cx="447.607" cy="233.98" r="2.5253"/>
<circle cx="387.265" cy="190.302" r="2.5253"/>
<circle cx="416.569" cy="197.577" r="2.5253"/>
<circle cx="384.037" cy="199.64" r="2.5253"/>
<circle cx="436.451" cy="250.792" r="2.5253"/>
<circle cx="221.138" cy="201.587" r="2.5253"/>
<circle cx="248.127" cy="179.245" r="2.5253"/>
<circle cx="261.934" cy="289.169" r="2.5253"/>
<circle cx="435.924" cy="203.253" r="2.5253"/>
<circle cx="405.988" cy="203.751" r="2.5253"/>
<circle cx="445.879" cy="226.795" r="2.5253"/>
<circle cx="338.79" cy="222.709" r="2.5253"/>
<circle cx="331.072" cy="252.895" r="2.5253"/>
<circle cx="222.346" cy="195.637" r="2.5253"/>
<circle cx="438.51" cy="264.065" r="2.5253"/>
<circle cx="356.538" cy="235.689" r="2.5253"/>
<circle cx="173.553" cy="232.926" r="2.5253"/>
<circle cx="405.499" cy="153.828" r="2.5253"/>
<circle cx="320.265" cy="172.614" r="2.5253"/>
<circle cx="314.636" cy="277.226" r="2.5253"/>
<circle cx="237.201" cy="263.51" r="2.5253"/>
<circle cx="347.721" cy="277.609" r="2.5253"/>
<circle cx="347.166" cy="268.615" r="2.5253"/>
<circle cx="213" cy="171.411" r="2.5253"/>
<circle cx="350.446" cy="240.429" r="2.5253"/>
<circle cx="282.902" cy="229.114" r="2.5253"/>
<circle cx="402.18" cy="180.335" r="2.5253"/>
<circle cx="259.016" cy="150.458" r="2.5253"/>
<circle cx="326.792" cy="277.951" r="2.5253"/>
<circle cx="113.885" cy="237.584" r="2.5253"/>
<circle cx="242.398" cy="196.737" r="2.5253"/>
<circle cx="379.911" cy="239.562" r="2.5253"/>
<circle cx="297.484" cy="288.819" r="2.5253"/>
<circle cx="258.207" cy="208.31" r="2.5253"/>
<circle cx="234.229" cy="190.652" r="2.5253"/>
<circle cx="247.366" cy="139.071" r="2.5253"/>
<circle cx="362.819" cy="269.244" r="2.5253"/>
<circle cx="191.931" cy="187.625" r="2.5253"/>
<circle cx="344.27" cy="227.307" r="2.5253"/>
<circle cx="353.798" cy="247.908" r="2.5253"/>
<circle cx="177.837" cy="167.72" r="2.5253"/>
<circle cx="330.549" cy="150.825" r="2.5253"/>
<circle cx="262.325" cy="248.282" r="2.5253"/>
<circle cx="318.823" cy="280.846" r="2.5253"/>
<circle cx="413.257" cy="162.113" r="2.5253"/>
<circle cx="207.229" cy="180.041" r="2.5253"/>
<circle cx="254.699" cy="253.033" r="2.5253"/>
<circle cx="329.233" cy="270.734" r="2.5253"/>
<circle cx="306.873" cy="143.316" r="2.5253"/>
<circle cx="126.595" cy="221.791" r="2.5253"/>
<circle cx="139.667" cy="240.986" r="2.5253"/>
<circle cx="181.894" cy="170.295" r="2.5253"/>
<circle cx="342.71" cy="258.118" r="2.5253"/>
<circle cx="306.839" cy="218.663" r="2.5253"/>
<circle cx="183.105" cy="218.88" r="2.5253"/>
<circle cx="159.448" cy="253.594" r="2.5253"/>
<circle cx="208.375" cy="145.583" r="2.5253"/>
<circle cx="137.57" cy="257.199" r="2.5253"/>
<circle cx="217.788" cy="235.014" r="2.5253"/>
<circle cx="137.617" cy="161.558" r="2.5253"/>
<circle cx="175.769" cy="251.812" r="2.5253"/>
<circle cx="225.575" cy="142.675" r="2.5253"/>
<circle cx="399.173" cy="235.986" r="2.5253"/>
<circle cx="420.555" cy="201.458" r="2.5253"/>
<circle cx="111.582" cy="237.951" r="2.5253"/>
<circle cx="408.638" cy="242.164" r="2.5253"/>
<circle cx="206.492" cy="155.222" r="2.5253"/>
<circle cx="135.325" cy="165.275" r="2.5253"/>
<circle cx="115.857" cy="251.524" r="2.5253"/>
<circle cx="356.676" cy="270.228" r="2.5253"/>
<circle cx="202.763" cy="171.296" r="2.5253"/>
<circle cx="332.411" cy="280.292" r="2.5253"/>
<circle cx="232.125" cy="191.865" r="2.5253"/>
<circle cx="237.138" cy="217.884" r="2.5253"/>
<circle cx="277.371" cy="289.898" r="2.5253"/>
<circle cx="446.677" cy="195.735" r="2.5253"/>
<circle cx="388.929" cy="212.574" r="2.5253"/>
<circle cx="412.043" cy="185.037" r="2.5253"/>
<circle cx="432.217" cy="207.843" r="2.5253"/>
<circle cx="204.538" cy="264.317" r="2.5253"/>
<circle cx="354.863" cy="251.171" r="2.5253"/>
<circle cx="382.062" cy="199.269" r="2.5253"/>
<circle cx="332.663" cy="274.592" r="2.5253"/>
<circle cx="198.953" cy="222.905" r="2.5253"/>
<circle cx="276.962" cy="221.656" r="2.5253"/>
<circle cx="186.073" cy="179.839" r="2.5253"/>
<circle cx="330.223" cy="154.157" r="2.5253"/>
<circle cx="383.534" cy="244.554" r="2.5253"/>
<circle cx="158.862" cy="265.038" r="2.5253"/>
<circle cx="347.289" cy="152.448" r="2.5253"/>
</g>
<g fill="#0000ff">
<circle cx="372.957" cy="200.636" r="2.5253"/>
<circle cx="261.622" cy="190.326" r="2.5253"/>
<circle cx="148.403" cy="200.948" r="2.5253"/>
<circle cx="341.964" cy="190.318" r="2.5253"/>
<circle cx="159.608" cy="183.987" r="2.5253"/>
<circle cx="234.439" cy="219.586" r="2.5253"/>
<circle cx="289.263" cy="173.869" r="2.5253"/>
<circle cx="276.492" cy="194.179" r="2.5253"/>
<circle cx="331.973" cy="208.546" r="2.5253"/>
<circle cx="418.725" cy="185.101" r="2.5253"/>
<circle cx="263.158" cy="199.046" r="2.5253"/>
<circle cx="279.089" cy="216.507" r="2.5253"/>
<circle cx="230.907" cy="224.83" r="2.5253"/>
<circle cx="233.949" cy="270.222" r="2.5253"/>
<circle cx="466.487" cy="232.071" r="2.5253"/>
<circle cx="366.798" cy="219.907" r="2.5253"/>
<circle cx="368.688" cy="201.558" r="2.5253"/>
<circle cx="278.353" cy="162.58" r="2.5253"/>
<circle cx="431.102" cy="223.949" r="2.5253"/>
<circle cx="304.813" cy="258.466" r="2.5253"/>
<circle cx="315.759" cy="285.004" r="2.5253"/>
<circle cx="169.948" cy="168.762" r="2.5253"/>
<circle cx="219.453" cy="191.826" r="2.5253"/>
<circle cx="151.938" cy="244.61" r="2.5253"/>
<circle cx="367.167" cy="148.904" r="2.5253"/>
<circle cx="353.886" cy="170.845" r="2.5253"/>
<circle cx="274.582" cy="280.382" r="2.5253"/>
<circle cx="407.113" cy="220.834" r="2.5253"/>
<circle cx="234.848" cy="170.586" r="2.5253"/>
<circle cx="112.32" cy="237.584" r="2.5253"/>
<circle cx="488.834" cy="215.708" r="2.5253"/>
<circle cx="255.595" cy="205.637" r="2.5253"/>
<circle cx="200.355" cy="153.193" r="2.5253"/>
<circle cx="278.942" cy="230.845" r="2.5253"/>
<circle cx="291.726" cy="240.323" r="2.5253"/>
<circle cx="299.461" cy="160.465" r="2.5253"/>
<circle cx="350.113" cy="211.025" r="2.5253"/>
<circle cx="323.543" cy="230.063" r="2.5253"/>
<circle cx="146.383" cy="165.258" r="2.5253"/>
<circle cx="323.656" cy="248.634" r="2.5253"/>
<circle cx="300.235" cy="244.08" r="2.5253"/>
<circle cx="329.453" cy="188.183" r="2.5253"/>
<circle cx="426.881" cy="215.444" r="2.5253"/>
<circle cx="438.278" cy="193.307" r="2.5253"/>
<circle cx="419.927" cy="172.218" r="2.5253"/>
<circle cx="234.187" cy="215.656" r="2.5253"/>
<circle cx="292.47" cy="228.908" r="2.5253"/>
<circle cx="147.54" cy="218.902" r="2.5253"/>
<circle cx="440.216" cy="185.181" r="2.5253"/>
<circle cx="137.299" cy="168.261" r="2.5253"/>
<circle cx="293.856" cy="256.393" r="2.5253"/>
<circle cx="191.54" cy="172.594" r="2.5253"/>
<circle cx="243.053" cy="278.784" r="2.5253"/>
<circle cx="206.682" cy="191.451" r="2.5253"/>
<circle cx="91.4946" cy="236.343" r="2.5253"/>
<circle cx="176.199" cy="228.972" r="2.5253"/>
</g></svg>
